<?xml version="1.0" encoding="UTF-8" standalone="no"?><svg xmlns="http://www.w3.org/2000/svg" xmlns:xlink="http://www.w3.org/1999/xlink" contentStyleType="text/css" height="201px" preserveAspectRatio="none" style="width:651px;height:201px;background:#FFFFFF;" version="1.1" viewBox="0 0 651 201" width="651px" zoomAndPan="magnify"><defs/><g><!--MD5=[49cd22768e1054f63137ca6d126948cc]
cluster フロントエンド--><g id="cluster_フロントエンド"><path d="M135.556,17.1068 C139.6652,9.8586 144.5558,10.8047 149.313,16.4134 C152.6062,10.6173 158.1018,10.531 161.7376,16.0367 C164.669,9.4515 169.5275,10.1698 173.6393,14.7819 C177.09,7.7637 181.6731,7.0324 187.0949,12.6894 C191.3191,7.7255 196.1241,8.1763 199.6129,13.5776 C204.7352,8.5383 208.6155,8.5335 212.1653,15.2558 C216.4973,9.6146 220.3669,8.7156 224.4133,15.5365 C232.5246,9.9721 241.546,12.0537 242,23.468 C243.1152,23.91 243.2788,24.4956 242.4325,25.381 C248.6985,27.6594 248.8933,31.5888 245.1903,36.3693 C250.7411,39.9227 252.9307,45.0966 246.0077,49.4307 C253.2774,52.4878 254.289,57.3883 248.1173,62.5989 C253.7548,66.4204 253.6234,70.881 248.1655,74.7465 C256.3731,78.7099 256.846,83.2664 249.6513,88.8521 C255.3603,91.8963 257.4881,96.2412 251.6846,101.1837 C256.8887,104.0871 258.1514,109.9735 251.8818,113.0673 C257.6233,118.4573 256.1959,123.4295 248.7251,125.4518 C255.174,128.7765 254.3915,134.2349 248.7591,137.5934 C254.7781,143.4663 252.868,148.1656 245.4578,150.6404 C252.4464,155.4682 250.5155,160.6608 244.5008,164.597 C250.8087,175.7119 246.5143,180.828 235,182.468 C236.0501,181.8797 236.9325,182.2548 236.9086,183.554 C233.3819,190.9872 226.5834,190.1498 222.7316,183.8906 C220.443,190.3084 216.3129,189.8523 211.9496,186.0874 C208.4926,192.1207 202.1801,192.1191 198.4844,186.36 C195.6316,192.9875 192.0906,194.0504 186.935,188.5538 C182.5495,193.0108 177.0628,192.6861 174.5721,186.3777 C169.8494,193.6173 164.4799,193.0602 160.0186,186.1096 C156.0795,190.9846 152.2605,191.1763 149.4221,185.0494 C136.8555,193.5238 131.1181,188.1187 128,175.468 C129.2406,175.5485 129.6744,176.137 129.3606,177.3445 C122.1235,175.4615 121.0251,169.2332 126.9083,164.7877 C119.2463,160.3051 120.5018,155.6045 126.4889,150.7151 C121.1544,148.0254 120.9002,142.5146 125.4478,138.9505 C119.1423,136.2361 119.2925,129.9717 124.3046,126.2395 C116.5803,122.8885 116.7862,116.6837 123.4857,112.4746 C117.9687,110.2754 118.0096,104.7953 122.2903,101.5263 C114.9739,97.9233 115.923,91.5921 121.7409,87.4756 C117.6346,83.0046 116.9698,78.8732 123.453,75.9794 C116.9199,70.9992 117.2268,65.7918 124.5234,61.86 C119.4926,57.592 119.6391,51.9062 126.2172,49.1903 C121.6043,44.7119 121.9807,39.9969 128.6778,38.0069 C119.4585,28.4241 123.7514,20.043 135,16.468 C135.4463,16.4158 135.7124,16.6344 135.556,17.1068 " style="stroke:#181818;stroke-width:1.0;fill:none;"/><text fill="#000000" font-family="&quot;Yu Gothic UI, sans-serif&quot;" font-size="14" font-weight="bold" lengthAdjust="spacing" textLength="105" x="132.5" y="34.4631">フロントエンド</text></g><!--MD5=[6d03f081b289af29d116bef46a0e8f89]
cluster ゲートウェイ--><g id="cluster_ゲートウェイ"><path d="M287.7899,101.5746 C289.8624,95.9953 293.4348,95.7428 297.8386,98.89 C300.0702,92.7073 304.9048,92.3677 308.6788,97.399 C311.9555,91.9086 318.193,92.4967 321.2727,97.6325 C324.3402,92.321 327.6173,91.8997 332.1447,95.9343 C335.4021,89.6365 341.0163,89.4156 344.2634,95.944 C349.1013,91.0654 352.9857,91.7502 355.2988,98.3677 C358.9186,93.666 363.5478,94.6892 366.1452,99.5299 C369.8191,93.9623 375.0796,95.1865 377.817,100.5316 C385.1906,103.2619 385.4378,110.1388 379.7509,114.6572 C385.8605,116.9299 387.8679,122.9265 381.7264,127.1383 C388.6353,131.5573 390.4685,136.3795 383.6758,142.5334 C388.9449,147.9241 389.5245,152.8933 381.4133,156.043 C388.1646,160.787 387.4185,165.6014 380.5513,169.4713 C385.6596,176.0159 384.5418,180.8775 376.7601,184.0759 C373.3003,189.5541 368.512,189.4199 365.6322,183.5092 C362.4752,188.5505 358.8842,189.7365 354.7854,184.5035 C352.233,189.1364 347.9256,190.3056 344.2546,185.7913 C340.2867,192.2621 335.9726,191.2103 331.6823,186.1426 C327.3318,190.7368 323.4618,189.7168 321.1553,184.0464 C316.9758,189.7275 313.0011,190.1136 308.9475,183.917 C306.1555,188.9405 303.0851,189.7434 299.3206,184.8624 C294.6198,189.8713 290.6319,188.2125 288.1212,182.5615 C281.8506,179.774 280.2722,174.26 285.7489,169.3613 C279.0131,167.1724 278.0831,161.7248 282.7004,156.7842 C275.9042,151.5892 275.5651,147.1387 283.1291,142.3708 C275.9547,137.9036 274.9594,132.8323 282.6656,127.8889 C276.5958,121.4419 278.9725,117.4533 286.0696,114.3061 C280.1067,110.1014 281.7285,104.1545 287.7899,101.5746 " style="stroke:#181818;stroke-width:1.0;fill:none;"/><text fill="#000000" font-family="&quot;Yu Gothic UI, sans-serif&quot;" font-size="14" font-weight="bold" lengthAdjust="spacing" textLength="90" x="286" y="117.4631">ゲートウェイ</text></g><!--MD5=[0cf1b91f19d1ba1d44d524ccce57a2e2]
cluster マイクロサービス--><g id="cluster_マイクロサービス"><path d="M428.2186,18.5548 C432.2967,9.8938 439.4209,11.0905 444.3958,17.5983 C449.0114,11.0813 455.0666,9.5316 460.1333,17.0941 C463.9581,9.0656 471.7722,6.4683 477.4333,15.1985 C480.425,7.8912 488.107,7.608 492.6768,13.3559 C498.4006,6 503.0314,7.2919 507.2079,14.8622 C512.7395,6.4494 519.0626,7.2566 524.9412,14.4683 C530.2876,6.5383 536.1296,7.3194 540.8009,15.1478 C544.9237,6.8204 552.531,6.5462 556.9813,14.8288 C561.9339,7.9143 566.6594,7.9962 571.6522,14.7858 C578.3439,6.5585 585.9307,6.9495 589.6416,17.6229 C594.8226,9.5443 599.8205,9.8661 604.9964,17.6279 C614.1584,9.5972 622.1144,12.5224 626,23.468 C626.9626,23.333 627.4187,23.7364 627.115,24.7248 C636.418,28.983 636.0425,35.2159 628.856,41.2151 C636.4614,44.6144 638.5812,50.7169 631.2272,56.4452 C639.1831,59.6774 639.3734,65.1836 633.2104,70.4194 C640.8099,73.7505 643.4924,78.8093 636.522,85.3681 C644.942,90.0091 644.5166,95.8187 638.4019,102.0934 C642.8003,107.9344 641.407,114.0485 633.8532,115.9723 C642.3956,119.6348 642.121,127.1599 634.3507,131.3501 C641.296,137.1515 641.3339,143.5525 632.5283,147.5859 C637.5799,153.9829 635.3443,159.8774 627.9632,162.4581 C635.1072,173.1539 632.5363,181.0358 619,182.468 C620.0037,182.5543 620.4374,183.009 620.0735,184.0333 C614.8592,192.0783 608.7349,190.9864 604.1335,183.408 C600.0159,190.7085 593.4979,193.0932 587.8002,185.0949 C581.6041,192.3594 576.7209,191.956 572.5505,183.1703 C568.365,192.384 559.8669,190.6196 555.5467,183.3088 C551.955,189.5377 544.7342,190.448 540.6719,183.8546 C536.1979,192.9975 527.6307,191.7425 523.2562,183.7535 C518.2566,192.2178 513.3905,192.3713 507.2275,184.9257 C502.9476,191.7438 497.7079,192.2334 493.6584,184.7078 C489.1834,193.3906 481.0627,192.9075 477.0067,184.3041 C472.9022,191.9018 466.7383,193.6301 461.3746,185.5604 C455.3181,194.2347 447.0179,193.4766 443.4583,183.1998 C432.061,190.7818 424.4607,188.9316 420,175.468 C421.0011,174.3109 421.8292,174.374 422.5555,175.7457 C416.2026,172.4132 414.0866,166.6414 420.6388,161.5647 C413.5108,156.8109 413.2457,151.6933 420.1665,146.4991 C411.7104,142.6098 411.4583,136.393 419.0637,131.3356 C411.8454,127.6933 411.4829,121.4963 417.9628,116.8154 C409.0197,112.0102 409.8184,106.2635 416.0856,99.782 C410.7131,94.0098 410.4177,88.7803 418.4517,85.1806 C410.9898,80.3537 409.4596,75.0275 417.2817,69.0893 C411.9736,64.1023 414.1974,59.0031 420.1653,56.6247 C413.3155,51.9576 412.8492,46.9018 419.2251,41.4169 C408.0263,30.1398 412.923,19.8684 427,16.468 C428.3556,16.6406 428.6447,17.3418 428.2186,18.5548 " style="stroke:#181818;stroke-width:1.0;fill:none;"/><text fill="#000000" font-family="&quot;Yu Gothic UI, sans-serif&quot;" font-size="14" font-weight="bold" lengthAdjust="spacing" textLength="120" x="463" y="34.4631">マイクロサービス</text></g><!--MD5=[7e882e6620e2a97ffcca45e9f60fb6b7]
entity ウェブアプリ--><g id="elem_ウェブアプリ"><path d="M164.5,47.468 L164.5,71.468 M164.5,59.468 L181.5,59.468 " fill="none" style="stroke:#181818;stroke-width:0.5;"/><ellipse cx="193.5" cy="59.468" fill="#F1F1F1" rx="12" ry="12" style="stroke:#181818;stroke-width:0.5;"/><text fill="#000000" font-family="&quot;Yu Gothic UI, sans-serif&quot;" font-size="14" lengthAdjust="spacing" textLength="84" x="143" y="88.4631">ウェブアプリ</text></g><!--MD5=[1c7ec1a8c617255691be87360e9c6121]
entity モバイルアプリ--><g id="elem_モバイルアプリ"><path d="M164.5,130.468 L164.5,154.468 M164.5,142.468 L181.5,142.468 " fill="none" style="stroke:#181818;stroke-width:0.5;"/><ellipse cx="193.5" cy="142.468" fill="#F1F1F1" rx="12" ry="12" style="stroke:#181818;stroke-width:0.5;"/><text fill="#000000" font-family="&quot;Yu Gothic UI, sans-serif&quot;" font-size="14" lengthAdjust="spacing" textLength="98" x="136" y="171.4631">モバイルアプリ</text></g><!--MD5=[645d8587175d8f7ad110cd370775931d]
entity API--><g id="elem_API"><ellipse cx="331" cy="142.468" fill="#F1F1F1" rx="12" ry="12" style="stroke:#181818;stroke-width:0.5;"/><polygon fill="#181818" points="327,130.468,333,125.468,331,130.468,333,135.468,327,130.468" style="stroke:#181818;stroke-width:1.0;"/><text fill="#000000" font-family="&quot;Yu Gothic UI, sans-serif&quot;" font-size="14" lengthAdjust="spacing" textLength="23" x="319.5" y="171.4631">API</text></g><!--MD5=[323fb57889cfe88e7cd0b75c8f3d1e37]
entity サービス1--><g id="elem_サービス1"><ellipse cx="460.5" cy="142.468" fill="#F1F1F1" rx="12" ry="12" style="stroke:#181818;stroke-width:0.5;"/><polygon fill="#181818" points="456.5,130.468,462.5,125.468,460.5,130.468,462.5,135.468,456.5,130.468" style="stroke:#181818;stroke-width:1.0;"/><text fill="#000000" font-family="&quot;Yu Gothic UI, sans-serif&quot;" font-size="14" lengthAdjust="spacing" textLength="65" x="428" y="171.4631">サービス1</text></g><!--MD5=[5685df241faaa2a4c1428b6807d623d8]
entity サービス2--><g id="elem_サービス2"><ellipse cx="460.5" cy="59.468" fill="#F1F1F1" rx="12" ry="12" style="stroke:#181818;stroke-width:0.5;"/><polygon fill="#181818" points="456.5,47.468,462.5,42.468,460.5,47.468,462.5,52.468,456.5,47.468" style="stroke:#181818;stroke-width:1.0;"/><text fill="#000000" font-family="&quot;Yu Gothic UI, sans-serif&quot;" font-size="14" lengthAdjust="spacing" textLength="64" x="428.5" y="88.4631">サービス2</text></g><!--MD5=[f292190669091b9bd2cb100449f03c89]
entity サービス3--><g id="elem_サービス3"><ellipse cx="585.5" cy="142.468" fill="#F1F1F1" rx="12" ry="12" style="stroke:#181818;stroke-width:0.5;"/><polygon fill="#181818" points="581.5,130.468,587.5,125.468,585.5,130.468,587.5,135.468,581.5,130.468" style="stroke:#181818;stroke-width:1.0;"/><text fill="#000000" font-family="&quot;Yu Gothic UI, sans-serif&quot;" font-size="14" lengthAdjust="spacing" textLength="65" x="553" y="171.4631">サービス3</text></g><!--MD5=[c6094ab151b8b54c73476c4fb8c316de]
entity サービス4--><g id="elem_サービス4"><ellipse cx="585.5" cy="59.468" fill="#F1F1F1" rx="12" ry="12" style="stroke:#181818;stroke-width:0.5;"/><polygon fill="#181818" points="581.5,47.468,587.5,42.468,585.5,47.468,587.5,52.468,581.5,47.468" style="stroke:#181818;stroke-width:1.0;"/><text fill="#000000" font-family="&quot;Yu Gothic UI, sans-serif&quot;" font-size="14" lengthAdjust="spacing" textLength="64" x="553.5" y="88.4631">サービス4</text></g><!--MD5=[cb806db31311588c371a8644e7db75c6]
entity カスタマー--><g id="elem_カスタマー"><ellipse cx="41" cy="79.968" fill="#F1F1F1" rx="8" ry="8" style="stroke:#181818;stroke-width:0.5;"/><path d="M41,87.968 L41,114.968 M28,95.968 L54,95.968 M41,114.968 L28,129.968 M41,114.968 L54,129.968 " fill="none" style="stroke:#181818;stroke-width:0.5;"/><text fill="#000000" font-family="&quot;Yu Gothic UI, sans-serif&quot;" font-size="14" lengthAdjust="spacing" textLength="70" x="6" y="144.4631">カスタマー</text></g><!--MD5=[2b3720a1f082f4c725ea3d13ec33a24a]
link カスタマー to ウェブアプリ--><g id="link_カスタマー_ウェブアプリ"><path d="M76.0125,99.408 C96.1147,93.462 121.705,85.893 142.928,79.616 " fill="none" id="カスタマー-ウェブアプリ" style="stroke:#181818;stroke-width:1.0;"/></g><!--MD5=[ff56df20fd4070134a32268c1f917e98]
link カスタマー to モバイルアプリ--><g id="link_カスタマー_モバイルアプリ"><path d="M76.0125,119.2885 C93.8994,124.453 116.131,130.8722 135.766,136.5412 " fill="none" id="カスタマー-モバイルアプリ" style="stroke:#181818;stroke-width:1.0;"/></g><!--MD5=[4a7801ab80ba089195c6d9cbd605809e]
link ウェブアプリ to API--><g id="link_ウェブアプリ_API"><path d="M227.265,91.252 C256.519,108.1143 294.107,129.7797 314.743,141.6739 " fill="none" id="ウェブアプリ-API" style="stroke:#181818;stroke-width:1.0;"/></g><!--MD5=[aeae4da7975477c0095601611db2c141]
link モバイルアプリ to API--><g id="link_モバイルアプリ_API"><path d="M234.351,150.468 C262.457,150.468 295.973,150.468 314.942,150.468 " fill="none" id="モバイルアプリ-API" style="stroke:#181818;stroke-width:1.0;"/></g><!--MD5=[78c7b5bd9986124ac0a193a85f80c515]
link サービス1 to サービス2--><g id="link_サービス1_サービス2"><path d="M460.5,126.1516 C460.5,114.69 460.5,103.228 460.5,91.767 " fill="none" id="サービス1-サービス2" style="stroke:#181818;stroke-width:1.0;"/></g><!--MD5=[6597bee49a1093f7cc65d9c610a84aba]
link サービス1 to サービス3--><g id="link_サービス1_サービス3"><path d="M493.176,150.468 C511.54,150.468 534.586,150.468 552.932,150.468 " fill="none" id="サービス1-サービス3" style="stroke:#181818;stroke-width:1.0;"/></g><!--MD5=[0955785f3c3a6eff596a13364ff1c1c0]
link サービス2 to サービス4--><g id="link_サービス2_サービス4"><path d="M492.538,67.468 C511.184,67.468 534.828,67.468 553.472,67.468 " fill="none" id="サービス2-サービス4" style="stroke:#181818;stroke-width:1.0;"/></g><!--MD5=[22a7a59774050a23e2a42b14ce302e74]
link サービス3 to サービス4--><g id="link_サービス3_サービス4"><path d="M585.5,126.1516 C585.5,114.69 585.5,103.228 585.5,91.767 " fill="none" id="サービス3-サービス4" style="stroke:#181818;stroke-width:1.0;"/></g><!--MD5=[f1f64af94c0349172ca5d3986851d17c]
link API to サービス1--><g id="link_API_サービス1"><path d="M347.127,150.468 C365.602,150.468 397.49,150.468 422.589,150.468 " fill="none" id="API-to-サービス1" style="stroke:#181818;stroke-width:1.0;"/><polygon fill="#181818" points="427.835,150.468,418.835,146.468,422.835,150.468,418.835,154.468,427.835,150.468" style="stroke:#181818;stroke-width:1.0;"/></g><!--MD5=[32d8cdc1fc639f0feb14ad819f480b89]
link API to サービス2--><g id="link_API_サービス2"><path d="M347.127,140.6209 C365.958,128.3619 398.727,107.0303 424.035,90.555 " fill="none" id="API-to-サービス2" style="stroke:#181818;stroke-width:1.0;"/><polygon fill="#181818" points="428.348,87.747,418.6231,89.3049,424.1577,90.4749,422.9877,96.0094,428.348,87.747" style="stroke:#181818;stroke-width:1.0;"/></g><!--MD5=[c7a03de70d4726f45ffa7e691f3036fa]
@startuml
skinparam monochrome true
skinparam handwritten false
skinparam defaultFontName "Yu Gothic UI, sans-serif"
left to right direction
actor カスタマー
cloud フロントエンド {
    boundary ウェブアプリ
    boundary モバイルアプリ
    カスタマー - - ウェブアプリ
    カスタマー - - モバイルアプリ
}
cloud ゲートウェイ {
    control API
    ウェブアプリ - - API
    モバイルアプリ - - API
}
cloud マイクロサービス {
    control サービス1
    control サービス2
    control サービス3
    control サービス4
    サービス1 - サービス2
    サービス1 - - サービス3
    サービス2 - - サービス4
    サービス3 - サービス4
    API - -> サービス1
    API - -> サービス2
}
@enduml

PlantUML version 1.2022.3beta2(Unknown compile time)
(GPL source distribution)
Java Runtime: Java(TM) SE Runtime Environment
JVM: Java HotSpot(TM) 64-Bit Server VM
Default Encoding: UTF-8
Language: en
Country: US
--></g></svg>