<?xml version="1.0" encoding="UTF-8" standalone="no"?><svg xmlns="http://www.w3.org/2000/svg" xmlns:xlink="http://www.w3.org/1999/xlink" contentStyleType="text/css" height="457px" preserveAspectRatio="none" style="width:1620px;height:457px;background:#FFFFFF;" version="1.1" viewBox="0 0 1620 457" width="1620px" zoomAndPan="magnify"><defs/><g><!--MD5=[49cd22768e1054f63137ca6d126948cc]
cluster フロントエンド--><g id="cluster_フロントエンド"><path d="M221.556,202.8703 C225.6652,195.6221 230.5558,196.5682 235.313,202.1769 C238.6062,196.3808 244.1018,196.2945 247.7376,201.8002 C250.669,195.215 255.5275,195.9333 259.6393,200.5454 C263.09,193.5272 267.6731,192.7959 273.0949,198.4529 C277.3191,193.489 282.1241,193.9398 285.6129,199.3411 C290.7352,194.3018 294.6155,194.297 298.1653,201.0193 C302.4973,195.3781 306.3669,194.4791 310.4133,201.3 C318.5246,195.7355 327.546,197.8172 328,209.2315 C329.1152,209.6735 329.2788,210.2591 328.4325,211.1445 C334.6985,213.4229 334.8933,217.3523 331.1903,222.1328 C336.7411,225.6862 338.9307,230.8601 332.0077,235.1942 C339.2774,238.2513 340.289,243.1518 334.1173,248.3624 C339.7548,252.1839 339.6234,256.6445 334.1655,260.51 C342.3731,264.4734 342.846,269.0299 335.6513,274.6156 C341.3603,277.6598 343.4881,282.0047 337.6846,286.9472 C342.8887,289.8506 344.1514,295.737 337.8818,298.8308 C343.6233,304.2208 342.1959,309.193 334.7251,311.2153 C341.174,314.54 340.3915,319.9984 334.7591,323.3569 C340.7781,329.2298 338.868,333.9291 331.4578,336.4039 C338.4464,341.2317 336.5155,346.4243 330.5008,350.3605 C336.8087,361.4754 332.5143,366.5915 321,368.2315 C322.0501,367.6432 322.9325,368.0183 322.9086,369.3175 C319.3819,376.7507 312.5834,375.9133 308.7316,369.6541 C306.443,376.0719 302.3129,375.6158 297.9496,371.8509 C294.4926,377.8842 288.1801,377.8826 284.4844,372.1235 C281.6316,378.751 278.0906,379.8139 272.935,374.3173 C268.5495,378.7743 263.0628,378.4496 260.5721,372.1412 C255.8494,379.3808 250.4799,378.8237 246.0186,371.8731 C242.0795,376.7481 238.2605,376.9398 235.4221,370.8129 C222.8555,379.2873 217.1181,373.8822 214,361.2315 C215.2406,361.312 215.6744,361.9005 215.3606,363.108 C208.1235,361.225 207.0251,354.9966 212.9083,350.5512 C205.2463,346.0686 206.5018,341.368 212.4889,336.4786 C207.1544,333.7889 206.9002,328.2781 211.4478,324.714 C205.1423,321.9996 205.2925,315.7352 210.3046,312.003 C202.5803,308.652 202.7862,302.4472 209.4857,298.2381 C203.9687,296.0389 204.0096,290.5588 208.2903,287.2898 C200.9739,283.6868 201.923,277.3556 207.7409,273.2391 C203.6346,268.7681 202.9698,264.6367 209.453,261.7429 C202.9199,256.7627 203.2268,251.5553 210.5234,247.6235 C205.4926,243.3555 205.6391,237.6697 212.2172,234.9538 C207.6043,230.4754 207.9807,225.7604 214.6778,223.7704 C205.4585,214.1876 209.7514,205.8065 221,202.2315 C221.4463,202.1793 221.7124,202.3979 221.556,202.8703 " style="stroke:#181818;stroke-width:1.0;fill:none;"/><text fill="#000000" font-family="&quot;Yu Gothic UI, sans-serif&quot;" font-size="14" font-weight="bold" lengthAdjust="spacing" textLength="105" x="218.5" y="220.2266">フロントエンド</text></g><!--MD5=[70a18483d462b5b8afbe4b2392687415]
cluster BFF--><g id="cluster_BFF"><path d="M441.2418,204.2938 C444.2351,196.953 450.7469,196.1849 455.563,202.3627 C460.0311,194.5915 464.8721,194.8059 470.0571,201.6519 C473.1307,194.969 478.9061,192.2284 484.5007,198.9319 C488.4455,193.1198 494.3055,194.4611 497.275,200.027 C503.6946,193.4776 508.3563,196.0183 511.9895,203.0467 C520.2713,195.2609 529.9838,196.7457 532,209.2315 C532.8235,208.0804 533.7886,208.477 534.2731,209.5743 C541.246,213.7126 540.2804,218.7666 534.1293,222.7618 C539.9751,225.3663 542.2,230.8198 536.3433,235.4641 C543.4381,238.2812 543.1955,244.7947 538.0524,249.141 C544.8349,252.3876 544.5261,255.966 539.524,260.7114 C546.0765,264.5398 546.4459,271.403 539.0105,274.7186 C544.3801,277.7735 544.7495,281.7236 540.3008,285.9104 C545.4557,289.393 545.7127,294.5859 540.2431,298.0178 C545.2729,302.8384 544.8647,309.0605 537.8939,311.8419 C543.4723,316.3291 543.9639,320.1353 537.7548,324.4929 C542.8812,328.4083 542.1781,334.0679 536.7829,337.1771 C542.2614,342.7951 541.737,347.0389 534.7835,350.8372 C541.7674,360.6892 536.0362,368.5149 525,368.2315 C525.3707,368.4128 525.4125,368.7338 525.0603,368.9738 C521.3508,375.0056 516.2015,375.5424 511.3495,370.3722 C508.3723,377.8227 504.1201,379.1907 498.3438,373.0509 C494.9254,380.9907 490.2813,380.3588 484.5217,375.5992 C478.7089,382.092 473.487,380.0272 470.7476,372.5656 C465.6876,379.45 459.5953,378.822 456.6341,370.6042 C444.8127,379.4076 435.8469,376.5153 434,361.2315 C434.7925,360.633 435.7306,360.9976 435.9366,361.9594 C430.3637,358.4908 428.7413,352.6532 435.3572,348.6537 C429.8175,345.2871 430.1644,341.3135 435.2905,337.8808 C428.8632,333.6588 427.5599,329.4535 433.9846,324.0205 C428.2151,321.1637 426.7174,316.6556 432.5763,312.3906 C426.2066,307.8217 425.9048,303.5722 432.0806,298.5539 C425.7187,294.037 425.7885,289.5229 432.6338,285.5687 C425.5503,282.3776 426.2691,276.4312 432.139,272.7405 C427.221,268.8297 427.0641,264.253 432.3588,260.5259 C426.3682,256.315 427.114,251.8077 433.3272,248.5867 C427.697,244.7479 426.9938,240.4359 433.4796,236.7532 C427.3354,232.1534 428.329,226.9243 434.8336,223.6295 C427.3483,215.406 429.4338,204.9647 441,202.2315 C441.9948,202.7394 442.1923,203.5578 441.2418,204.2938 " style="stroke:#181818;stroke-width:1.0;fill:none;"/><text fill="#000000" font-family="&quot;Yu Gothic UI, sans-serif&quot;" font-size="14" font-weight="bold" lengthAdjust="spacing" textLength="29" x="468.5" y="220.2266">BFF</text></g><!--MD5=[a0df374b8e4af26d68f70c554b40fe68]
cluster フェデレーション--><g id="cluster_フェデレーション"><path d="M649.2948,253.2758 C653.3406,245.1002 658.0156,244.7466 663.5501,251.8904 C665.8857,246.8332 671.1404,245.483 674.4561,250.8667 C677.9977,245.399 682.8005,243.727 687.0001,250.1739 C689.3649,242.5136 696.0178,241.0492 701.0021,247.5913 C704.3613,240.1847 709.1355,240.4364 713.981,246.1172 C718.4194,240.9192 723.8095,242.1273 725.8175,248.5852 C730.5786,242.8851 735.7957,243.1197 739.4341,249.8182 C743.0539,243.9778 748.2515,243.9091 751.2102,250.4471 C757.5058,244.2812 762.3621,245.8639 765.9455,253.3703 C774.6143,247.5692 781.0428,250.1403 783.5,260.2315 C784.0278,260.2835 784.1233,260.6845 783.8552,261.0726 C790.8248,264.4215 791.988,271.2941 785.7168,276.2655 C791.9052,279.1588 792.3324,284.0465 787.5499,288.5738 C794.5504,293.0027 794.6679,298.922 787.3558,303.1603 C794.7988,307.4189 794.4285,313.5923 787.3144,317.8097 C795.0162,321.2858 795.0422,325.7908 789.5219,331.4125 C796.9865,336.4666 795.5349,340.8761 789.1436,345.5596 C797.163,349.5124 796.52,357.0595 789.3353,361.1987 C794.2324,366.382 793.3328,371.1938 787.0556,374.4555 C792.9571,378.6784 793.5164,383.6443 787.1903,387.9889 C793.0684,392.3198 793.7828,397.919 786.5209,401.6039 C793.9614,406.6459 793.3938,412.7079 786.1978,417.4515 C791.3723,426.8617 788.0086,435.4363 776.5,436.2315 C777.3619,435.6042 778.0215,435.7008 778.3237,436.817 C775.5385,444.4201 770.128,446.0195 764.1614,440.1649 C760.9193,446.0965 757.1999,446.6282 752.9078,441.2056 C749.4312,447.8755 742.9543,447.9026 738.5616,442.2743 C734.844,449.6923 730.9801,450.2624 725.6912,443.7233 C721.4231,450.356 717.1431,450.1235 712.5507,444.0589 C708.4699,447.8557 704.3566,448.1135 702.0171,442.1748 C697.6983,448.5525 692.9415,449.782 688.1109,442.7038 C681.8398,448.7396 677.5342,447.4386 674.2713,439.6848 C671.3547,445.1691 666.2363,446.0251 662.9931,440.0049 C651.7181,447.023 643.0904,441.5345 641.5,429.2315 C643.0158,429.0416 644.2412,429.8263 643.5606,431.5709 C635.9018,426.9312 634.8053,421.6892 642.7667,416.2406 C637.3161,412.4235 635.1531,407.7677 642.0503,403.2687 C633.2939,399.6877 634.4244,392.7537 640.3508,387.582 C633.0442,384.3563 632.3555,380.3758 638.3119,375.0007 C631.9096,369.7249 632.1039,364.982 638.8121,360.1478 C631.4917,356.9343 630.9124,352.0233 636.1482,346.3802 C629.7808,340.2759 629.6512,334.5764 638.7756,331.1433 C633.0233,327.2331 633.1274,321.6193 639.5023,318.4006 C631.4774,313.7224 631.7493,308.1974 639.1692,303.1812 C633.5922,297.4021 634.3771,292.1604 641.8256,288.7847 C635.9067,284.56 636.1486,280.385 642.0964,276.4202 C634.2124,267.5023 634.2713,256.0431 648.5,253.2315 C648.7394,252.8822 649.0935,252.9424 649.2948,253.2758 " style="stroke:#181818;stroke-width:1.0;fill:none;"/><text fill="#000000" font-family="&quot;Yu Gothic UI, sans-serif&quot;" font-size="14" font-weight="bold" lengthAdjust="spacing" textLength="120" x="652.5" y="271.2266">フェデレーション</text></g><!--MD5=[b7adefaaf9d312bd501cf3604d30484c]
cluster ドメイングラフサービス_キャッシュ--><g id="cluster_ドメイングラフサービス_キャッシュ"><path d="M646.0936,35.0523 C653.09,20.168 663.3344,17.3551 674.24,31.2257 C681.7271,14.5906 691.7325,15.438 702.7592,27.7368 C711.3332,13.278 723.6107,12.2038 732.1858,27.7357 C741.1293,10.6692 751.9686,12.8319 762.8165,25.7931 C770.527,15.272 780.6814,13.3779 788.5585,25.6044 C796.6367,8.8288 808.5415,6 820.5419,21.7472 C829.9511,10.0285 838.5434,9.856 846.5641,23.1895 C855.6183,7.3484 866.21,10.3742 876.4167,21.9339 C884.0926,10.8869 896.3215,11.7519 902.3804,23.7553 C913.2879,6.6928 929.0536,12.9633 935.654,28.1933 C944.0549,16.2935 953.4733,14.3374 961.7729,28.2956 C969.3637,15.4057 981.8822,13.1186 989.6425,28.1263 C1002.5152,13.8011 1012.7903,16.9093 1019.4967,33.9883 C1029.3555,17.6005 1045.1597,23.3682 1052,37.2315 C1055.3472,36.0867 1057.1076,37.8756 1056.1905,41.2158 C1069.4224,50.1564 1068.4636,60.7544 1054.4059,67.8677 C1069.2241,74.1689 1070.164,87.3451 1057.4954,96.6017 C1071.2476,108.0371 1070.2964,117.2902 1055.6099,126.9593 C1068.7624,131.8153 1069.1735,143.1427 1058.507,150.8831 C1072.7458,163.1372 1070.0407,172.9512 1053.9805,180.5884 C1067.9122,195.4939 1063.2067,207.1677 1045,213.2315 C1047.8676,213.413 1048.615,214.9626 1047.5612,217.4981 C1036.7837,233.9961 1027.566,232.7477 1017.1771,217.1304 C1007.4017,229.4331 999.0077,228.8349 990.8842,215.4403 C982.1971,228.2095 973.7704,228.8051 963.6064,217.0853 C953.843,231.2551 943.3089,227.665 934.8915,215.6114 C926.4399,228.9376 916.3394,233.3923 904.8522,218.8879 C898.677,234.1502 884.8599,232.7019 877.1489,220.4333 C867.1989,233.4899 856.3825,230.1146 849.5038,217.1681 C841.2529,230.9164 826.2778,230.1569 819.5249,215.5825 C813.8772,230.5356 801.7993,234.0445 791.586,219.978 C780.7237,232.6906 767.0753,232.2535 759.7569,216.0738 C752.5313,227.3059 741.278,231.2985 732.9079,217.2913 C725.0469,230.0306 715.2759,228.9627 706.8744,217.8821 C699.3058,231.7217 686.0727,231.9292 678.5274,217.8583 C660.2837,235.4872 644.1798,230.6535 638,206.2315 C638.6842,206.3224 638.9099,206.7185 638.6788,207.36 C623.1697,201.6138 620.768,188.5478 635.2811,179.1815 C622.0722,171.5783 623.1365,157.4735 635.9736,150.4992 C622.7518,144.3185 623.4227,133.3244 633.8588,125.1686 C622.798,116.855 623.7889,103.2172 636.7347,97.3889 C622.8669,88.7574 621.2142,76.2195 637.2717,68.1373 C624.2703,53.0674 626.8264,38.9454 645,30.2315 C647.5054,31.2438 648.173,32.9999 646.0936,35.0523 " style="stroke:#181818;stroke-width:1.0;fill:none;"/><text fill="#000000" font-family="&quot;Yu Gothic UI, sans-serif&quot;" font-size="14" font-weight="bold" lengthAdjust="spacing" textLength="247" x="721.5" y="48.2266">ドメイングラフサービス_キャッシュ</text></g><!--MD5=[46b755e966de6f3702eeb880d12fc039]
cluster ドメイングラフサービス--><g id="cluster_ドメイングラフサービス"><path d="M935.2249,313.714 C942.2331,302.815 949.3216,304.6697 955.8249,314.2226 C960.4696,303.1855 969.0204,301.5371 976.2024,311.7945 C982.7257,300.2998 989.8307,299.9425 997.0896,311.1168 C1003.2919,298.0737 1012.6057,298.8861 1020.1996,309.7729 C1027.7538,299.4143 1034.7805,298.7321 1041.4772,310.594 C1046.0915,300.2735 1055.3499,296.9963 1062.7644,307.7679 C1070.4285,298.4284 1077.893,298.0712 1083.725,309.6075 C1090.4009,299.6377 1096.925,300.4127 1102.9368,310.2516 C1108.8249,300.2911 1119.1604,300.3895 1123.6229,311.6418 C1129.1023,301.2768 1135.5226,299.7958 1143.0006,309.7342 C1151.409,298.3939 1158.8317,299.9606 1166.0451,310.9665 C1173.2135,301.8631 1180.2448,304.1898 1185.2723,313.2348 C1190.0732,304.8276 1199.7225,304.2135 1205.2091,312.4114 C1213.1773,302.6126 1222.0625,300.978 1228.4766,313.9962 C1241.0084,318.5757 1243.5315,326.6734 1232.8628,335.899 C1245.2026,338.2175 1247.9164,346.331 1239.3156,355.532 C1245.859,363.8252 1244.1418,373.8567 1232.6477,376.3812 C1242.1618,385.7463 1239.6573,391.7984 1228.5416,397.0688 C1224.7354,408.3568 1213.9511,408.6614 1207.0208,400.5311 C1200.2167,409.0834 1192.7285,409.8589 1187.3255,399.102 C1182.5229,410.0449 1173.4604,411.6674 1166.0302,401.7894 C1160.0912,412.08 1150.1456,411.4565 1143.9093,402.1247 C1139.3606,412.6441 1129.1225,415.5003 1122.2572,404.45 C1116.816,412.9079 1106.5957,414.1672 1101.7817,403.769 C1097.2158,413.5393 1090.9088,413.7035 1083.5798,406.7821 C1076.3814,418.1524 1068.2129,417.8099 1061.9404,405.9206 C1054.0905,414.8011 1043.8396,414.8577 1040.0096,401.8862 C1032.6625,411.2064 1026.0223,413.792 1018.1716,402.4176 C1010.7982,409.2411 1005.0682,409.4755 1000.3146,399.6138 C993.9673,410.2444 986.9012,410.0867 979.276,400.9756 C971.7613,410.3952 962.5544,411.8267 956.3572,399.5819 C949.7302,408.6795 940.5376,407.8154 935.0978,398.2309 C925.6575,394.2957 922.3244,386.4979 931.2665,378.9163 C920.0098,373.6379 919.7639,364.4522 930.234,358.0964 C921.2058,350.6275 920.4251,343.3303 931.0676,336.6251 C922.8967,327.0914 923.8796,319.7065 935.2249,313.714 " style="stroke:#181818;stroke-width:1.0;fill:none;"/><text fill="#000000" font-family="&quot;Yu Gothic UI, sans-serif&quot;" font-size="14" font-weight="bold" lengthAdjust="spacing" textLength="165" x="997.5" y="331.2266">ドメイングラフサービス</text></g><!--MD5=[5e9444d37899338206d9f6bfbc41d4ff]
cluster 外部サービス--><g id="cluster_外部サービス"><path d="M1142.156,72.8602 C1154.0189,54.089 1167.679,54.1274 1178.4018,73.9314 C1185.1554,57.436 1194.5005,55.7652 1206.2633,69.2811 C1215.7782,55.3668 1228.2402,55.206 1238.5552,68.3255 C1247.3399,52.106 1263.3453,55.0452 1271.0267,69.4937 C1276.1816,54.1489 1289.1435,54.0238 1297.7739,66.1041 C1309.3211,47.0739 1322.2881,48.1825 1333.6059,66.3252 C1341.6703,50.0987 1351.7091,49.2584 1364.5112,61.1107 C1374.7474,48.8078 1388.7807,46.5833 1396.9129,63.4481 C1404.8465,51.204 1418.496,49.6983 1424.5733,65.2925 C1436.1031,47.091 1448.8181,51.9797 1458.7595,66.9303 C1468.9972,54.7351 1479.1284,56.674 1486.3465,70.1723 C1496.7311,55.5647 1511.1638,57.2769 1519.5748,72.3795 C1527.0157,57.2416 1542.2785,55.3754 1550.1771,71.9376 C1562.9172,54.6433 1577.3515,61.0339 1585,77.2315 C1586.3883,75.5475 1587.9968,75.3709 1589.1166,77.5199 C1607.4178,85.8185 1606.0244,99.9331 1592.1488,111.1343 C1609.9402,119.9603 1606.7855,136.0719 1592.6992,145.4098 C1609.1318,152.6012 1613.9667,163.5364 1599.8436,177.5253 C1611.0085,188.9354 1610.2413,197.2797 1595.5114,204.5367 C1608.4249,216.5519 1609.5065,233.9027 1588.8508,239.528 C1599.625,254.0099 1599.7376,269.2167 1578,273.2315 C1579.5603,271.5065 1581.26,271.2947 1582.3516,273.7226 C1575.8003,292.0263 1563.9224,290.4508 1552.0183,279.2202 C1538.7444,295.6538 1526.4767,293.2896 1516.5527,275.7257 C1508.1218,291.8965 1496.8676,290.1217 1487.3768,276.7733 C1479.4265,292.805 1466.6737,293.1086 1455.9939,279.6812 C1449.9402,292.5988 1436.783,296.2316 1427.3014,283.5186 C1416.0027,298.2509 1404.8406,298.1337 1396.8494,280.4149 C1388.9415,298.8271 1377.7489,299.3729 1365.47,284.5406 C1353.2595,299.9947 1337.4822,297.4202 1329.4139,279.9978 C1320.1148,294.7526 1311.1953,294.8932 1301.3301,280.5441 C1289.494,292.6681 1279.3986,292.6087 1269.7273,277.9862 C1263.7967,293.5777 1250.6346,294.0353 1241.1715,281.5832 C1228.3058,299.5913 1217.7256,295.3927 1206.5631,279.8276 C1195.338,291.9303 1185.8391,295.4549 1175.6494,278.7177 C1155.3716,296.2976 1142.1763,291.3036 1135,266.2315 C1138.2236,266.6314 1139.1196,268.4261 1137.8287,271.3304 C1119.1214,263.0798 1115.2428,247.0204 1134.0448,234.8764 C1118.6897,225.2343 1120.6169,213.3686 1135.4395,205.142 C1119.8224,197.1282 1117.557,183.0411 1132.6268,172.3918 C1118.7277,161.9931 1123.1647,149.5482 1136.3609,142.5387 C1122.6568,132.2935 1122.4197,119.638 1136.5283,109.534 C1120.355,93.4795 1120.8953,81.0961 1142,70.2315 C1143.4097,70.9073 1143.2938,72.0332 1142.156,72.8602 " style="stroke:#181818;stroke-width:1.0;fill:none;"/><text fill="#000000" font-family="&quot;Yu Gothic UI, sans-serif&quot;" font-size="14" font-weight="bold" lengthAdjust="spacing" textLength="90" x="1315" y="88.2266">外部サービス</text></g><!--MD5=[7e882e6620e2a97ffcca45e9f60fb6b7]
entity ウェブアプリ--><g id="elem_ウェブアプリ"><path d="M250.5,233.2315 L250.5,257.2315 M250.5,245.2315 L267.5,245.2315 " fill="none" style="stroke:#181818;stroke-width:0.5;"/><ellipse cx="279.5" cy="245.2315" fill="#F1F1F1" rx="12" ry="12" style="stroke:#181818;stroke-width:0.5;"/><text fill="#000000" font-family="&quot;Yu Gothic UI, sans-serif&quot;" font-size="14" lengthAdjust="spacing" textLength="84" x="229" y="274.2266">ウェブアプリ</text></g><!--MD5=[1c7ec1a8c617255691be87360e9c6121]
entity モバイルアプリ--><g id="elem_モバイルアプリ"><path d="M250.5,316.2315 L250.5,340.2315 M250.5,328.2315 L267.5,328.2315 " fill="none" style="stroke:#181818;stroke-width:0.5;"/><ellipse cx="279.5" cy="328.2315" fill="#F1F1F1" rx="12" ry="12" style="stroke:#181818;stroke-width:0.5;"/><text fill="#000000" font-family="&quot;Yu Gothic UI, sans-serif&quot;" font-size="14" lengthAdjust="spacing" textLength="98" x="222" y="357.2266">モバイルアプリ</text></g><!--MD5=[b052c57d116036adc13e87d00a9f0540]
entity ウェブBFF--><g id="elem_ウェブBFF"><ellipse cx="483" cy="245.2315" fill="#F1F1F1" rx="12" ry="12" style="stroke:#181818;stroke-width:0.5;"/><polygon fill="#181818" points="479,233.2315,485,228.2315,483,233.2315,485,238.2315,479,233.2315" style="stroke:#181818;stroke-width:1.0;"/><text fill="#000000" font-family="&quot;Yu Gothic UI, sans-serif&quot;" font-size="14" lengthAdjust="spacing" textLength="68" x="449" y="274.2266">ウェブBFF</text></g><!--MD5=[96ed2b0626b24952385980c9f6f945f8]
entity モバイルBFF--><g id="elem_モバイルBFF"><ellipse cx="483" cy="328.2315" fill="#F1F1F1" rx="12" ry="12" style="stroke:#181818;stroke-width:0.5;"/><polygon fill="#181818" points="479,316.2315,485,311.2315,483,316.2315,485,321.2315,479,316.2315" style="stroke:#181818;stroke-width:1.0;"/><text fill="#000000" font-family="&quot;Yu Gothic UI, sans-serif&quot;" font-size="14" lengthAdjust="spacing" textLength="82" x="442" y="357.2266">モバイルBFF</text></g><!--MD5=[74636fc2be209ba6ad28b91e001a6ea3]
entity ゲートウェイ--><g id="elem_ゲートウェイ"><ellipse cx="712.5" cy="296.2315" fill="#F1F1F1" rx="12" ry="12" style="stroke:#181818;stroke-width:0.5;"/><polygon fill="#181818" points="708.5,284.2315,714.5,279.2315,712.5,284.2315,714.5,289.2315,708.5,284.2315" style="stroke:#181818;stroke-width:1.0;"/><text fill="#000000" font-family="&quot;Yu Gothic UI, sans-serif&quot;" font-size="14" lengthAdjust="spacing" textLength="84" x="670.5" y="325.2266">ゲートウェイ</text></g><!--MD5=[1e75ff71913e1d92b160932c4a02d6d7]
entity スキーマレジストリ--><g id="elem_スキーマレジストリ"><ellipse cx="712.5" cy="396.2315" fill="#F1F1F1" rx="12" ry="12" style="stroke:#181818;stroke-width:0.5;"/><line style="stroke:#181818;stroke-width:0.5;" x1="700.5" x2="724.5" y1="410.2315" y2="410.2315"/><text fill="#000000" font-family="&quot;Yu Gothic UI, sans-serif&quot;" font-size="14" lengthAdjust="spacing" textLength="126" x="649.5" y="425.2266">スキーマレジストリ</text></g><!--MD5=[0dd0c5844f14ee4cd6889e8c37a1cf19]
entity リゾルバ_キャッシュ--><g id="elem_リゾルバ_キャッシュ"><ellipse cx="712.5" cy="173.2315" fill="#F1F1F1" rx="12" ry="12" style="stroke:#181818;stroke-width:0.5;"/><polygon fill="#181818" points="708.5,161.2315,714.5,156.2315,712.5,161.2315,714.5,166.2315,708.5,161.2315" style="stroke:#181818;stroke-width:1.0;"/><text fill="#000000" font-family="&quot;Yu Gothic UI, sans-serif&quot;" font-size="14" lengthAdjust="spacing" textLength="133" x="646" y="202.2266">リゾルバ_キャッシュ</text></g><!--MD5=[b58981529880d4180322defe067363bf]
entity サービス_キャッシュ--><g id="elem_サービス_キャッシュ"><ellipse cx="970.5" cy="173.2315" fill="#F1F1F1" rx="12" ry="12" style="stroke:#181818;stroke-width:0.5;"/><polygon fill="#181818" points="966.5,161.2315,972.5,156.2315,970.5,161.2315,972.5,166.2315,966.5,161.2315" style="stroke:#181818;stroke-width:1.0;"/><text fill="#000000" font-family="&quot;Yu Gothic UI, sans-serif&quot;" font-size="14" lengthAdjust="spacing" textLength="133" x="904" y="202.2266">サービス_キャッシュ</text></g><!--MD5=[41eb9fd131a5c6cb652154b838f751cc]
entity ストレージ_キャッシュ--><g id="elem_ストレージ_キャッシュ"><ellipse cx="970.5" cy="73.2315" fill="#F1F1F1" rx="12" ry="12" style="stroke:#181818;stroke-width:0.5;"/><line style="stroke:#181818;stroke-width:0.5;" x1="958.5" x2="982.5" y1="87.2315" y2="87.2315"/><text fill="#000000" font-family="&quot;Yu Gothic UI, sans-serif&quot;" font-size="14" lengthAdjust="spacing" textLength="147" x="897" y="102.2266">ストレージ_キャッシュ</text></g><!--MD5=[150a92da81aab50c37f774be21981a8c]
entity リゾルバ--><g id="elem_リゾルバ"><ellipse cx="970.5" cy="356.2315" fill="#F1F1F1" rx="12" ry="12" style="stroke:#181818;stroke-width:0.5;"/><polygon fill="#181818" points="966.5,344.2315,972.5,339.2315,970.5,344.2315,972.5,349.2315,966.5,344.2315" style="stroke:#181818;stroke-width:1.0;"/><text fill="#000000" font-family="&quot;Yu Gothic UI, sans-serif&quot;" font-size="14" lengthAdjust="spacing" textLength="56" x="942.5" y="385.2266">リゾルバ</text></g><!--MD5=[d7211d61ec0a797a774bd04641cd4334]
entity サービス--><g id="elem_サービス"><ellipse cx="1189.5" cy="356.2315" fill="#F1F1F1" rx="12" ry="12" style="stroke:#181818;stroke-width:0.5;"/><polygon fill="#181818" points="1185.5,344.2315,1191.5,339.2315,1189.5,344.2315,1191.5,349.2315,1185.5,344.2315" style="stroke:#181818;stroke-width:1.0;"/><text fill="#000000" font-family="&quot;Yu Gothic UI, sans-serif&quot;" font-size="14" lengthAdjust="spacing" textLength="56" x="1161.5" y="385.2266">サービス</text></g><!--MD5=[8179c26118cf9ee16d67ab3f419821e3]
entity 外部サービス1--><g id="elem_外部サービス1"><ellipse cx="1189.5" cy="173.2315" fill="#F1F1F1" rx="12" ry="12" style="stroke:#181818;stroke-width:0.5;"/><polygon fill="#181818" points="1185.5,161.2315,1191.5,156.2315,1189.5,161.2315,1191.5,166.2315,1185.5,161.2315" style="stroke:#181818;stroke-width:1.0;"/><text fill="#000000" font-family="&quot;Yu Gothic UI, sans-serif&quot;" font-size="14" lengthAdjust="spacing" textLength="93" x="1143" y="202.2266">外部サービス1</text></g><!--MD5=[cea6c37ae3a2324e20f3bff93ecfe4eb]
entity 外部サービス2--><g id="elem_外部サービス2"><ellipse cx="1377.5" cy="233.2315" fill="#F1F1F1" rx="12" ry="12" style="stroke:#181818;stroke-width:0.5;"/><polygon fill="#181818" points="1373.5,221.2315,1379.5,216.2315,1377.5,221.2315,1379.5,226.2315,1373.5,221.2315" style="stroke:#181818;stroke-width:1.0;"/><text fill="#000000" font-family="&quot;Yu Gothic UI, sans-serif&quot;" font-size="14" lengthAdjust="spacing" textLength="92" x="1331.5" y="262.2266">外部サービス2</text></g><!--MD5=[eded070b73b34d635c533eabe793fec5]
entity 外部サービス3--><g id="elem_外部サービス3"><ellipse cx="1377.5" cy="113.2315" fill="#F1F1F1" rx="12" ry="12" style="stroke:#181818;stroke-width:0.5;"/><polygon fill="#181818" points="1373.5,101.2315,1379.5,96.2315,1377.5,101.2315,1379.5,106.2315,1373.5,101.2315" style="stroke:#181818;stroke-width:1.0;"/><text fill="#000000" font-family="&quot;Yu Gothic UI, sans-serif&quot;" font-size="14" lengthAdjust="spacing" textLength="93" x="1331" y="142.2266">外部サービス3</text></g><!--MD5=[1f080c6f42456533e4f598bdfb239556]
entity 外部サービス4--><g id="elem_外部サービス4"><ellipse cx="1531" cy="173.2315" fill="#F1F1F1" rx="12" ry="12" style="stroke:#181818;stroke-width:0.5;"/><polygon fill="#181818" points="1527,161.2315,1533,156.2315,1531,161.2315,1533,166.2315,1527,161.2315" style="stroke:#181818;stroke-width:1.0;"/><text fill="#000000" font-family="&quot;Yu Gothic UI, sans-serif&quot;" font-size="14" lengthAdjust="spacing" textLength="92" x="1485" y="202.2266">外部サービス4</text></g><!--MD5=[cb806db31311588c371a8644e7db75c6]
entity カスタマー--><g id="elem_カスタマー"><ellipse cx="41" cy="262.7315" fill="#F1F1F1" rx="8" ry="8" style="stroke:#181818;stroke-width:0.5;"/><path d="M41,270.7315 L41,297.7315 M28,278.7315 L54,278.7315 M41,297.7315 L28,312.7315 M41,297.7315 L54,312.7315 " fill="none" style="stroke:#181818;stroke-width:0.5;"/><text fill="#000000" font-family="&quot;Yu Gothic UI, sans-serif&quot;" font-size="14" lengthAdjust="spacing" textLength="70" x="6" y="327.2266">カスタマー</text></g><!--MD5=[2b3720a1f082f4c725ea3d13ec33a24a]
link カスタマー to ウェブアプリ--><g id="link_カスタマー_ウェブアプリ"><path d="M76.1339,286.3925 C115.368,279.6815 179.966,268.6315 223.708,261.1495 " fill="none" id="カスタマー-to-ウェブアプリ" style="stroke:#181818;stroke-width:1.0;"/><polygon fill="#181818" points="228.67,260.3015,219.1245,257.8759,223.7415,261.1443,220.4731,265.7614,228.67,260.3015" style="stroke:#181818;stroke-width:1.0;"/><text fill="#000000" font-family="&quot;Yu Gothic UI, sans-serif&quot;" font-size="13" lengthAdjust="spacing" textLength="37" x="129.5" y="262.2984">React</text></g><!--MD5=[ff56df20fd4070134a32268c1f917e98]
link カスタマー to モバイルアプリ--><g id="link_カスタマー_モバイルアプリ"><path d="M76.1937,299.2665 C85.8281,301.2245 96.3202,303.3335 106,305.2315 C142.978,312.4815 184.707,320.3655 216.818,326.3675 " fill="none" id="カスタマー-to-モバイルアプリ" style="stroke:#181818;stroke-width:1.0;"/><polygon fill="#181818" points="221.887,327.3145,213.7736,321.7313,216.9719,326.3972,212.3059,329.5955,221.887,327.3145" style="stroke:#181818;stroke-width:1.0;"/><text fill="#000000" font-family="&quot;Yu Gothic UI, sans-serif&quot;" font-size="13" lengthAdjust="spacing" textLength="82" x="107" y="301.2984">React Native</text></g><!--MD5=[2a0dc4bfc9318f7c2eb1d7471f881473]
link ウェブアプリ to ウェブBFF--><g id="link_ウェブアプリ_ウェブBFF"><path d="M313.239,253.2315 C351.037,253.2315 406.576,253.2315 443.489,253.2315 " fill="none" id="ウェブアプリ-to-ウェブBFF" style="stroke:#181818;stroke-width:1.0;"/><polygon fill="#181818" points="448.796,253.2315,439.796,249.2315,443.796,253.2315,439.796,257.2315,448.796,253.2315" style="stroke:#181818;stroke-width:1.0;"/><text fill="#000000" font-family="&quot;Yu Gothic UI, sans-serif&quot;" font-size="13" lengthAdjust="spacing" textLength="56" x="353" y="249.2984">GraphQL</text></g><!--MD5=[c56a6f7fed6efc39f8fdcb82ac4ed18e]
link モバイルアプリ to モバイルBFF--><g id="link_モバイルアプリ_モバイルBFF"><path d="M320.178,336.2315 C355.121,336.2315 402.078,336.2315 436.407,336.2315 " fill="none" id="モバイルアプリ-to-モバイルBFF" style="stroke:#181818;stroke-width:1.0;"/><polygon fill="#181818" points="441.805,336.2315,432.805,332.2315,436.805,336.2315,432.805,340.2315,441.805,336.2315" style="stroke:#181818;stroke-width:1.0;"/><text fill="#000000" font-family="&quot;Yu Gothic UI, sans-serif&quot;" font-size="13" lengthAdjust="spacing" textLength="56" x="353" y="332.2984">GraphQL</text></g><!--MD5=[eb165f5818ea52beef92f5eda97d8787]
link ウェブBFF to ゲートウェイ--><g id="link_ウェブBFF_ゲートウェイ"><path d="M517.08,260.6475 C556.12,269.3995 621.279,284.0065 665.29,293.8725 " fill="none" id="ウェブBFF-to-ゲートウェイ" style="stroke:#181818;stroke-width:1.0;"/><polygon fill="#181818" points="670.282,294.9915,662.3753,289.1192,665.4032,293.8975,660.6249,296.9253,670.282,294.9915" style="stroke:#181818;stroke-width:1.0;"/><text fill="#000000" font-family="&quot;Yu Gothic UI, sans-serif&quot;" font-size="13" lengthAdjust="spacing" textLength="56" x="557" y="265.2984">GraphQL</text></g><!--MD5=[0b53c9f9cd86287e9112ead2a833a562]
link モバイルBFF to ゲートウェイ--><g id="link_モバイルBFF_ゲートウェイ"><path d="M524.361,337.5505 C534.675,337.8325 545.747,338.0895 556,338.2315 C581.775,338.5895 588.584,342.5355 614,338.2315 C631.139,335.3285 649.283,329.7465 665.212,323.9315 " fill="none" id="モバイルBFF-to-ゲートウェイ" style="stroke:#181818;stroke-width:1.0;"/><polygon fill="#181818" points="670.081,322.1225,660.2512,321.51,665.3945,323.8651,663.0394,329.0084,670.081,322.1225" style="stroke:#181818;stroke-width:1.0;"/><text fill="#000000" font-family="&quot;Yu Gothic UI, sans-serif&quot;" font-size="13" lengthAdjust="spacing" textLength="56" x="557" y="334.2984">GraphQL</text></g><!--MD5=[dda50eb205a864ec87beb73c2ca10c7e]
reverse link ゲートウェイ to スキーマレジストリ--><g id="link_ゲートウェイ_スキーマレジストリ"><path d="M712.5,333.8445 C712.5,348.5625 712.5,366.1244 712.5,380.0243 " fill="none" id="ゲートウェイ-backto-スキーマレジストリ" style="stroke:#181818;stroke-width:1.0;"/><polygon fill="#181818" points="712.5,328.5625,708.5,337.5625,712.5,333.5625,716.5,337.5625,712.5,328.5625" style="stroke:#181818;stroke-width:1.0;"/><text fill="#000000" font-family="&quot;Yu Gothic UI, sans-serif&quot;" font-size="13" lengthAdjust="spacing" textLength="78" x="662" y="358.7984">統合スキーマ</text></g><!--MD5=[0db2c88c042e0999ae9b218a75c00c9d]
link ゲートウェイ to リゾルバ_キャッシュ--><g id="link_ゲートウェイ_リゾルバ_キャッシュ"><path d="M712.5,280.2235 C712.5,260.3735 712.5,232.0955 712.5,210.8415 " fill="none" id="ゲートウェイ-to-リゾルバ_キャッシュ" style="stroke:#181818;stroke-width:1.0;"/><polygon fill="#181818" points="712.5,205.5985,708.5,214.5985,712.5,210.5985,716.5,214.5985,712.5,205.5985" style="stroke:#181818;stroke-width:1.0;"/><text fill="#000000" font-family="&quot;Yu Gothic UI, sans-serif&quot;" font-size="13" lengthAdjust="spacing" textLength="56" x="673" y="247.2984">GraphQL</text></g><!--MD5=[25a39c3efdff4ed3f869088df25d0338]
link リゾルバ_キャッシュ to サービス_キャッシュ--><g id="link_リゾルバ_キャッシュ_サービス_キャッシュ"><path d="M779.094,181.2315 C815.523,181.2315 860.881,181.2315 898.188,181.2315 " fill="none" id="リゾルバ_キャッシュ-to-サービス_キャッシュ" style="stroke:#181818;stroke-width:1.0;"/><polygon fill="#181818" points="903.632,181.2315,894.632,177.2315,898.632,181.2315,894.632,185.2315,903.632,181.2315" style="stroke:#181818;stroke-width:1.0;"/></g><!--MD5=[ffdc148568da4775e9590fb780bcb956]
link サービス_キャッシュ to ストレージ_キャッシュ--><g id="link_サービス_キャッシュ_ストレージ_キャッシュ"><path d="M970.5,157.0245 C970.5,143.1245 970.5,125.5625 970.5,110.8445 " fill="none" id="サービス_キャッシュ-to-ストレージ_キャッシュ" style="stroke:#181818;stroke-width:1.0;"/><polygon fill="#181818" points="970.5,105.5625,966.5,114.5625,970.5,110.5625,974.5,114.5625,970.5,105.5625" style="stroke:#181818;stroke-width:1.0;"/><text fill="#000000" font-family="&quot;Yu Gothic UI, sans-serif&quot;" font-size="13" lengthAdjust="spacing" textLength="91" x="913.5" y="135.7984">キャッシュ登録</text></g><!--MD5=[7470227255cbf16584365cd4b8790867]
link リゾルバ_キャッシュ to スキーマレジストリ--><g id="link_リゾルバ_キャッシュ_スキーマレジストリ"><path d="M656.22,205.3295 C610.473,228.7745 556.864,267.4245 579,312.7315 C593.109,341.6085 621.262,362.9478 648.091,377.7197 " fill="none" id="リゾルバ_キャッシュ-to-スキーマレジストリ" style="stroke:#181818;stroke-width:1.0;stroke-dasharray:7.0,7.0;"/><polygon fill="#181818" points="652.732,380.2177,646.7032,372.4297,648.3294,377.8477,642.9113,379.4739,652.732,380.2177" style="stroke:#181818;stroke-width:1.0;"/><text fill="#000000" font-family="&quot;Yu Gothic UI, sans-serif&quot;" font-size="13" lengthAdjust="spacing" textLength="52" x="559" y="308.7984">スキーマ</text></g><!--MD5=[3133324aa634120e13ec6d00d001cf26]
link ゲートウェイ to リゾルバ--><g id="link_ゲートウェイ_リゾルバ"><path d="M754.631,313.8715 C805.497,325.7935 891.016,345.8365 937.341,356.6945 " fill="none" id="ゲートウェイ-to-リゾルバ" style="stroke:#181818;stroke-width:1.0;"/><polygon fill="#181818" points="942.246,357.8435,934.3966,351.8948,937.378,356.7022,932.5706,359.6836,942.246,357.8435" style="stroke:#181818;stroke-width:1.0;"/><text fill="#000000" font-family="&quot;Yu Gothic UI, sans-serif&quot;" font-size="13" lengthAdjust="spacing" textLength="56" x="810" y="322.2984">GraphQL</text></g><!--MD5=[f4268491ac02225890fdc8314193be14]
link リゾルバ to サービス--><g id="link_リゾルバ_サービス"><path d="M998.544,364.2315 C1038.61,364.2315 1113.61,364.2315 1156.4,364.2315 " fill="none" id="リゾルバ-to-サービス" style="stroke:#181818;stroke-width:1.0;"/><polygon fill="#181818" points="1161.46,364.2315,1152.46,360.2315,1156.46,364.2315,1152.46,368.2315,1161.46,364.2315" style="stroke:#181818;stroke-width:1.0;"/></g><!--MD5=[72e2e17559315fa272a63ec7b3ac0713]
link リゾルバ to スキーマレジストリ--><g id="link_リゾルバ_スキーマレジストリ"><path d="M942.226,370.8218 C921.651,375.6138 892.677,381.9802 867,386.2315 C838.84,390.8939 807.577,394.7896 780.654,397.7507 " fill="none" id="リゾルバ-to-スキーマレジストリ" style="stroke:#181818;stroke-width:1.0;stroke-dasharray:7.0,7.0;"/><polygon fill="#181818" points="775.679,398.2927,785.0592,401.2946,780.6496,397.7513,784.1929,393.3417,775.679,398.2927" style="stroke:#181818;stroke-width:1.0;"/><text fill="#000000" font-family="&quot;Yu Gothic UI, sans-serif&quot;" font-size="13" lengthAdjust="spacing" textLength="52" x="812" y="382.2984">スキーマ</text></g><!--MD5=[c2896e22c2bbba6c24e588045001281a]
link 外部サービス1 to 外部サービス2--><g id="link_外部サービス1_外部サービス2"><path d="M1236,195.9095 C1265.04,205.2765 1302.52,217.3675 1331.47,226.7055 " fill="none" id="外部サービス1-外部サービス2" style="stroke:#181818;stroke-width:1.0;"/></g><!--MD5=[efa453978ac503e1d28b5652c3a4a1f0]
link 外部サービス1 to 外部サービス3--><g id="link_外部サービス1_外部サービス3"><path d="M1236,166.5535 C1264.82,157.2565 1301.97,145.2745 1330.82,135.9655 " fill="none" id="外部サービス1-外部サービス3" style="stroke:#181818;stroke-width:1.0;"/></g><!--MD5=[f636de104e5e6613b96a9cd2266ad925]
link 外部サービス1 to 外部サービス4--><g id="link_外部サービス1_外部サービス4"><path d="M1236.29,181.2315 C1301.44,181.2315 1420.18,181.2315 1484.94,181.2315 " fill="none" id="外部サービス1-外部サービス4" style="stroke:#181818;stroke-width:1.0;"/></g><!--MD5=[2e8870d7956a8f8fbbea0b19e37d6c60]
link 外部サービス2 to 外部サービス4--><g id="link_外部サービス2_外部サービス4"><path d="M1423.54,223.3915 C1442.91,215.7235 1465.49,206.7785 1484.87,199.1055 " fill="none" id="外部サービス2-外部サービス4" style="stroke:#181818;stroke-width:1.0;"/></g><!--MD5=[a8c0c3663541c8d181b09b09aa479880]
link 外部サービス3 to 外部サービス4--><g id="link_外部サービス3_外部サービス4"><path d="M1424.37,139.3965 C1443.53,146.9845 1465.72,155.7755 1484.81,163.3345 " fill="none" id="外部サービス3-外部サービス4" style="stroke:#181818;stroke-width:1.0;"/></g><!--MD5=[eabeef834ad339a41239855ed3cedb9b]
link 外部サービス3 to 外部サービス2--><g id="link_外部サービス3_外部サービス2"><path d="M1377.5,145.5115 C1377.5,169.2935 1377.5,193.0745 1377.5,216.8565 " fill="none" id="外部サービス3-外部サービス2" style="stroke:#181818;stroke-width:1.0;"/></g><!--MD5=[cc73a9ec2af4e70b1f6a395d84bc81ec]
link サービス_キャッシュ to 外部サービス1--><g id="link_サービス_キャッシュ_外部サービス1"><path d="M1037.2,181.2315 C1069.51,181.2315 1107.85,181.2315 1137.85,181.2315 " fill="none" id="サービス_キャッシュ-to-外部サービス1" style="stroke:#181818;stroke-width:1.0;"/><polygon fill="#181818" points="1142.97,181.2315,1133.97,177.2315,1137.97,181.2315,1133.97,185.2315,1142.97,181.2315" style="stroke:#181818;stroke-width:1.0;"/><text fill="#000000" font-family="&quot;Yu Gothic UI, sans-serif&quot;" font-size="13" lengthAdjust="spacing" textLength="33" x="1077" y="177.2984">REST</text></g><!--MD5=[5953388d01141a730fce11d5fd2b8e24]
link サービス to 外部サービス2--><g id="link_サービス_外部サービス2"><path d="M1217.55,346.3465 C1248.63,325.7935 1299.95,291.8535 1335.85,268.1155 " fill="none" id="サービス-to-外部サービス2" style="stroke:#181818;stroke-width:1.0;"/><polygon fill="#181818" points="1340.14,265.2725,1330.4265,266.8997,1335.9692,268.0302,1334.8387,273.5729,1340.14,265.2725" style="stroke:#181818;stroke-width:1.0;"/><text fill="#000000" font-family="&quot;Yu Gothic UI, sans-serif&quot;" font-size="13" lengthAdjust="spacing" textLength="33" x="1267" y="287.2984">REST</text></g><!--MD5=[c8b1de41c3966dea88a2cedc22afcd2c]
@startuml
skinparam monochrome true
skinparam handwritten false
skinparam defaultFontName "Yu Gothic UI, sans-serif"
left to right direction
actor カスタマー
cloud フロントエンド {
    boundary ウェブアプリ
    boundary モバイルアプリ
    カスタマー - -> ウェブアプリ : React
    カスタマー - -> モバイルアプリ : React Native
}
cloud BFF {
    control ウェブBFF
    control モバイルBFF
    ウェブアプリ - -> ウェブBFF : GraphQL
    モバイルアプリ - -> モバイルBFF : GraphQL
}
cloud フェデレーション {
    control ゲートウェイ
    entity スキーマレジストリ
    ウェブBFF - -> ゲートウェイ : GraphQL
    モバイルBFF - -> ゲートウェイ : GraphQL
    ゲートウェイ <- スキーマレジストリ : 統合スキーマ
}
cloud ドメイングラフサービス_キャッシュ {
    control リゾルバ_キャッシュ
    control サービス_キャッシュ
    entity ストレージ_キャッシュ
    ゲートウェイ - -> リゾルバ_キャッシュ : GraphQL
    リゾルバ_キャッシュ - -> サービス_キャッシュ
    サービス_キャッシュ -> ストレージ_キャッシュ : キャッシュ登録
    リゾルバ_キャッシュ ..> スキーマレジストリ : スキーマ
}
cloud ドメイングラフサービス {
    control リゾルバ
    control サービス
    ゲートウェイ - -> リゾルバ : GraphQL
    リゾルバ - -> サービス
    リゾルバ ..> スキーマレジストリ : スキーマ
}
cloud 外部サービス {
    control 外部サービス1
    control 外部サービス2
    control 外部サービス3
    control 外部サービス4
    外部サービス1 - 外部サービス2
    外部サービス1 - - 外部サービス3
    外部サービス1 - 外部サービス4
    外部サービス2 - - 外部サービス4
    外部サービス3 - 外部サービス4
    外部サービス3 - 外部サービス2
}
サービス_キャッシュ - -> 外部サービス1 : REST
サービス - -> 外部サービス2 : REST
@enduml

PlantUML version 1.2022.3beta2(Unknown compile time)
(GPL source distribution)
Java Runtime: Java(TM) SE Runtime Environment
JVM: Java HotSpot(TM) 64-Bit Server VM
Default Encoding: UTF-8
Language: en
Country: US
--></g></svg>