<?xml version="1.0" encoding="UTF-8" standalone="no"?><svg xmlns="http://www.w3.org/2000/svg" xmlns:xlink="http://www.w3.org/1999/xlink" contentStyleType="text/css" height="200px" preserveAspectRatio="none" style="width:265px;height:200px;background:#FFFFFF;" version="1.1" viewBox="0 0 265 200" width="265px" zoomAndPan="magnify"><defs/><g><!--MD5=[f7f2c833b8c0c190be5ca7b49942253b]
cluster モノリス--><g id="cluster_モノリス"><path d="M135.556,16.0744 C139.6652,8.8262 144.5558,9.7722 149.313,15.3809 C152.6062,9.5849 158.1018,9.4986 161.7376,15.0042 C164.669,8.4191 169.5275,9.1374 173.6393,13.7495 C177.09,6.7312 181.6731,6 187.0949,11.657 C191.3191,6.6931 196.1241,7.1439 199.6129,12.5452 C204.7352,7.5059 208.6155,7.5011 212.1653,14.2234 C216.4973,8.5822 220.3669,7.6832 224.4133,14.5041 C232.5246,8.9396 241.546,11.0212 242,22.4356 C243.1152,22.8776 243.2788,23.4632 242.4325,24.3486 C248.6985,26.627 248.8933,30.5564 245.1903,35.3368 C250.7411,38.8903 252.9307,44.0642 246.0077,48.3983 C253.2774,51.4554 254.289,56.3559 248.1173,61.5664 C253.7548,65.388 253.6234,69.8486 248.1655,73.7141 C256.3731,77.6774 256.846,82.234 249.6513,87.8197 C255.3603,90.8639 257.4881,95.2088 251.6846,100.1512 C256.8887,103.0547 258.1514,108.9411 251.8818,112.0349 C257.6233,117.4249 256.1959,122.3971 248.7251,124.4194 C255.174,127.7441 254.3915,133.2025 248.7591,136.561 C254.7781,142.4339 252.868,147.1331 245.4578,149.608 C252.4464,154.4358 250.5155,159.6284 244.5008,163.5646 C250.8087,174.6795 246.5143,179.7955 235,181.4356 C236.0501,180.8473 236.9325,181.2224 236.9086,182.5216 C233.3819,189.9548 226.5834,189.1174 222.7316,182.8582 C220.443,189.276 216.3129,188.8198 211.9496,185.0549 C208.4926,191.0883 202.1801,191.0867 198.4844,185.3276 C195.6316,191.9551 192.0906,193.018 186.935,187.5213 C182.5495,191.9784 177.0628,191.6536 174.5721,185.3453 C169.8494,192.5849 164.4799,192.0278 160.0186,185.0772 C156.0795,189.9521 152.2605,190.1439 149.4221,184.017 C136.8555,192.4913 131.1181,187.0862 128,174.4356 C129.2406,174.5161 129.6744,175.1046 129.3606,176.3121 C122.1235,174.4291 121.0251,168.2007 126.9083,163.7553 C119.2463,159.2727 120.5018,154.5721 126.4889,149.6827 C121.1544,146.993 120.9002,141.4822 125.4478,137.918 C119.1423,135.2037 119.2925,128.9393 124.3046,125.207 C116.5803,121.8561 116.7862,115.6513 123.4857,111.4422 C117.9687,109.243 118.0096,103.7629 122.2903,100.4939 C114.9739,96.8909 115.923,90.5597 121.7409,86.4432 C117.6346,81.9722 116.9698,77.8408 123.453,74.947 C116.9199,69.9668 117.2268,64.7594 124.5234,60.8276 C119.4926,56.5596 119.6391,50.8738 126.2172,48.1579 C121.6043,43.6795 121.9807,38.9644 128.6778,36.9745 C119.4585,27.3917 123.7514,19.0106 135,15.4356 C135.4463,15.3834 135.7124,15.602 135.556,16.0744 " style="stroke:#181818;stroke-width:1.0;fill:none;"/><text fill="#000000" font-family="&quot;Yu Gothic UI, sans-serif&quot;" font-size="14" font-weight="bold" lengthAdjust="spacing" textLength="60" x="155" y="33.4307">モノリス</text></g><!--MD5=[7e882e6620e2a97ffcca45e9f60fb6b7]
entity ウェブアプリ--><g id="elem_ウェブアプリ"><path d="M164.5,46.4356 L164.5,70.4356 M164.5,58.4356 L181.5,58.4356 " fill="none" style="stroke:#181818;stroke-width:0.5;"/><ellipse cx="193.5" cy="58.4356" fill="#F1F1F1" rx="12" ry="12" style="stroke:#181818;stroke-width:0.5;"/><text fill="#000000" font-family="&quot;Yu Gothic UI, sans-serif&quot;" font-size="14" lengthAdjust="spacing" textLength="84" x="143" y="87.4307">ウェブアプリ</text></g><!--MD5=[1c7ec1a8c617255691be87360e9c6121]
entity モバイルアプリ--><g id="elem_モバイルアプリ"><path d="M164.5,129.4356 L164.5,153.4356 M164.5,141.4356 L181.5,141.4356 " fill="none" style="stroke:#181818;stroke-width:0.5;"/><ellipse cx="193.5" cy="141.4356" fill="#F1F1F1" rx="12" ry="12" style="stroke:#181818;stroke-width:0.5;"/><text fill="#000000" font-family="&quot;Yu Gothic UI, sans-serif&quot;" font-size="14" lengthAdjust="spacing" textLength="98" x="136" y="170.4307">モバイルアプリ</text></g><!--MD5=[cb806db31311588c371a8644e7db75c6]
entity カスタマー--><g id="elem_カスタマー"><ellipse cx="41" cy="78.9356" fill="#F1F1F1" rx="8" ry="8" style="stroke:#181818;stroke-width:0.5;"/><path d="M41,86.9356 L41,113.9356 M28,94.9356 L54,94.9356 M41,113.9356 L28,128.9356 M41,113.9356 L54,128.9356 " fill="none" style="stroke:#181818;stroke-width:0.5;"/><text fill="#000000" font-family="&quot;Yu Gothic UI, sans-serif&quot;" font-size="14" lengthAdjust="spacing" textLength="70" x="6" y="143.4307">カスタマー</text></g><!--MD5=[2b3720a1f082f4c725ea3d13ec33a24a]
link カスタマー to ウェブアプリ--><g id="link_カスタマー_ウェブアプリ"><path d="M76.0125,98.3756 C96.1147,92.4296 121.705,84.8606 142.928,78.5836 " fill="none" id="カスタマー-ウェブアプリ" style="stroke:#181818;stroke-width:1.0;"/></g><!--MD5=[ff56df20fd4070134a32268c1f917e98]
link カスタマー to モバイルアプリ--><g id="link_カスタマー_モバイルアプリ"><path d="M76.0125,118.2561 C93.8994,123.4206 116.131,129.8398 135.766,135.5088 " fill="none" id="カスタマー-モバイルアプリ" style="stroke:#181818;stroke-width:1.0;"/></g><!--MD5=[2fe814400cca54aeed2f8b10272a39ba]
@startuml
skinparam monochrome true
skinparam handwritten false
skinparam defaultFontName "Yu Gothic UI, sans-serif"
left to right direction
actor カスタマー
cloud モノリス {
    boundary ウェブアプリ
    boundary モバイルアプリ
    カスタマー - - ウェブアプリ
    カスタマー - - モバイルアプリ
}
@enduml

PlantUML version 1.2022.3beta2(Unknown compile time)
(GPL source distribution)
Java Runtime: Java(TM) SE Runtime Environment
JVM: Java HotSpot(TM) 64-Bit Server VM
Default Encoding: UTF-8
Language: en
Country: US
--></g></svg>