<?xml version="1.0" encoding="UTF-8" standalone="no"?><svg xmlns="http://www.w3.org/2000/svg" xmlns:xlink="http://www.w3.org/1999/xlink" contentStyleType="text/css" height="1344px" preserveAspectRatio="none" style="width:1173px;height:1344px;background:#FFFFFF;" version="1.1" viewBox="0 0 1173 1344" width="1173px" zoomAndPan="magnify"><defs/><g><!--MD5=[49cd22768e1054f63137ca6d126948cc]
cluster フロントエンド--><g id="cluster_フロントエンド"><path d="M392.6596,157.444 C400.4084,139.6961 416.2715,139.513 425.2667,156.266 C436.0091,136.4924 454.2987,136.5058 466.3116,154.8997 C472.2563,137.9433 487.6843,134.9204 498.0172,150.6421 C510.3219,132.1314 521.4298,134.0728 533.7644,150.6115 C545.0745,130.2574 558.236,133.7564 571.5419,148.461 C582.0775,131.9002 596.4059,133.8205 603.583,151.5952 C613.5005,134.0915 627.4392,132.0695 638.4235,150.5627 C650.3447,129.9012 664.3512,130.8259 678.0156,148.7752 C691.918,135.0808 702.6825,136.9828 713.0557,152.945 C722.9772,137.3101 736.1141,137.501 745.8792,153.1094 C758.4516,133.7329 773.2155,136.5649 785.2073,153.7342 C794.8783,137.0722 805.2839,136.7146 816.3101,152.4324 C828.0153,136.4579 842.271,133.7576 852.4676,153.941 C868.8496,134.4135 882.7001,135.995 893.2108,159.5 C896.4231,158.2489 898.7194,159.5229 898.6518,163.1548 C922.1033,173.6276 925.1667,189.1741 904.1058,205.3944 C924.5812,230.4235 916.4371,247.9475 886.2108,254.5 C887.8164,253.18 889.3217,253.8165 889.4451,255.9061 C881.7356,271.8418 867.0143,273.7145 856.8632,258.4564 C845.5382,274.6994 832.8341,276.4785 821.6313,258.3312 C814.3406,275.7772 796.2848,281.5753 784.1964,263.3687 C775.6544,283.2432 758.2138,281.7393 746.6897,266.5594 C735.8509,286.4815 719.1518,282.0052 709.2917,265.553 C699.7878,278.3689 685.8503,278.0855 676.9076,264.8552 C663.8334,281.5078 651.7583,284.777 638.7082,264.8299 C632.0711,284.932 614.5825,287.6067 603.0737,269.3563 C593.0573,283.5334 575.8966,283.5547 567.6128,267.335 C557.9494,283.4299 544.3342,279.5078 535.7985,266.1181 C524.6194,283.3785 507.8834,277.5402 500.8957,261.6987 C487.8136,278.7258 474.6386,282.7333 461.2292,262.043 C449.0696,272.7251 437.4896,271.2547 430.3324,256.0682 C413.0941,274.471 391.5519,273.4504 382.2108,247.5 C386.6341,246.5831 388.179,248.7141 387.7644,252.8342 C368.3379,238.5571 368.1056,223.4886 387.0511,208.5929 C360.2441,190.3091 357.7319,168.5397 389.2108,152.5 C392.5584,152.4557 394.1141,154.1384 392.6596,157.444 " style="stroke:#181818;stroke-width:1.0;fill:none;"/><text fill="#000000" font-family="&quot;Yu Gothic UI, sans-serif&quot;" font-size="14" font-weight="bold" lengthAdjust="spacing" textLength="105" x="585.2108" y="170.4951">フロントエンド</text></g><!--MD5=[70a18483d462b5b8afbe4b2392687415]
cluster BFF--><g id="cluster_BFF"><path d="M381.8473,319.9889 C393.5574,304.5277 408.1061,305.4281 418.1851,321.848 C431.3182,300.3662 450.2523,301.2297 462.3297,322.9273 C472.83,302.5243 488.7785,307.5019 499.5358,322.6585 C510.5271,305.1765 526.4228,303.5584 538.9398,320.9338 C551.4187,297.6076 569.6318,300.0787 583.1912,319.8237 C595.9817,299.447 608.9701,299.2577 625.7209,315.1842 C636.6109,298.494 653.9542,296.6168 665.119,314.8744 C678.5131,296.9731 695.527,292.9542 708.2878,315.5495 C720.0648,298.3088 737.5594,304.0266 745.1047,320.2107 C757.2108,298.1822 775.511,300.235 789.5132,318.1001 C803.5034,300.4012 818.9952,302.005 828.9499,322.29 C839.3982,306.666 850.6248,301.649 864.6047,318.4008 C877.2625,296.1079 893.5102,296.5607 906.0151,318.5438 C925.3958,299.7466 940.5289,300.5963 952.2108,326.5 C955.2698,324.378 957.1005,325.3255 958.3353,328.5787 C982.3797,341.1324 980.3214,363.0931 957.53,374.8314 C974.2528,395.516 969.7335,411.7032 945.2108,421.5 C945.5255,421.511 945.5846,421.6789 945.4537,421.9374 C936.6256,441.345 923.5823,440.9974 908.9779,428.552 C894.0194,447.2446 877.8091,442.5089 867.8285,423.1664 C857.8863,444.6036 842.4813,441.8039 829.5314,426.283 C814.7533,442.0254 799.872,440.8516 788.3059,422.4094 C777.8553,446.3879 762.096,449.3186 744.8706,429.0616 C734.197,449.8279 717.214,448.9524 705.9455,429.6394 C689.2098,448.0422 673.2826,448.5723 661.1286,424.7737 C653.3589,442.5924 637.9144,443.6827 625.5479,429.959 C612.4725,445.7341 593.9399,443.6947 586.4076,423.8653 C575.5029,444.6428 556.7972,443.5636 543.4809,426.6089 C532.2545,444.4413 512.8831,445.4986 502.168,426.0424 C490.4207,446.6629 473.3624,446.1728 460.0297,427.7536 C449.5794,448.4771 429.1454,446.4765 417.723,428.8252 C395.8461,448.7023 376.6408,443.547 369.2108,414.5 C372.01,416.0153 372.9692,418.3051 369.9373,420.5237 C344.711,415.2441 339.9584,392.4634 357.0245,375.1484 C334.788,350.8636 340.8932,323.9415 376.2108,319.5 C378.1543,316.8017 380.3897,317.085 381.8473,319.9889 " style="stroke:#181818;stroke-width:1.0;fill:none;"/><text fill="#000000" font-family="&quot;Yu Gothic UI, sans-serif&quot;" font-size="14" font-weight="bold" lengthAdjust="spacing" textLength="29" x="646.2108" y="337.4951">BFF</text></g><!--MD5=[a6ded7f43b8f419e368b0643cd68be14]
cluster ワークフローサービス--><g id="cluster_ワークフローサービス"><path d="M96.0851,493.9361 C111.0287,474.2154 126.1636,471.4705 142.1931,492.7137 C155.7026,462.5855 174.992,458.6957 195.7316,485.9703 C208.4278,465.424 230.192,466.7021 241.8925,487.093 C256.9851,464.7463 279.5544,462.3896 292.5851,489.2185 C307.6177,468.8272 323.9399,467.661 339.421,488.7117 C352.4986,462.187 374.8739,467.9099 388.0551,488.605 C404.0929,464.24 422.4628,460.5808 439.848,487.2373 C455.1503,460.8046 470.6796,460.7947 487.4189,485.9111 C500.3109,462.7953 521.0923,461.8382 533.8079,486.0839 C553.6778,459.1864 571.4327,460.2055 589.8304,487.603 C605.7012,463.9858 621.587,470.2129 634.7965,490.3387 C649.768,468.6478 670.7525,460.438 687.561,488.386 C700.6104,471.145 716.1759,470.6785 729.0473,488.5962 C748.9927,465.5447 769.0596,462.6218 784.2108,493.5 C785.633,492.3701 786.6748,492.4181 787.2564,494.3392 C797.6973,500.8685 796.3819,508.4041 788.103,515.6762 C799.9347,523.0382 802.7315,532.6026 790.0708,541.8088 C797.7091,549.5821 796.2591,556.489 785.8727,560.1328 C798.1831,572.8646 794.8141,584.9024 777.2108,588.5 C783.9175,586.5812 786.4487,591.0451 785.2543,596.7914 C769.7684,616.7632 748.166,614.7082 736.7634,592.1372 C720.215,617.7391 702.4909,625.9373 681.0629,597.1329 C666.5458,621.8547 647.02,619.9693 630.3562,599.5439 C614.3615,618.1918 596.5065,621.9748 584.047,595.8845 C569.2202,620.8674 554.7332,616.877 536.9436,599.1522 C522.7201,623.7328 503.8537,623.4547 487.3799,601.5517 C472.0968,623.7938 445.8437,623.1395 434.6841,597.0553 C421.1396,619.4034 407.0131,619.5066 389.4175,601.612 C376.4547,620.8948 352.9303,625.2648 341.4764,599.9886 C322.6775,624.3613 304.4773,615.5252 292.5321,592.8575 C280.9158,611.8898 258.4684,617.8202 246.2758,593.4721 C229.1514,617.6807 211.674,616.6237 196.8803,591.1546 C182.6068,615.0686 154.1394,615.5596 139.9139,591.098 C117.6303,618.325 95.6416,612.481 83.2108,581.5 C84.6385,581.5163 85.3115,582.3263 84.7893,583.7256 C72.9644,576.3688 72.5548,567.4823 85.2718,560.6385 C77.4599,554.9634 75.9456,547.7896 84.8619,541.7515 C72.9729,535.6869 74.6211,526.9461 83.2697,519.4174 C68.7449,506.4035 70.5316,492.3015 90.2108,486.5 C94.8026,485.9723 98.5499,488.8892 96.0851,493.9361 " style="stroke:#181818;stroke-width:1.0;fill:none;"/><text fill="#000000" font-family="&quot;Yu Gothic UI, sans-serif&quot;" font-size="14" font-weight="bold" lengthAdjust="spacing" textLength="150" x="358.7108" y="504.4951">ワークフローサービス</text></g><!--MD5=[fd938be5eb807b2cb9baf22ccd3fbfa9]
cluster コアドメインサービス--><g id="cluster_コアドメインサービス"><path d="M35.7015,658.2689 C43.3865,641.75 59.4756,642.6333 68.7659,656.5234 C75.6263,640.9087 92.0797,636.1 103.6783,651.1244 C114.8413,635.1532 128.8256,635.2529 137.4272,653.6403 C144.9285,636.5233 162.2398,630.171 174.9485,648.0584 C185.6546,636.8142 197.5814,638.9674 204.5556,652.5151 C214.9692,634.4382 225.8644,633.758 240.2239,648.1852 C249.4181,630.194 267.0177,630.7372 278.4984,645.5145 C291.6545,632.6802 302.3363,635.4178 311.1633,650.5678 C320.6397,634.533 334.7652,631.6508 344.8468,649.9745 C354.1122,633.2096 370.2543,634.1979 377.5174,651.8739 C386.9088,633.2669 401.1067,634.6031 411.5778,650.8179 C423.1865,633.9113 439.7743,636.9621 446.8588,655.3414 C459.537,639.9495 472.0798,637.9973 483.3277,656.864 C496.8194,641.7537 509.2252,641.0096 519.2108,660.5 C519.7213,659.648 520.2965,659.8416 520.8044,660.5028 C539.5357,671.6718 543.3947,691.2491 521.8313,703.3831 C539.2536,714.0378 541.3682,725.4098 527.0385,740.5172 C548.1145,748.0109 546.1242,763.2457 532.6601,776.1835 C551.5776,789.8293 550.6404,808.3952 527.3314,816.4533 C540.8429,831.1156 543.4406,843.5725 521.8622,852.9809 C540.7742,872.2297 535.8009,887.4654 512.2108,897.5 C515.7144,896.6114 517.6343,898.2229 517.3062,901.8366 C505.4069,921.0476 489.3631,918.9722 479.4675,899.8584 C471.7121,916.0224 458.2711,914.8877 449.8144,900.5401 C439.2137,919.108 423.6706,917.2358 414.1123,899.5146 C404.2725,918.2457 393.2782,917.0939 379.5303,903.725 C366.3539,922.6924 353.3451,921.3801 341.678,902.2263 C333.7838,918.6265 322.2975,917.6209 311.33,905.4961 C300.5197,918.9894 285.6412,918.6926 278.0059,901.992 C264.5574,919.1057 252.9603,918.8902 240.6969,900.7382 C231.6912,920.6657 213.817,920.8251 203.6587,901.8351 C193.0998,916.7167 182.7985,921.1398 169.9953,904.21 C159.2908,918.725 144.2802,916.8218 135.5304,901.92 C128.569,919.0055 113.818,920.1142 103.966,904.7299 C92.8553,920.016 79.3331,921.7446 70.028,902.9328 C51.3375,918.2727 32.8715,914.9197 25.2108,890.5 C26.7594,888.7889 28.1174,888.4956 29.403,890.7763 C13.1292,880.9378 14.1815,870.1591 27.2986,858.4096 C9.4993,845.8193 7.7534,832.2088 27.8775,820.193 C7.1295,808.4534 6,789.6773 28.6114,778.7046 C9.6819,768.7509 9.7445,754.3784 25.608,741.6078 C8.0894,728.9978 10.0011,712.1933 29.1085,702.8951 C8.5124,687.306 7.4901,666.2429 32.2108,653.5 C35.1923,653.1859 36.9912,655.4565 35.7015,658.2689 " style="stroke:#181818;stroke-width:1.0;fill:none;"/><text fill="#000000" font-family="&quot;Yu Gothic UI, sans-serif&quot;" font-size="14" font-weight="bold" lengthAdjust="spacing" textLength="150" x="197.2108" y="671.4951">コアドメインサービス</text></g><!--MD5=[ea93f09e3bbef906381feab0234be704]
cluster サブドメインサービス--><g id="cluster_サブドメインサービス"><path d="M569.6416,653.5045 C574.4851,646.4919 581.4876,647.2743 584.9775,654.9206 C589.3458,643.2645 598.9626,642.3062 606.502,651.674 C610.1262,644.2563 616.5473,642.4982 622.2805,649.3404 C630.2178,638.1789 637.0127,641.4095 643.5176,650.8191 C647.7093,640.9796 654.1273,639.7995 661.4891,647.587 C665.2128,640.5014 672.6199,638.9701 677.4804,646.3283 C681.6459,636.1957 691.0899,636.2082 697.0711,644.3857 C703.8339,637.1937 710.2644,637.5765 714.9162,646.6954 C720.3608,636.8145 729.5974,636.1952 735.1754,646.562 C743.6686,638.5863 749.2556,640.5523 753.2552,650.9773 C759.105,643.7806 765.8855,643.4576 771.3408,651.4472 C777.0907,643.8231 785.1971,641.9812 790.0947,652.3363 C796.1166,644.0794 804.4458,645.3185 808.4529,654.4619 C818.49,645.3343 827.844,647.3164 832.2108,660.5 C834.2662,661.0099 834.2767,662.699 832.9277,663.9221 C842.0875,668.5992 842.1078,675.3382 835.5624,682.2704 C845.0691,687.5292 846.3505,696.2985 835.8892,701.8899 C844.6241,706.9992 844.4442,712.1113 837.4529,718.6849 C847.0733,723.0008 850.3278,729.7961 841.6443,738.0696 C851.6049,744.6184 849.3833,750.9999 841.4475,757.3661 C852.2828,763.8117 851.5277,769.7211 841.9854,776.7327 C851.5492,782.318 851.282,791.2139 841.8014,796.623 C851.7316,802.9151 850.4623,810.8504 842.125,817.4268 C849.3607,825.1033 848.122,832.6243 837.0978,835.1095 C846.769,841.0423 846.5026,847.617 838.7934,855.0292 C846.6052,861.4746 844.1797,868.9649 835.9408,872.8395 C845.5298,886.5263 839.0358,894.001 825.2108,897.5 C826.6727,896.2937 827.8105,896.279 828.515,898.2803 C823.6077,908.4778 814.3325,910.9527 806.9395,900.9331 C802.4598,909.5748 794.0724,908.746 789.3285,901.2208 C783.0147,910.2533 775.5321,909.557 771.2077,899.3473 C767.8989,906.945 760.1738,908.451 754.4788,902.2376 C749.5207,911.1773 738.8335,912.4037 732.9771,903.3086 C726.703,910.9392 721.1067,909.6733 715.6578,902.3527 C710.1085,909.5865 704.8061,911.6947 698.7155,902.9259 C690.7434,912.2228 683.9184,911.655 678.488,900.4217 C673.4449,909.6478 666.9415,911.1678 659.2949,903.3542 C654.4042,909.6294 647.3441,910.0249 643.2767,902.4051 C637.3905,910.558 628.5607,910.9869 624.562,900.5091 C618.1173,910.3692 608.7455,908.8243 603.3734,899.3346 C598.5897,905.8775 591.9356,905.1726 588.1633,898.1968 C577.0935,909.8985 563.4978,904.3126 559.2108,890.5 C560.7679,890.016 561.5511,890.4537 561.3941,892.1875 C550.9117,886.8097 550.808,877.799 560.957,871.9751 C552.7143,867.0671 551.6925,857.3831 560.6155,852.1791 C550.8559,848.5676 551.7175,840.1374 559.1298,835.0377 C550.1814,829.9831 547.6202,821.8066 557.7891,815.444 C547.2513,808.6627 549.9941,801.8609 558.503,795.7708 C549.1753,791.261 548.7684,782.3801 556.5014,776.1314 C549.3231,770.1624 547.1158,764.4353 556.4793,758.4455 C547.5743,750.8632 550.3025,743.5461 559.361,738.5681 C548.4326,732.9682 549.5832,726.3315 557.4489,718.904 C549.9846,712.2777 550.7781,704.9997 559.9208,700.6184 C551.5593,694.0747 552.4333,688.2085 561.1079,682.7998 C550.9901,671.5406 549.5317,660.0923 566.2108,653.5 C567.1148,651.6453 568.742,651.9404 569.6416,653.5045 " style="stroke:#181818;stroke-width:1.0;fill:none;"/><text fill="#000000" font-family="&quot;Yu Gothic UI, sans-serif&quot;" font-size="14" font-weight="bold" lengthAdjust="spacing" textLength="150" x="620.7108" y="671.4951">サブドメインサービス</text></g><!--MD5=[f89d50cc0cf9070976112f8813e0f767]
cluster パススルーサービス--><g id="cluster_パススルーサービス"><path d="M879.6171,657.0972 C884.5631,647.7979 891.1561,647.276 898.7158,653.9776 C904.7586,645.3159 911.3883,646.0184 916.5474,654.877 C920.4892,641.989 928.9715,640.3341 937.6835,650.5045 C941.7582,642.0035 949.5473,641.4539 954.6422,649.4561 C961.4313,640.0843 969.1372,641.548 974.9226,650.5632 C979.1736,642.0138 986.3676,641.9311 991.3128,649.8733 C995.5208,642.2944 1004.0464,641.4461 1009.2194,648.7091 C1015.6513,638.2501 1025.453,640.8751 1030.5119,650.1877 C1035.4886,642.2498 1040.9867,643.2539 1046.6081,649.4537 C1053.7321,640.7685 1062.0714,642.5607 1066.5984,652.2753 C1071.4722,643.9014 1079.5741,644.6371 1084.3963,652.3326 C1089.9933,644.966 1098.2419,645.934 1102.3137,654.0927 C1107.5673,644.5764 1115.7654,644.0501 1121.2208,653.8957 C1131.2428,643.86 1141.2073,648.6738 1145.2108,660.5 C1146.8315,660.7855 1147.0236,661.9473 1146.251,663.1665 C1157.2608,665.5026 1162.1794,675.2587 1152.8237,684.0151 C1166.2012,689.5115 1165.5231,697.5561 1156.2907,706.5335 C1165.7426,714.4393 1163.5819,723.2498 1152.5973,727.567 C1162.8174,743.2169 1155.5213,754.0295 1138.2108,755.5 C1139.7879,755.7363 1140.3253,756.6584 1139.3717,758.0478 C1134.4592,767.1611 1125.6887,765.8031 1121.1954,757.6077 C1116.4224,766.4001 1109.3393,764.3628 1104.5835,757.5892 C1099.2853,765.4954 1090.9879,765.3103 1086.2965,756.9089 C1080.9466,767.8452 1072.4059,766.7641 1065.3255,758.8324 C1059.8744,766.625 1051.7764,766.3634 1047.3265,757.7351 C1043.8972,765.2686 1036.2844,767.2074 1030.7699,760.0917 C1024.3746,771.0801 1016.5123,770.6773 1010.2142,759.9995 C1005.1819,766.431 997.2363,768.3162 993.3508,758.7877 C987.0226,769.7523 979.8064,768.2883 972.9902,759.2853 C968.076,768.2076 959.5585,769.3559 954.2126,759.7222 C947.7602,768.2239 940.1635,765.3892 935.9799,757.2382 C931.1896,765.4714 924.4339,766.1178 919.5446,757.3339 C914.0746,767.2865 905.6765,765.6167 900.546,756.9868 C888.9704,766.9753 875.6544,765.6615 872.2108,748.5 C874.6514,748.002 875.8013,749.5684 875.2796,751.8138 C863.7809,747.6272 862.0223,736.3484 871.7025,728.8611 C861.4298,722.8108 862.1442,713.7151 871.1603,707.1823 C862.83,700.0275 863.0719,689.183 874.2698,684.7331 C862.9023,674.2357 863.4312,659.7029 879.2108,653.5 C880.9168,654.3185 881.348,655.8905 879.6171,657.0972 " style="stroke:#181818;stroke-width:1.0;fill:none;"/><text fill="#000000" font-family="&quot;Yu Gothic UI, sans-serif&quot;" font-size="14" font-weight="bold" lengthAdjust="spacing" textLength="135" x="941.2108" y="671.4951">パススルーサービス</text></g><!--MD5=[5e9444d37899338206d9f6bfbc41d4ff]
cluster 外部サービス--><g id="cluster_外部サービス"><path d="M168.9629,985.2885 C178.6456,964.3308 197.7891,956.8683 213.2069,979.4623 C228.3925,954.1683 254.2248,957.6618 265.5328,983.4353 C277.4773,963.2299 296.2325,961.6194 309.8291,981.6149 C323.5781,956.5622 339.2234,953.0396 359.2709,974.9895 C371.2773,955.313 389.2658,954.2956 400.6848,975.5834 C415.9303,953.0752 434.8081,950.1688 452.8059,972.3753 C467.5284,951.1451 480.1119,951.7698 493.3648,973.7545 C510.8421,953.8154 525.8067,954.8958 539.4561,977.8662 C555.1469,953.2486 577.6587,951.7697 591.3668,979.8203 C604.148,961.2932 617.7929,959.3281 633.4843,976.3748 C652.5881,953.5028 672.9048,959.0555 686.6621,982.5117 C698.5066,964.0956 713.5159,959.8934 728.4899,979.0254 C745.7277,954.0071 764.2158,956.7854 778.069,982.3432 C794.5105,957.0974 811.8236,963.8891 826.2108,984.5 C828.9172,981.9015 831.8639,983.346 832.4959,986.6929 C854.8014,1003.22 859.2978,1025.1216 832.5972,1041.7389 C861.0699,1057.3345 856.7403,1074.5197 836.0466,1093.3983 C859.7705,1104.4908 864.2311,1126.8678 844.6565,1145.1622 C868.5874,1161.256 864.361,1181.8505 839.002,1191.9929 C856.9548,1208.8111 854.054,1228.4881 832.82,1240.2904 C858.0586,1265.807 848.0855,1284.8561 819.2108,1297.5 C820.7509,1297.8646 821.2617,1298.8316 820.154,1300.1417 C812.2137,1322.292 792.4853,1324.951 778.8427,1305.8526 C765.0555,1327.9179 740.2839,1326.5367 729.2731,1302.8448 C718.2824,1324.3863 695.6662,1325.1241 683.4015,1304.2217 C669.0881,1327.1493 646.1903,1326.0306 632.7132,1303.2934 C623.1197,1323.6163 601.4049,1327.7891 587.461,1308.2296 C576.071,1329.7557 560.0178,1333.2519 545.407,1311.3485 C529.25,1337.1823 513.9191,1336.594 496.263,1312.834 C482.955,1333.1505 462.8123,1333.3907 451.4231,1310.8276 C437.6134,1331.839 414.9234,1332.8903 404.9248,1307.0457 C388.0139,1334.9134 371.6658,1336.2863 352.4017,1309.2988 C335.524,1330.3585 316.9745,1326.0409 307.4457,1301.9772 C294.9664,1324.8531 277.8232,1325.7913 264.5474,1302.7207 C248.6402,1323.3521 227.7028,1325.9018 214.8623,1299.4823 C193.6301,1319.472 171.6837,1319.4485 158.2108,1290.5 C160.883,1290.7019 162.402,1291.9364 160.9125,1294.7709 C137.3137,1280.5305 133.4193,1258.0515 156.58,1240.1052 C135.7855,1221.1677 133.2521,1205.704 159.9517,1189.96 C137.5944,1182.4998 129.364,1162.2694 150.1486,1145.3324 C126.8223,1130.1112 125.0616,1104.1097 153.5928,1092.2535 C135.3298,1070.4088 135.6557,1054.2402 162.0335,1039.544 C137.9649,1016.6066 136.6132,997.7404 165.2108,977.5 C170.1281,978.4346 171.7024,980.6652 168.9629,985.2885 " style="stroke:#181818;stroke-width:1.0;fill:none;"/><text fill="#000000" font-family="&quot;Yu Gothic UI, sans-serif&quot;" font-size="14" font-weight="bold" lengthAdjust="spacing" textLength="90" x="447.2108" y="995.4951">外部サービス</text></g><!--MD5=[7e882e6620e2a97ffcca45e9f60fb6b7]
entity ウェブアプリ--><g id="elem_ウェブアプリ"><path d="M411.7108,202.5 L411.7108,226.5 M411.7108,214.5 L428.7108,214.5 " fill="none" style="stroke:#181818;stroke-width:0.5;"/><ellipse cx="440.7108" cy="214.5" fill="#F1F1F1" rx="12" ry="12" style="stroke:#181818;stroke-width:0.5;"/><text fill="#000000" font-family="&quot;Yu Gothic UI, sans-serif&quot;" font-size="14" lengthAdjust="spacing" textLength="84" x="390.2108" y="243.4951">ウェブアプリ</text></g><g id="elem_GMN864097"><path d="M509.2108,210 L509.2108,218.5 L474.2928,222.5 L509.2108,226.5 L509.2108,235.1328 A0,0 0 0 0 509.2108,235.1328 L621.2108,235.1328 A0,0 0 0 0 621.2108,235.1328 L621.2108,220 L611.2108,210 L509.2108,210 A0,0 0 0 0 509.2108,210 " fill="#FAFAFA" style="stroke:#181818;stroke-width:0.5;"/><path d="M611.2108,210 L611.2108,220 L621.2108,220 L611.2108,210 " fill="#FAFAFA" style="stroke:#181818;stroke-width:0.5;"/><text fill="#000000" font-family="&quot;Yu Gothic UI, sans-serif&quot;" font-size="13" lengthAdjust="spacing" textLength="91" x="515.2108" y="227.0669">ウェブブラウザ</text></g><!--MD5=[1c7ec1a8c617255691be87360e9c6121]
entity モバイルアプリ--><g id="elem_モバイルアプリ"><path d="M684.7108,202.5 L684.7108,226.5 M684.7108,214.5 L701.7108,214.5 " fill="none" style="stroke:#181818;stroke-width:0.5;"/><ellipse cx="713.7108" cy="214.5" fill="#F1F1F1" rx="12" ry="12" style="stroke:#181818;stroke-width:0.5;"/><text fill="#000000" font-family="&quot;Yu Gothic UI, sans-serif&quot;" font-size="14" lengthAdjust="spacing" textLength="98" x="656.2108" y="243.4951">モバイルアプリ</text></g><g id="elem_GMN864101"><path d="M789.7108,210 L789.7108,218.5 L754.4528,222.5 L789.7108,226.5 L789.7108,235.1328 A0,0 0 0 0 789.7108,235.1328 L884.7108,235.1328 A0,0 0 0 0 884.7108,235.1328 L884.7108,220 L874.7108,210 L789.7108,210 A0,0 0 0 0 789.7108,210 " fill="#FAFAFA" style="stroke:#181818;stroke-width:0.5;"/><path d="M874.7108,210 L874.7108,220 L884.7108,220 L874.7108,210 " fill="#FAFAFA" style="stroke:#181818;stroke-width:0.5;"/><text fill="#000000" font-family="&quot;Yu Gothic UI, sans-serif&quot;" font-size="13" lengthAdjust="spacing" textLength="74" x="795.7108" y="227.0669">iOS/Android</text></g><!--MD5=[b052c57d116036adc13e87d00a9f0540]
entity ウェブBFF--><g id="elem_ウェブBFF"><ellipse cx="411.2108" cy="381.5" fill="#F1F1F1" rx="12" ry="12" style="stroke:#181818;stroke-width:0.5;"/><polygon fill="#181818" points="407.2108,369.5,413.2108,364.5,411.2108,369.5,413.2108,374.5,407.2108,369.5" style="stroke:#181818;stroke-width:1.0;"/><text fill="#000000" font-family="&quot;Yu Gothic UI, sans-serif&quot;" font-size="14" lengthAdjust="spacing" textLength="68" x="377.2108" y="410.4951">ウェブBFF</text></g><g id="elem_GMN864108"><path d="M480.2108,377 L480.2108,385.5 L445.3768,389.5 L480.2108,393.5 L480.2108,402.1328 A0,0 0 0 0 480.2108,402.1328 L636.2108,402.1328 A0,0 0 0 0 636.2108,402.1328 L636.2108,387 L626.2108,377 L480.2108,377 A0,0 0 0 0 480.2108,377 " fill="#FAFAFA" style="stroke:#181818;stroke-width:0.5;"/><path d="M626.2108,377 L626.2108,387 L636.2108,387 L626.2108,377 " fill="#FAFAFA" style="stroke:#181818;stroke-width:0.5;"/><text fill="#000000" font-family="&quot;Yu Gothic UI, sans-serif&quot;" font-size="13" lengthAdjust="spacing" textLength="135" x="486.2108" y="394.0669">サーバーレス(Node.js)</text></g><!--MD5=[96ed2b0626b24952385980c9f6f945f8]
entity モバイルBFF--><g id="elem_モバイルBFF"><ellipse cx="712.2108" cy="381.5" fill="#F1F1F1" rx="12" ry="12" style="stroke:#181818;stroke-width:0.5;"/><polygon fill="#181818" points="708.2108,369.5,714.2108,364.5,712.2108,369.5,714.2108,374.5,708.2108,369.5" style="stroke:#181818;stroke-width:1.0;"/><text fill="#000000" font-family="&quot;Yu Gothic UI, sans-serif&quot;" font-size="14" lengthAdjust="spacing" textLength="82" x="671.2108" y="410.4951">モバイルBFF</text></g><g id="elem_GMN864112"><path d="M788.2108,377 L788.2108,385.5 L753.4178,389.5 L788.2108,393.5 L788.2108,402.1328 A0,0 0 0 0 788.2108,402.1328 L944.2108,402.1328 A0,0 0 0 0 944.2108,402.1328 L944.2108,387 L934.2108,377 L788.2108,377 A0,0 0 0 0 788.2108,377 " fill="#FAFAFA" style="stroke:#181818;stroke-width:0.5;"/><path d="M934.2108,377 L934.2108,387 L944.2108,387 L934.2108,377 " fill="#FAFAFA" style="stroke:#181818;stroke-width:0.5;"/><text fill="#000000" font-family="&quot;Yu Gothic UI, sans-serif&quot;" font-size="13" lengthAdjust="spacing" textLength="135" x="794.2108" y="394.0669">サーバーレス(Node.js)</text></g><!--MD5=[74636fc2be209ba6ad28b91e001a6ea3]
entity ゲートウェイ--><g id="elem_ゲートウェイ"><ellipse cx="549.2108" cy="548.5" fill="#F1F1F1" rx="12" ry="12" style="stroke:#181818;stroke-width:0.5;"/><polygon fill="#181818" points="545.2108,536.5,551.2108,531.5,549.2108,536.5,551.2108,541.5,545.2108,536.5" style="stroke:#181818;stroke-width:1.0;"/><text fill="#000000" font-family="&quot;Yu Gothic UI, sans-serif&quot;" font-size="14" lengthAdjust="spacing" textLength="84" x="507.2108" y="577.4951">ゲートウェイ</text></g><g id="elem_GMN864119"><path d="M626.7108,544 L626.7108,552.5 L591.3668,556.5 L626.7108,560.5 L626.7108,569.1328 A0,0 0 0 0 626.7108,569.1328 L775.7108,569.1328 A0,0 0 0 0 775.7108,569.1328 L775.7108,554 L765.7108,544 L626.7108,544 A0,0 0 0 0 626.7108,544 " fill="#FAFAFA" style="stroke:#181818;stroke-width:0.5;"/><path d="M765.7108,544 L765.7108,554 L775.7108,554 L765.7108,544 " fill="#FAFAFA" style="stroke:#181818;stroke-width:0.5;"/><text fill="#000000" font-family="&quot;Yu Gothic UI, sans-serif&quot;" font-size="13" lengthAdjust="spacing" textLength="128" x="632.7108" y="561.0669">GraphQL Federation</text></g><!--MD5=[1e75ff71913e1d92b160932c4a02d6d7]
entity スキーマレジストリ--><g id="elem_スキーマレジストリ"><ellipse cx="329.2108" cy="548.5" fill="#F1F1F1" rx="12" ry="12" style="stroke:#181818;stroke-width:0.5;"/><polygon fill="#181818" points="325.2108,536.5,331.2108,531.5,329.2108,536.5,331.2108,541.5,325.2108,536.5" style="stroke:#181818;stroke-width:1.0;"/><text fill="#000000" font-family="&quot;Yu Gothic UI, sans-serif&quot;" font-size="14" lengthAdjust="spacing" textLength="126" x="266.2108" y="577.4951">スキーマレジストリ</text></g><!--MD5=[659fbb81bac44e86021014abe80ec3c0]
entity メッセージブローカー--><g id="elem_メッセージブローカー"><ellipse cx="161.2108" cy="548.5" fill="#F1F1F1" rx="12" ry="12" style="stroke:#181818;stroke-width:0.5;"/><polygon fill="#181818" points="157.2108,536.5,163.2108,531.5,161.2108,536.5,163.2108,541.5,157.2108,536.5" style="stroke:#181818;stroke-width:1.0;"/><text fill="#000000" font-family="&quot;Yu Gothic UI, sans-serif&quot;" font-size="14" lengthAdjust="spacing" textLength="140" x="91.2108" y="577.4951">メッセージブローカー</text></g><!--MD5=[b6ce8da8ceb4bb9bd6947385a02ae42d]
entity リゾルバC--><g id="elem_リゾルバC"><ellipse cx="264.2108" cy="715.5" fill="#F1F1F1" rx="12" ry="12" style="stroke:#181818;stroke-width:0.5;"/><polygon fill="#181818" points="260.2108,703.5,266.2108,698.5,264.2108,703.5,266.2108,708.5,260.2108,703.5" style="stroke:#181818;stroke-width:1.0;"/><text fill="#000000" font-family="&quot;Yu Gothic UI, sans-serif&quot;" font-size="14" lengthAdjust="spacing" textLength="66" x="231.2108" y="744.4951">リゾルバC</text></g><g id="elem_GMN864130"><path d="M40.2108,711 L40.2108,736.1328 A0,0 0 0 0 40.2108,736.1328 L196.2108,736.1328 A0,0 0 0 0 196.2108,736.1328 L196.2108,729 L231.0728,723.5 L196.2108,721 L196.2108,721 L186.2108,711 L40.2108,711 A0,0 0 0 0 40.2108,711 " fill="#FAFAFA" style="stroke:#181818;stroke-width:0.5;"/><path d="M186.2108,711 L186.2108,721 L196.2108,721 L186.2108,711 " fill="#FAFAFA" style="stroke:#181818;stroke-width:0.5;"/><text fill="#000000" font-family="&quot;Yu Gothic UI, sans-serif&quot;" font-size="13" lengthAdjust="spacing" textLength="135" x="46.2108" y="728.0669">サーバーレス(Node.js)</text></g><!--MD5=[2b9bbb75f0f911a48d10fa322920623e]
entity サービスC--><g id="elem_サービスC"><ellipse cx="257.2108" cy="857.5" fill="#F1F1F1" rx="12" ry="12" style="stroke:#181818;stroke-width:0.5;"/><polygon fill="#181818" points="253.2108,845.5,259.2108,840.5,257.2108,845.5,259.2108,850.5,253.2108,845.5" style="stroke:#181818;stroke-width:1.0;"/><text fill="#000000" font-family="&quot;Yu Gothic UI, sans-serif&quot;" font-size="14" lengthAdjust="spacing" textLength="66" x="224.2108" y="886.4951">サービスC</text></g><g id="elem_GMN864134"><path d="M33.2108,853 L33.2108,878.1328 A0,0 0 0 0 33.2108,878.1328 L189.2108,878.1328 A0,0 0 0 0 189.2108,878.1328 L189.2108,871 L224.0728,865.5 L189.2108,863 L189.2108,863 L179.2108,853 L33.2108,853 A0,0 0 0 0 33.2108,853 " fill="#FAFAFA" style="stroke:#181818;stroke-width:0.5;"/><path d="M179.2108,853 L179.2108,863 L189.2108,863 L179.2108,853 " fill="#FAFAFA" style="stroke:#181818;stroke-width:0.5;"/><text fill="#000000" font-family="&quot;Yu Gothic UI, sans-serif&quot;" font-size="13" lengthAdjust="spacing" textLength="135" x="39.2108" y="870.0669">サーバーレス(Node.js)</text></g><!--MD5=[a63ea2f29350a1bd64c2a808c0525b1c]
entity キャッシュC--><g id="elem_キャッシュC"><ellipse cx="471.2108" cy="857.5" fill="#F1F1F1" rx="12" ry="12" style="stroke:#181818;stroke-width:0.5;"/><line style="stroke:#181818;stroke-width:0.5;" x1="459.2108" x2="483.2108" y1="871.5" y2="871.5"/><text fill="#000000" font-family="&quot;Yu Gothic UI, sans-serif&quot;" font-size="14" lengthAdjust="spacing" textLength="80" x="431.2108" y="886.4951">キャッシュC</text></g><g id="elem_GMN864138"><path d="M339.7108,711 L339.7108,736.1328 A0,0 0 0 0 339.7108,736.1328 L425.1328,736.1328 L463.6078,841.36 L433.1328,736.1328 L510.7108,736.1328 A0,0 0 0 0 510.7108,736.1328 L510.7108,721 L500.7108,711 L339.7108,711 A0,0 0 0 0 339.7108,711 " fill="#FAFAFA" style="stroke:#181818;stroke-width:0.5;"/><path d="M500.7108,711 L500.7108,721 L510.7108,721 L500.7108,711 " fill="#FAFAFA" style="stroke:#181818;stroke-width:0.5;"/><text fill="#000000" font-family="&quot;Yu Gothic UI, sans-serif&quot;" font-size="13" lengthAdjust="spacing" textLength="150" x="345.7108" y="728.0669">データベース(PrismaDB)</text></g><!--MD5=[aaecb46f8f510380eed908fa01d25e8b]
entity リゾルバS--><g id="elem_リゾルバS"><ellipse cx="600.2108" cy="715.5" fill="#F1F1F1" rx="12" ry="12" style="stroke:#181818;stroke-width:0.5;"/><polygon fill="#181818" points="596.2108,703.5,602.2108,698.5,600.2108,703.5,602.2108,708.5,596.2108,703.5" style="stroke:#181818;stroke-width:1.0;"/><text fill="#000000" font-family="&quot;Yu Gothic UI, sans-serif&quot;" font-size="14" lengthAdjust="spacing" textLength="65" x="567.7108" y="744.4951">リゾルバS</text></g><g id="elem_GMN864148"><path d="M668.2108,711 L668.2108,719.5 L632.7188,723.5 L668.2108,727.5 L668.2108,736.1328 A0,0 0 0 0 668.2108,736.1328 L824.2108,736.1328 A0,0 0 0 0 824.2108,736.1328 L824.2108,721 L814.2108,711 L668.2108,711 A0,0 0 0 0 668.2108,711 " fill="#FAFAFA" style="stroke:#181818;stroke-width:0.5;"/><path d="M814.2108,711 L814.2108,721 L824.2108,721 L814.2108,711 " fill="#FAFAFA" style="stroke:#181818;stroke-width:0.5;"/><text fill="#000000" font-family="&quot;Yu Gothic UI, sans-serif&quot;" font-size="13" lengthAdjust="spacing" textLength="135" x="674.2108" y="728.0669">サーバーレス(Node.js)</text></g><!--MD5=[6461c227f67191deb0fa9b1c3f12dae9]
entity サービスS--><g id="elem_サービスS"><ellipse cx="600.2108" cy="857.5" fill="#F1F1F1" rx="12" ry="12" style="stroke:#181818;stroke-width:0.5;"/><polygon fill="#181818" points="596.2108,845.5,602.2108,840.5,600.2108,845.5,602.2108,850.5,596.2108,845.5" style="stroke:#181818;stroke-width:1.0;"/><text fill="#000000" font-family="&quot;Yu Gothic UI, sans-serif&quot;" font-size="14" lengthAdjust="spacing" textLength="65" x="567.7108" y="886.4951">サービスS</text></g><g id="elem_GMN864152"><path d="M668.2108,853 L668.2108,861.5 L632.7188,865.5 L668.2108,869.5 L668.2108,878.1328 A0,0 0 0 0 668.2108,878.1328 L824.2108,878.1328 A0,0 0 0 0 824.2108,878.1328 L824.2108,863 L814.2108,853 L668.2108,853 A0,0 0 0 0 668.2108,853 " fill="#FAFAFA" style="stroke:#181818;stroke-width:0.5;"/><path d="M814.2108,853 L814.2108,863 L824.2108,863 L814.2108,853 " fill="#FAFAFA" style="stroke:#181818;stroke-width:0.5;"/><text fill="#000000" font-family="&quot;Yu Gothic UI, sans-serif&quot;" font-size="13" lengthAdjust="spacing" textLength="135" x="674.2108" y="870.0669">サーバーレス(Node.js)</text></g><!--MD5=[8d29499ca48723059ca368b2badc84f7]
entity リゾルバP--><g id="elem_リゾルバP"><ellipse cx="913.2108" cy="715.5" fill="#F1F1F1" rx="12" ry="12" style="stroke:#181818;stroke-width:0.5;"/><polygon fill="#181818" points="909.2108,703.5,915.2108,698.5,913.2108,703.5,915.2108,708.5,909.2108,703.5" style="stroke:#181818;stroke-width:1.0;"/><text fill="#000000" font-family="&quot;Yu Gothic UI, sans-serif&quot;" font-size="14" lengthAdjust="spacing" textLength="65" x="880.7108" y="744.4951">リゾルバP</text></g><g id="elem_GMN864159"><path d="M981.2108,711 L981.2108,719.5 L945.7188,723.5 L981.2108,727.5 L981.2108,736.1328 A0,0 0 0 0 981.2108,736.1328 L1137.2108,736.1328 A0,0 0 0 0 1137.2108,736.1328 L1137.2108,721 L1127.2108,711 L981.2108,711 A0,0 0 0 0 981.2108,711 " fill="#FAFAFA" style="stroke:#181818;stroke-width:0.5;"/><path d="M1127.2108,711 L1127.2108,721 L1137.2108,721 L1127.2108,711 " fill="#FAFAFA" style="stroke:#181818;stroke-width:0.5;"/><text fill="#000000" font-family="&quot;Yu Gothic UI, sans-serif&quot;" font-size="13" lengthAdjust="spacing" textLength="135" x="987.2108" y="728.0669">サーバーレス(Node.js)</text></g><!--MD5=[8179c26118cf9ee16d67ab3f419821e3]
entity 外部サービス1--><g id="elem_外部サービス1"><ellipse cx="538.2108" cy="1039.5" fill="#F1F1F1" rx="12" ry="12" style="stroke:#181818;stroke-width:0.5;"/><polygon fill="#181818" points="534.2108,1027.5,540.2108,1022.5,538.2108,1027.5,540.2108,1032.5,534.2108,1027.5" style="stroke:#181818;stroke-width:1.0;"/><text fill="#000000" font-family="&quot;Yu Gothic UI, sans-serif&quot;" font-size="14" lengthAdjust="spacing" textLength="93" x="491.7108" y="1068.4951">外部サービス1</text></g><g id="elem_GMN864165"><path d="M620.2108,1035 L620.2108,1043.5 L585.0098,1047.5 L620.2108,1051.5 L620.2108,1060.1328 A0,0 0 0 0 620.2108,1060.1328 L782.2108,1060.1328 A0,0 0 0 0 782.2108,1060.1328 L782.2108,1045 L772.2108,1035 L620.2108,1035 A0,0 0 0 0 620.2108,1035 " fill="#FAFAFA" style="stroke:#181818;stroke-width:0.5;"/><path d="M772.2108,1035 L772.2108,1045 L782.2108,1045 L772.2108,1035 " fill="#FAFAFA" style="stroke:#181818;stroke-width:0.5;"/><text fill="#000000" font-family="&quot;Yu Gothic UI, sans-serif&quot;" font-size="13" lengthAdjust="spacing" textLength="141" x="626.2108" y="1052.0669">マイクロサービス(MSA)</text></g><!--MD5=[cea6c37ae3a2324e20f3bff93ecfe4eb]
entity 外部サービス2--><g id="elem_外部サービス2"><ellipse cx="538.2108" cy="1148.5" fill="#F1F1F1" rx="12" ry="12" style="stroke:#181818;stroke-width:0.5;"/><polygon fill="#181818" points="534.2108,1136.5,540.2108,1131.5,538.2108,1136.5,540.2108,1141.5,534.2108,1136.5" style="stroke:#181818;stroke-width:1.0;"/><text fill="#000000" font-family="&quot;Yu Gothic UI, sans-serif&quot;" font-size="14" lengthAdjust="spacing" textLength="92" x="492.2108" y="1177.4951">外部サービス2</text></g><g id="elem_GMN864169"><path d="M619.2108,1144 L619.2108,1152.5 L584.4058,1156.5 L619.2108,1160.5 L619.2108,1169.1328 A0,0 0 0 0 619.2108,1169.1328 L781.2108,1169.1328 A0,0 0 0 0 781.2108,1169.1328 L781.2108,1154 L771.2108,1144 L619.2108,1144 A0,0 0 0 0 619.2108,1144 " fill="#FAFAFA" style="stroke:#181818;stroke-width:0.5;"/><path d="M771.2108,1144 L771.2108,1154 L781.2108,1154 L771.2108,1144 " fill="#FAFAFA" style="stroke:#181818;stroke-width:0.5;"/><text fill="#000000" font-family="&quot;Yu Gothic UI, sans-serif&quot;" font-size="13" lengthAdjust="spacing" textLength="141" x="625.2108" y="1161.0669">マイクロサービス(MSA)</text></g><!--MD5=[eded070b73b34d635c533eabe793fec5]
entity 外部サービス3--><g id="elem_外部サービス3"><ellipse cx="410.2108" cy="1148.5" fill="#F1F1F1" rx="12" ry="12" style="stroke:#181818;stroke-width:0.5;"/><polygon fill="#181818" points="406.2108,1136.5,412.2108,1131.5,410.2108,1136.5,412.2108,1141.5,406.2108,1136.5" style="stroke:#181818;stroke-width:1.0;"/><text fill="#000000" font-family="&quot;Yu Gothic UI, sans-serif&quot;" font-size="14" lengthAdjust="spacing" textLength="93" x="363.7108" y="1177.4951">外部サービス3</text></g><g id="elem_GMN864173"><path d="M166.2108,1144 L166.2108,1169.1328 A0,0 0 0 0 166.2108,1169.1328 L328.2108,1169.1328 A0,0 0 0 0 328.2108,1169.1328 L328.2108,1162 L363.5488,1156.5 L328.2108,1154 L328.2108,1154 L318.2108,1144 L166.2108,1144 A0,0 0 0 0 166.2108,1144 " fill="#FAFAFA" style="stroke:#181818;stroke-width:0.5;"/><path d="M318.2108,1144 L318.2108,1154 L328.2108,1154 L318.2108,1144 " fill="#FAFAFA" style="stroke:#181818;stroke-width:0.5;"/><text fill="#000000" font-family="&quot;Yu Gothic UI, sans-serif&quot;" font-size="13" lengthAdjust="spacing" textLength="141" x="172.2108" y="1161.0669">マイクロサービス(MSA)</text></g><!--MD5=[1f080c6f42456533e4f598bdfb239556]
entity 外部サービス4--><g id="elem_外部サービス4"><ellipse cx="538.2108" cy="1257.5" fill="#F1F1F1" rx="12" ry="12" style="stroke:#181818;stroke-width:0.5;"/><polygon fill="#181818" points="534.2108,1245.5,540.2108,1240.5,538.2108,1245.5,540.2108,1250.5,534.2108,1245.5" style="stroke:#181818;stroke-width:1.0;"/><text fill="#000000" font-family="&quot;Yu Gothic UI, sans-serif&quot;" font-size="14" lengthAdjust="spacing" textLength="92" x="492.2108" y="1286.4951">外部サービス4</text></g><g id="elem_GMN864177"><path d="M295.2108,1253 L295.2108,1278.1328 A0,0 0 0 0 295.2108,1278.1328 L457.2108,1278.1328 A0,0 0 0 0 457.2108,1278.1328 L457.2108,1271 L492.1958,1265.5 L457.2108,1263 L457.2108,1263 L447.2108,1253 L295.2108,1253 A0,0 0 0 0 295.2108,1253 " fill="#FAFAFA" style="stroke:#181818;stroke-width:0.5;"/><path d="M447.2108,1253 L447.2108,1263 L457.2108,1263 L447.2108,1253 " fill="#FAFAFA" style="stroke:#181818;stroke-width:0.5;"/><text fill="#000000" font-family="&quot;Yu Gothic UI, sans-serif&quot;" font-size="13" lengthAdjust="spacing" textLength="141" x="301.2108" y="1270.0669">マイクロサービス(MSA)</text></g><!--MD5=[cb806db31311588c371a8644e7db75c6]
entity カスタマー--><g id="elem_カスタマー"><ellipse cx="592.2108" cy="14" fill="#F1F1F1" rx="8" ry="8" style="stroke:#181818;stroke-width:0.5;"/><path d="M592.2108,22 L592.2108,49 M579.2108,30 L605.2108,30 M592.2108,49 L579.2108,64 M592.2108,49 L605.2108,64 " fill="none" style="stroke:#181818;stroke-width:0.5;"/><text fill="#000000" font-family="&quot;Yu Gothic UI, sans-serif&quot;" font-size="14" lengthAdjust="spacing" textLength="70" x="557.2108" y="78.4951">カスタマー</text></g><!--MD5=[2b3720a1f082f4c725ea3d13ec33a24a]
link カスタマー to ウェブアプリ--><g id="link_カスタマー_ウェブアプリ"><path d="M557.1878,72.97 C536.8608,90.3 511.3718,113.48 491.2108,136.5 C475.3888,154.56 460.0038,176.94 448.9128,194.2 " fill="none" id="カスタマー-to-ウェブアプリ" style="stroke:#181818;stroke-width:1.0;"/><polygon fill="#181818" points="446.1888,198.47,454.398,193.0287,448.8753,194.253,447.6509,188.7303,446.1888,198.47" style="stroke:#181818;stroke-width:1.0;"/><text fill="#000000" font-family="&quot;Yu Gothic UI, sans-serif&quot;" font-size="13" lengthAdjust="spacing" textLength="37" x="516.2108" y="124.5669">React</text></g><!--MD5=[ff56df20fd4070134a32268c1f917e98]
link カスタマー to モバイルアプリ--><g id="link_カスタマー_モバイルアプリ"><path d="M615.8998,81.61 C637.3648,115.23 668.5008,164 687.7688,194.18 " fill="none" id="カスタマー-to-モバイルアプリ" style="stroke:#181818;stroke-width:1.0;"/><polygon fill="#181818" points="690.5228,198.49,689.0591,188.7505,687.8356,194.2735,682.3126,193.0499,690.5228,198.49" style="stroke:#181818;stroke-width:1.0;"/><text fill="#000000" font-family="&quot;Yu Gothic UI, sans-serif&quot;" font-size="13" lengthAdjust="spacing" textLength="82" x="647.2108" y="124.5669">React Native</text></g><!--MD5=[2a0dc4bfc9318f7c2eb1d7471f881473]
link ウェブアプリ to ウェブBFF--><g id="link_ウェブアプリ_ウェブBFF"><path d="M429.2468,246.79 C425.4478,276.64 418.8668,328.347 414.7918,360.365 " fill="none" id="ウェブアプリ-to-ウェブBFF" style="stroke:#181818;stroke-width:1.0;"/><polygon fill="#181818" points="414.1598,365.328,419.2643,356.9052,414.7912,360.368,411.3283,355.8949,414.1598,365.328" style="stroke:#181818;stroke-width:1.0;"/><text fill="#000000" font-family="&quot;Yu Gothic UI, sans-serif&quot;" font-size="13" lengthAdjust="spacing" textLength="78" x="426.2108" y="291.5669">ウェブグラフ</text></g><!--MD5=[c56a6f7fed6efc39f8fdcb82ac4ed18e]
link モバイルアプリ to モバイルBFF--><g id="link_モバイルアプリ_モバイルBFF"><path d="M706.1988,246.79 C707.4598,276.52 709.6408,327.922 711.0008,359.968 " fill="none" id="モバイルアプリ-to-モバイルBFF" style="stroke:#181818;stroke-width:1.0;"/><polygon fill="#181818" points="711.2278,365.328,714.841,356.1659,711.0149,360.3325,706.8483,356.5064,711.2278,365.328" style="stroke:#181818;stroke-width:1.0;"/><text fill="#000000" font-family="&quot;Yu Gothic UI, sans-serif&quot;" font-size="13" lengthAdjust="spacing" textLength="91" x="709.2108" y="291.5669">モバイルグラフ</text></g><!--MD5=[eb165f5818ea52beef92f5eda97d8787]
link ウェブBFF to ゲートウェイ--><g id="link_ウェブBFF_ゲートウェイ"><path d="M430.6898,413.791 C455.8608,443.886 499.6148,496.2 526.3378,528.151 " fill="none" id="ウェブBFF-to-ゲートウェイ" style="stroke:#181818;stroke-width:1.0;"/><polygon fill="#181818" points="529.8308,532.328,527.1247,522.8582,526.6228,528.4928,520.9883,527.9909,529.8308,532.328" style="stroke:#181818;stroke-width:1.0;"/><text fill="#000000" font-family="&quot;Yu Gothic UI, sans-serif&quot;" font-size="13" lengthAdjust="spacing" textLength="131" x="469.2108" y="458.5669">統合グラフ(GraphQL)</text></g><!--MD5=[0b53c9f9cd86287e9112ead2a833a562]
link モバイルBFF to ゲートウェイ--><g id="link_モバイルBFF_ゲートウェイ"><path d="M683.5348,413.618 C673.9408,421.279 663.1578,429.811 653.2108,437.5 C633.8708,452.45 626.2448,452.968 609.2108,470.5 C592.2698,487.937 576.5568,510.535 565.4638,528.046 " fill="none" id="モバイルBFF-to-ゲートウェイ" style="stroke:#181818;stroke-width:1.0;"/><polygon fill="#181818" points="562.7458,532.383,570.9156,526.8826,565.4018,528.1468,564.1376,522.633,562.7458,532.383" style="stroke:#181818;stroke-width:1.0;"/><text fill="#000000" font-family="&quot;Yu Gothic UI, sans-serif&quot;" font-size="13" lengthAdjust="spacing" textLength="131" x="643.2108" y="458.5669">統合グラフ(GraphQL)</text></g><!--MD5=[dda50eb205a864ec87beb73c2ca10c7e]
reverse link ゲートウェイ to スキーマレジストリ--><g id="link_ゲートウェイ_スキーマレジストリ"><path d="M501.9938,556.5 C469.9448,556.5 427.2058,556.5 392.2538,556.5 " fill="none" id="ゲートウェイ-backto-スキーマレジストリ" style="stroke:#181818;stroke-width:1.0;"/><polygon fill="#181818" points="507.0428,556.5,498.0428,552.5,502.0428,556.5,498.0428,560.5,507.0428,556.5" style="stroke:#181818;stroke-width:1.0;"/><text fill="#000000" font-family="&quot;Yu Gothic UI, sans-serif&quot;" font-size="13" lengthAdjust="spacing" textLength="78" x="410.7108" y="549.5669">統合スキーマ</text></g><!--MD5=[7cf2dcea19f206573566ce1f0a1988f4]
reverse link メッセージブローカー to ゲートウェイ--><g id="link_メッセージブローカー_ゲートウェイ"><path d="M180.8858,528.066 C196.5498,508.014 220.4128,482.648 248.2108,470.5 C313.7778,441.845 340.6748,449.932 409.2108,470.5 C451.2858,483.127 493.4018,511.683 520.2838,532.435 " fill="none" id="メッセージブローカー-backto-ゲートウェイ" style="stroke:#181818;stroke-width:1.0;stroke-dasharray:7.0,7.0;"/><polygon fill="#181818" points="177.6688,532.257,186.322,527.5536,180.7134,528.2909,179.9761,522.6822,177.6688,532.257" style="stroke:#181818;stroke-width:1.0;"/><text fill="#000000" font-family="&quot;Yu Gothic UI, sans-serif&quot;" font-size="13" lengthAdjust="spacing" textLength="52" x="294.2108" y="458.5669">イベント</text></g><!--MD5=[dc515b0b3b13c9c427769259afc9aed9]
link ゲートウェイ to リゾルバC--><g id="link_ゲートウェイ_リゾルバC"><path d="M506.9098,576.417 C459.2088,597.75 388.2108,629.5 388.2108,629.5 C359.7388,637.4 347.4578,622.148 322.2108,637.5 C300.6808,650.592 285.2688,675.06 275.7688,694.395 " fill="none" id="ゲートウェイ-to-リゾルバC" style="stroke:#181818;stroke-width:1.0;"/><polygon fill="#181818" points="273.4808,699.189,280.9661,692.7882,275.6336,694.6762,273.7456,689.3437,273.4808,699.189" style="stroke:#181818;stroke-width:1.0;"/><text fill="#000000" font-family="&quot;Yu Gothic UI, sans-serif&quot;" font-size="13" lengthAdjust="spacing" textLength="131" x="424.2108" y="625.5669">サブグラフ(GraphQL)</text></g><!--MD5=[6aea1cfd0077bda2807716df058e1340]
link メッセージブローカー to リゾルバC--><g id="link_メッセージブローカー_リゾルバC"><path d="M164.2308,585.539 C167.2388,600.458 173.2398,618.038 185.2108,629.5 C194.5588,638.451 202.9418,629.623 213.2108,637.5 C232.2188,652.08 245.6348,675.937 253.9198,694.67 " fill="none" id="メッセージブローカー-リゾルバC" style="stroke:#181818;stroke-width:1.0;stroke-dasharray:7.0,7.0;"/><polygon fill="#181818" points="255.9158,699.314,256.0363,689.4659,253.9412,694.7204,248.6866,692.6252,255.9158,699.314" style="stroke:#181818;stroke-width:1.0;"/><polygon fill="#181818" points="163.3208,580.594,161.0146,590.169,164.2251,585.5115,168.8826,588.7221,163.3208,580.594" style="stroke:#181818;stroke-width:1.0;"/><text fill="#000000" font-family="&quot;Yu Gothic UI, sans-serif&quot;" font-size="13" lengthAdjust="spacing" textLength="104" x="186.2108" y="625.5669">イベントドリブン</text></g><!--MD5=[56b641e4fa3bd5eb32976c1871dc9831]
link リゾルバC to サービスC--><g id="link_リゾルバC_サービスC"><path d="M263.0548,747.618 C261.8388,771.937 259.9248,810.226 258.6208,836.303 " fill="none" id="リゾルバC-to-サービスC" style="stroke:#181818;stroke-width:1.0;"/><polygon fill="#181818" points="258.3688,841.348,262.8138,832.5593,258.6188,836.3543,254.8238,832.1592,258.3688,841.348" style="stroke:#181818;stroke-width:1.0;"/><text fill="#000000" font-family="&quot;Yu Gothic UI, sans-serif&quot;" font-size="13" lengthAdjust="spacing" textLength="169" x="263.2108" y="792.5669">トランザクションデータなど</text><text fill="#000000" font-family="&quot;Yu Gothic UI, sans-serif&quot;" font-size="13" lengthAdjust="spacing" textLength="114" x="290.7108" y="807.6997">(スキーマ変換あり)</text></g><!--MD5=[7f5a91420b9535b237f039a8a7fb99e9]
link サービスC to キャッシュC--><g id="link_サービスC_キャッシュC"><path d="M295.6718,865.5 C332.2578,865.5 387.3038,865.5 425.9778,865.5 " fill="none" id="サービスC-キャッシュC" style="stroke:#181818;stroke-width:1.0;"/><polygon fill="#181818" points="431.0848,865.5,422.0848,861.5,426.0848,865.5,422.0848,869.5,431.0848,865.5" style="stroke:#181818;stroke-width:1.0;"/><polygon fill="#181818" points="290.6488,865.5,299.6488,869.5,295.6488,865.5,299.6488,861.5,290.6488,865.5" style="stroke:#181818;stroke-width:1.0;"/><text fill="#000000" font-family="&quot;Yu Gothic UI, sans-serif&quot;" font-size="13" lengthAdjust="spacing" textLength="104" x="308.7108" y="858.5669">キャッシュデータ</text></g><!--MD5=[d695f399d7c942cdb437b0b4a610988a]
link リゾルバC to スキーマレジストリ--><g id="link_リゾルバC_スキーマレジストリ"><path d="M272.1188,699.123 C279.8378,676.716 292.1498,642.036 304.2108,612.5 C307.8578,603.57 312.1108,593.957 316.0638,585.306 " fill="none" id="リゾルバC-to-スキーマレジストリ" style="stroke:#181818;stroke-width:1.0;stroke-dasharray:7.0,7.0;"/><polygon fill="#181818" points="318.2238,580.608,310.83,587.1143,316.1352,585.1509,318.0986,590.4561,318.2238,580.608" style="stroke:#181818;stroke-width:1.0;"/><text fill="#000000" font-family="&quot;Yu Gothic UI, sans-serif&quot;" font-size="13" lengthAdjust="spacing" textLength="78" x="305.2108" y="625.5669">サブスキーマ</text></g><!--MD5=[23e86a97295dd72d14a634fa4e5ea729]
link ゲートウェイ to リゾルバS--><g id="link_ゲートウェイ_リゾルバS"><path d="M556.4098,580.791 C565.6358,610.64 581.6178,662.347 591.5148,694.365 " fill="none" id="ゲートウェイ-to-リゾルバS" style="stroke:#181818;stroke-width:1.0;"/><polygon fill="#181818" points="593.0488,699.328,594.2115,689.548,591.5717,694.5511,586.5686,691.9113,593.0488,699.328" style="stroke:#181818;stroke-width:1.0;"/><text fill="#000000" font-family="&quot;Yu Gothic UI, sans-serif&quot;" font-size="13" lengthAdjust="spacing" textLength="131" x="571.2108" y="625.5669">サブグラフ(GraphQL)</text></g><!--MD5=[3b995ebc9d347ae2c62ceaa210445950]
link リゾルバS to サービスS--><g id="link_リゾルバS_サービスS"><path d="M600.2108,747.618 C600.2108,771.937 600.2108,810.226 600.2108,836.303 " fill="none" id="リゾルバS-to-サービスS" style="stroke:#181818;stroke-width:1.0;"/><polygon fill="#181818" points="600.2108,841.348,604.2108,832.348,600.2108,836.348,596.2108,832.348,600.2108,841.348" style="stroke:#181818;stroke-width:1.0;"/><text fill="#000000" font-family="&quot;Yu Gothic UI, sans-serif&quot;" font-size="13" lengthAdjust="spacing" textLength="104" x="606.2108" y="792.5669">マスタデータなど</text><text fill="#000000" font-family="&quot;Yu Gothic UI, sans-serif&quot;" font-size="13" lengthAdjust="spacing" textLength="114" x="601.2108" y="807.6997">(スキーマ変換あり)</text></g><!--MD5=[ef5f8f21a6ef50f783aa3069635e4fb3]
link ゲートウェイ to リゾルバP--><g id="link_ゲートウェイ_リゾルバP"><path d="M571.9798,580.524 C582.4268,589.626 595.5248,599.17 609.2108,604.5 C630.3968,612.751 688.6808,609.443 711.2108,612.5 C769.0808,620.351 789.7148,608.163 840.2108,637.5 C863.9788,651.309 883.7508,675.773 896.6958,694.921 " fill="none" id="ゲートウェイ-to-リゾルバP" style="stroke:#181818;stroke-width:1.0;"/><polygon fill="#181818" points="899.5138,699.167,897.8681,689.4566,896.7482,695.0015,891.2033,693.8815,899.5138,699.167" style="stroke:#181818;stroke-width:1.0;"/><text fill="#000000" font-family="&quot;Yu Gothic UI, sans-serif&quot;" font-size="13" lengthAdjust="spacing" textLength="131" x="824.2108" y="625.5669">サブグラフ(GraphQL)</text></g><!--MD5=[c2896e22c2bbba6c24e588045001281a]
link 外部サービス1 to 外部サービス2--><g id="link_外部サービス1_外部サービス2"><path d="M538.2108,1071.717 C538.2108,1089.665 538.2108,1114.392 538.2108,1132.328 " fill="none" id="外部サービス1-外部サービス2" style="stroke:#181818;stroke-width:1.0;"/></g><!--MD5=[efa453978ac503e1d28b5652c3a4a1f0]
link 外部サービス1 to 外部サービス3--><g id="link_外部サービス1_外部サービス3"><path d="M510.4368,1071.717 C488.9668,1089.665 459.3868,1114.392 437.9308,1132.328 " fill="none" id="外部サービス1-外部サービス3" style="stroke:#181818;stroke-width:1.0;"/></g><!--MD5=[f636de104e5e6613b96a9cd2266ad925]
link 外部サービス1 to 外部サービス4--><g id="link_外部サービス1_外部サービス4"><path d="M584.9668,1065.567 C590.7608,1067.604 596.6138,1069.624 602.2108,1071.5 C688.7148,1100.49 744.1278,1059.026 798.2108,1132.5 C856.9548,1212.305 673.8428,1247.2434 584.3978,1259.2683 " fill="none" id="外部サービス1-外部サービス4" style="stroke:#181818;stroke-width:1.0;"/></g><!--MD5=[2e8870d7956a8f8fbbea0b19e37d6c60]
link 外部サービス2 to 外部サービス4--><g id="link_外部サービス2_外部サービス4"><path d="M538.2108,1180.717 C538.2108,1198.665 538.2108,1223.3918 538.2108,1241.3279 " fill="none" id="外部サービス2-外部サービス4" style="stroke:#181818;stroke-width:1.0;"/></g><!--MD5=[a8c0c3663541c8d181b09b09aa479880]
link 外部サービス3 to 外部サービス4--><g id="link_外部サービス3_外部サービス4"><path d="M437.9848,1180.717 C459.4548,1198.665 489.0348,1223.3918 510.4908,1241.3279 " fill="none" id="外部サービス3-外部サービス4" style="stroke:#181818;stroke-width:1.0;"/></g><!--MD5=[eabeef834ad339a41239855ed3cedb9b]
link 外部サービス3 to 外部サービス2--><g id="link_外部サービス3_外部サービス2"><path d="M457.2108,1156.5 C468.8128,1156.5 480.4138,1156.5 492.0158,1156.5 " fill="none" id="外部サービス3-外部サービス2" style="stroke:#181818;stroke-width:1.0;"/></g><!--MD5=[a51597c6a44fba19df4090810b7c5e5d]
link サービスC to 外部サービス1--><g id="link_サービスC_外部サービス1"><path d="M290.2648,885.552 C322.4918,904.32 372.7178,934.081 415.2108,961.5 C444.7978,980.591 477.5658,1003.316 501.8358,1020.464 " fill="none" id="サービスC-to-外部サービス1" style="stroke:#181818;stroke-width:1.0;stroke-dasharray:7.0,7.0;"/><polygon fill="#181818" points="505.9598,1023.382,500.9223,1014.9189,501.8778,1020.4945,496.3022,1021.45,505.9598,1023.382" style="stroke:#181818;stroke-width:1.0;"/><text fill="#000000" font-family="&quot;Yu Gothic UI, sans-serif&quot;" font-size="13" lengthAdjust="spacing" textLength="134" x="404.2108" y="942.0669">追加データ取得(REST)</text></g><!--MD5=[b30512f86809ef261f2dca0eec6f43e0]
link サービスC to 外部サービス2--><g id="link_サービスC_外部サービス2"><path d="M260.3898,889.662 C267.2618,931.324 287.2158,1019.405 338.2108,1071.5 C349.2388,1082.766 431.4068,1115.232 486.9318,1136.344 " fill="none" id="サービスC-to-外部サービス2" style="stroke:#181818;stroke-width:1.0;stroke-dasharray:7.0,7.0;"/><polygon fill="#181818" points="491.8838,1138.224,484.8891,1131.2904,487.2092,1136.4496,482.05,1138.7697,491.8838,1138.224" style="stroke:#181818;stroke-width:1.0;"/><text fill="#000000" font-family="&quot;Yu Gothic UI, sans-serif&quot;" font-size="13" lengthAdjust="spacing" textLength="134" x="339.2108" y="1052.0669">追加データ取得(REST)</text></g><!--MD5=[8bcdb3859d8575b600ad99f1788c760e]
link サービスS to 外部サービス1--><g id="link_サービスS_外部サービス1"><path d="M592.2328,889.663 C580.8858,922.606 560.1118,982.917 547.8968,1018.38 " fill="none" id="サービスS-to-外部サービス1" style="stroke:#181818;stroke-width:1.0;"/><polygon fill="#181818" points="546.1588,1023.426,552.8721,1016.2197,547.7874,1018.6987,545.3084,1013.6139,546.1588,1023.426" style="stroke:#181818;stroke-width:1.0;"/><text fill="#000000" font-family="&quot;Yu Gothic UI, sans-serif&quot;" font-size="13" lengthAdjust="spacing" textLength="144" x="581.2108" y="942.0669">データ取得&amp;更新(REST)</text></g><!--MD5=[eea4a9aa745c87091eb329c2d8f3565e]
link リゾルバP to 外部サービス2--><g id="link_リゾルバP_外部サービス2"><path d="M912.5758,747.666 C909.6058,809.424 892.8838,979.551 799.2108,1071.5 C733.4978,1136.004 688.4878,1103.146 601.2108,1132.5 C597.2448,1133.834 593.1508,1135.247 589.0428,1136.69 " fill="none" id="リゾルバP-to-外部サービス2" style="stroke:#181818;stroke-width:1.0;"/><polygon fill="#181818" points="584.2208,1138.395,594.0394,1139.1655,588.9347,1136.728,591.3722,1131.6232,584.2208,1138.395" style="stroke:#181818;stroke-width:1.0;"/><text fill="#000000" font-family="&quot;Yu Gothic UI, sans-serif&quot;" font-size="13" lengthAdjust="spacing" textLength="170" x="884.2108" y="934.5669">直接データ取得&amp;更新(REST)</text><text fill="#000000" font-family="&quot;Yu Gothic UI, sans-serif&quot;" font-size="13" lengthAdjust="spacing" textLength="114" x="912.2108" y="949.6997">(スキーマ変換なし)</text></g><!--MD5=[839a08e5fe06eb5693a0b5100cf36cf4]
@startuml
skinparam monochrome true
skinparam handwritten false
skinparam defaultFontName "Yu Gothic UI, sans-serif"
'left to right direction
actor カスタマー
cloud フロントエンド {
    boundary ウェブアプリ
    note right: ウェブブラウザ
    boundary モバイルアプリ
    note right: iOS/Android
    カスタマー - -> ウェブアプリ : React
    カスタマー - -> モバイルアプリ : React Native
}
cloud BFF {
    control ウェブBFF
    note right: サーバーレス(Node.js)
    control モバイルBFF
    note right: サーバーレス(Node.js)
    ウェブアプリ - -> ウェブBFF : ウェブグラフ
    モバイルアプリ - -> モバイルBFF : モバイルグラフ
}
cloud ワークフローサービス {
    control ゲートウェイ
    note right: GraphQL Federation
    control スキーマレジストリ
    control メッセージブローカー
    ウェブBFF - -> ゲートウェイ : 統合グラフ(GraphQL)
    モバイルBFF - -> ゲートウェイ : 統合グラフ(GraphQL)
    ゲートウェイ <- スキーマレジストリ : 統合スキーマ
    メッセージブローカー <. ゲートウェイ : イベント
}
cloud コアドメインサービス {
    control リゾルバC
    note left: サーバーレス(Node.js)
    control サービスC
    note left: サーバーレス(Node.js)
    entity キャッシュC
    note top: データベース(PrismaDB)
    ゲートウェイ - -> リゾルバC : サブグラフ(GraphQL)
    メッセージブローカー <..> リゾルバC : イベントドリブン
    リゾルバC - -> サービスC : トランザクションデータなど\n(スキーマ変換あり)
    サービスC <-> キャッシュC : キャッシュデータ
    リゾルバC ..> スキーマレジストリ : サブスキーマ
}
cloud サブドメインサービス {
    control リゾルバS
    note right: サーバーレス(Node.js)
    control サービスS
    note right: サーバーレス(Node.js)
    ゲートウェイ - -> リゾルバS : サブグラフ(GraphQL)
    リゾルバS - -> サービスS : マスタデータなど\n(スキーマ変換あり)
}
cloud パススルーサービス {
    control リゾルバP
    note right: サーバーレス(Node.js)
    ゲートウェイ - -> リゾルバP : サブグラフ(GraphQL)
}
cloud 外部サービス {
    control 外部サービス1
    note right: マイクロサービス(MSA)
    control 外部サービス2
    note right: マイクロサービス(MSA)
    control 外部サービス3
    note left: マイクロサービス(MSA)
    control 外部サービス4
    note left: マイクロサービス(MSA)
    外部サービス1 - 外部サービス2
    外部サービス1 - - 外部サービス3
    外部サービス1 - 外部サービス4
    外部サービス2 - - 外部サービス4
    外部サービス3 - 外部サービス4
    外部サービス3 - 外部サービス2
}
サービスC ..> 外部サービス1 : 追加データ取得(REST)
サービスC ..> 外部サービス2 : 追加データ取得(REST)
サービスS - -> 外部サービス1 : データ取得&更新(REST)
リゾルバP - -> 外部サービス2 : 直接データ取得&更新(REST)\n(スキーマ変換なし)
@enduml

@startuml
skinparam monochrome true
skinparam handwritten false
skinparam defaultFontName "Yu Gothic UI, sans-serif"
actor カスタマー
cloud フロントエンド {
    boundary ウェブアプリ
    note right: ウェブブラウザ
    boundary モバイルアプリ
    note right: iOS/Android
    カスタマー - -> ウェブアプリ : React
    カスタマー - -> モバイルアプリ : React Native
}
cloud BFF {
    control ウェブBFF
    note right: サーバーレス(Node.js)
    control モバイルBFF
    note right: サーバーレス(Node.js)
    ウェブアプリ - -> ウェブBFF : ウェブグラフ
    モバイルアプリ - -> モバイルBFF : モバイルグラフ
}
cloud ワークフローサービス {
    control ゲートウェイ
    note right: GraphQL Federation
    control スキーマレジストリ
    control メッセージブローカー
    ウェブBFF - -> ゲートウェイ : 統合グラフ(GraphQL)
    モバイルBFF - -> ゲートウェイ : 統合グラフ(GraphQL)
    ゲートウェイ <- スキーマレジストリ : 統合スキーマ
    メッセージブローカー <. ゲートウェイ : イベント
}
cloud コアドメインサービス {
    control リゾルバC
    note left: サーバーレス(Node.js)
    control サービスC
    note left: サーバーレス(Node.js)
    entity キャッシュC
    note top: データベース(PrismaDB)
    ゲートウェイ - -> リゾルバC : サブグラフ(GraphQL)
    メッセージブローカー <..> リゾルバC : イベントドリブン
    リゾルバC - -> サービスC : トランザクションデータなど\n(スキーマ変換あり)
    サービスC <-> キャッシュC : キャッシュデータ
    リゾルバC ..> スキーマレジストリ : サブスキーマ
}
cloud サブドメインサービス {
    control リゾルバS
    note right: サーバーレス(Node.js)
    control サービスS
    note right: サーバーレス(Node.js)
    ゲートウェイ - -> リゾルバS : サブグラフ(GraphQL)
    リゾルバS - -> サービスS : マスタデータなど\n(スキーマ変換あり)
}
cloud パススルーサービス {
    control リゾルバP
    note right: サーバーレス(Node.js)
    ゲートウェイ - -> リゾルバP : サブグラフ(GraphQL)
}
cloud 外部サービス {
    control 外部サービス1
    note right: マイクロサービス(MSA)
    control 外部サービス2
    note right: マイクロサービス(MSA)
    control 外部サービス3
    note left: マイクロサービス(MSA)
    control 外部サービス4
    note left: マイクロサービス(MSA)
    外部サービス1 - 外部サービス2
    外部サービス1 - - 外部サービス3
    外部サービス1 - 外部サービス4
    外部サービス2 - - 外部サービス4
    外部サービス3 - 外部サービス4
    外部サービス3 - 外部サービス2
}
サービスC ..> 外部サービス1 : 追加データ取得(REST)
サービスC ..> 外部サービス2 : 追加データ取得(REST)
サービスS - -> 外部サービス1 : データ取得&更新(REST)
リゾルバP - -> 外部サービス2 : 直接データ取得&更新(REST)\n(スキーマ変換なし)
@enduml

PlantUML version 1.2022.3beta2(Unknown compile time)
(GPL source distribution)
Java Runtime: Java(TM) SE Runtime Environment
JVM: Java HotSpot(TM) 64-Bit Server VM
Default Encoding: UTF-8
Language: en
Country: US
--></g></svg>