<?xml version="1.0" encoding="UTF-8" standalone="no"?><svg xmlns="http://www.w3.org/2000/svg" xmlns:xlink="http://www.w3.org/1999/xlink" contentStyleType="text/css" height="226px" preserveAspectRatio="none" style="width:612px;height:226px;background:#FFFFFF;" version="1.1" viewBox="0 0 612 226" width="612px" zoomAndPan="magnify"><defs/><g><!--MD5=[fee662a292a0353a69bd162820bae93b]
entity User--><g id="elem_User"><ellipse cx="21.5" cy="84.5" fill="#F1F1F1" rx="8" ry="8" style="stroke:#181818;stroke-width:0.5;"/><path d="M21.5,92.5 L21.5,119.5 M8.5,100.5 L34.5,100.5 M21.5,119.5 L8.5,134.5 M21.5,119.5 L34.5,134.5 " fill="none" style="stroke:#181818;stroke-width:0.5;"/><text fill="#000000" font-family="&quot;Yu Gothic UI, sans-serif&quot;" font-size="14" lengthAdjust="spacing" textLength="31" x="6" y="148.9951">User</text></g><!--MD5=[dbbf1b939b8a2e00b878a83f7eefb21c]
entity Firebase--><g id="elem_Firebase"><path d="M146,94 L146,118 M146,106 L163,106 " fill="none" style="stroke:#181818;stroke-width:0.5;"/><ellipse cx="175" cy="106" fill="#F1F1F1" rx="12" ry="12" style="stroke:#181818;stroke-width:0.5;"/><text fill="#000000" font-family="&quot;Yu Gothic UI, sans-serif&quot;" font-size="14" lengthAdjust="spacing" textLength="61" x="136" y="134.9951">Firebase</text></g><!--MD5=[c480bb8b18544955cd5fcd722ac171ac]
entity AppEngine--><g id="elem_AppEngine"><ellipse cx="354.5" cy="106" fill="#F1F1F1" rx="12" ry="12" style="stroke:#181818;stroke-width:0.5;"/><polygon fill="#181818" points="350.5,94,356.5,89,354.5,94,356.5,99,350.5,94" style="stroke:#181818;stroke-width:1.0;"/><text fill="#000000" font-family="&quot;Yu Gothic UI, sans-serif&quot;" font-size="14" lengthAdjust="spacing" textLength="79" x="315" y="134.9951">AppEngine</text></g><!--MD5=[79d8644ee98e1f32648dbfb45c20472b]
entity AppEngine1--><g id="elem_AppEngine1"><ellipse cx="561" cy="23" fill="#F1F1F1" rx="12" ry="12" style="stroke:#181818;stroke-width:0.5;"/><polygon fill="#181818" points="557,11,563,6,561,11,563,16,557,11" style="stroke:#181818;stroke-width:1.0;"/><text fill="#000000" font-family="&quot;Yu Gothic UI, sans-serif&quot;" font-size="14" lengthAdjust="spacing" textLength="88" x="517" y="51.9951">AppEngine1</text></g><!--MD5=[82783dd106a33d9b9082675e4b91517f]
entity AppEngine2--><g id="elem_AppEngine2"><ellipse cx="561" cy="106" fill="#F1F1F1" rx="12" ry="12" style="stroke:#181818;stroke-width:0.5;"/><polygon fill="#181818" points="557,94,563,89,561,94,563,99,557,94" style="stroke:#181818;stroke-width:1.0;"/><text fill="#000000" font-family="&quot;Yu Gothic UI, sans-serif&quot;" font-size="14" lengthAdjust="spacing" textLength="87" x="517.5" y="134.9951">AppEngine2</text></g><!--MD5=[e3791e7d3f76810cf721680bad600bc3]
entity AppEngine3--><g id="elem_AppEngine3"><ellipse cx="561" cy="189" fill="#F1F1F1" rx="12" ry="12" style="stroke:#181818;stroke-width:0.5;"/><polygon fill="#181818" points="557,177,563,172,561,177,563,182,557,177" style="stroke:#181818;stroke-width:1.0;"/><text fill="#000000" font-family="&quot;Yu Gothic UI, sans-serif&quot;" font-size="14" lengthAdjust="spacing" textLength="88" x="517" y="217.9951">AppEngine3</text></g><!--MD5=[3defac077899180cded6cb6df52a176f]
link User to Firebase--><g id="link_User_Firebase"><path d="M37.2649,114 C60.4569,114 105.8753,114 135.958,114 " fill="none" id="User-Firebase" style="stroke:#181818;stroke-width:1.0;"/><text fill="#000000" font-family="&quot;Yu Gothic UI, sans-serif&quot;" font-size="13" lengthAdjust="spacing" textLength="37" x="68" y="110.0669">React</text></g><!--MD5=[6f01b3d52ba66fc2697860c6a44ed52e]
link Firebase to AppEngine--><g id="link_Firebase_AppEngine"><path d="M197.384,114 C229.321,114 280.06,114 314.977,114 " fill="none" id="Firebase-AppEngine" style="stroke:#181818;stroke-width:1.0;"/><text fill="#000000" font-family="&quot;Yu Gothic UI, sans-serif&quot;" font-size="13" lengthAdjust="spacing" textLength="56" x="228" y="110.0669">GraphQL</text></g><!--MD5=[85d7c24d505c822d09c3e1e440801e55]
link AppEngine to AppEngine1--><g id="link_AppEngine_AppEngine1"><path d="M394.446,98.193 C429.444,83.989 480.754,63.163 516.957,48.47 " fill="none" id="AppEngine-AppEngine1" style="stroke:#181818;stroke-width:1.0;"/><text fill="#000000" font-family="&quot;Yu Gothic UI, sans-serif&quot;" font-size="13" lengthAdjust="spacing" textLength="33" x="439" y="59.0669">REST</text></g><!--MD5=[3a070f3777a906fcaa2df511c5f02ccd]
link AppEngine to AppEngine2--><g id="link_AppEngine_AppEngine2"><path d="M394.446,114 C429.56,114 481.094,114 517.316,114 " fill="none" id="AppEngine-AppEngine2" style="stroke:#181818;stroke-width:1.0;"/><text fill="#000000" font-family="&quot;Yu Gothic UI, sans-serif&quot;" font-size="13" lengthAdjust="spacing" textLength="61" x="425" y="110.0669">Functions</text></g><!--MD5=[40dd7e3d5b89d3428ef907f291a1bd25]
link AppEngine to AppEngine3--><g id="link_AppEngine_AppEngine3"><path d="M394.446,129.807 C429.444,144.0115 480.754,164.8366 516.957,179.5301 " fill="none" id="AppEngine-AppEngine3" style="stroke:#181818;stroke-width:1.0;"/><text fill="#000000" font-family="&quot;Yu Gothic UI, sans-serif&quot;" font-size="13" lengthAdjust="spacing" textLength="60" x="425.5" y="140.0669">Workflow</text></g><!--MD5=[4e1cf780219cf3cf3749b03cadab476c]
@startuml
skinparam monochrome true
skinparam handwritten false
skinparam defaultFontName "Yu Gothic UI, sans-serif"
left to right direction
actor User
boundary Firebase
control AppEngine
control AppEngine1
control AppEngine2
control AppEngine3
User - - Firebase : React
Firebase - - AppEngine : GraphQL
AppEngine - - AppEngine1 : REST
AppEngine - - AppEngine2 : Functions
AppEngine - - AppEngine3 : Workflow
@enduml

PlantUML version 1.2022.3beta2(Unknown compile time)
(GPL source distribution)
Java Runtime: Java(TM) SE Runtime Environment
JVM: Java HotSpot(TM) 64-Bit Server VM
Default Encoding: UTF-8
Language: en
Country: US
--></g></svg>