<?xml version="1.0" encoding="UTF-8" standalone="no"?><svg xmlns="http://www.w3.org/2000/svg" xmlns:xlink="http://www.w3.org/1999/xlink" contentStyleType="text/css" height="457px" preserveAspectRatio="none" style="width:1416px;height:457px;background:#FFFFFF;" version="1.1" viewBox="0 0 1416 457" width="1416px" zoomAndPan="magnify"><defs/><g><!--MD5=[49cd22768e1054f63137ca6d126948cc]
cluster フロントエンド--><g id="cluster_フロントエンド"><path d="M221.556,202.8703 C225.6652,195.6221 230.5558,196.5682 235.313,202.1769 C238.6062,196.3808 244.1018,196.2945 247.7376,201.8002 C250.669,195.215 255.5275,195.9333 259.6393,200.5454 C263.09,193.5272 267.6731,192.7959 273.0949,198.4529 C277.3191,193.489 282.1241,193.9398 285.6129,199.3411 C290.7352,194.3018 294.6155,194.297 298.1653,201.0193 C302.4973,195.3781 306.3669,194.4791 310.4133,201.3 C318.5246,195.7355 327.546,197.8172 328,209.2315 C329.1152,209.6735 329.2788,210.2591 328.4325,211.1445 C334.6985,213.4229 334.8933,217.3523 331.1903,222.1328 C336.7411,225.6862 338.9307,230.8601 332.0077,235.1942 C339.2774,238.2513 340.289,243.1518 334.1173,248.3624 C339.7548,252.1839 339.6234,256.6445 334.1655,260.51 C342.3731,264.4734 342.846,269.0299 335.6513,274.6156 C341.3603,277.6598 343.4881,282.0047 337.6846,286.9472 C342.8887,289.8506 344.1514,295.737 337.8818,298.8308 C343.6233,304.2208 342.1959,309.193 334.7251,311.2153 C341.174,314.54 340.3915,319.9984 334.7591,323.3569 C340.7781,329.2298 338.868,333.9291 331.4578,336.4039 C338.4464,341.2317 336.5155,346.4243 330.5008,350.3605 C336.8087,361.4754 332.5143,366.5915 321,368.2315 C322.0501,367.6432 322.9325,368.0183 322.9086,369.3175 C319.3819,376.7507 312.5834,375.9133 308.7316,369.6541 C306.443,376.0719 302.3129,375.6158 297.9496,371.8509 C294.4926,377.8842 288.1801,377.8826 284.4844,372.1235 C281.6316,378.751 278.0906,379.8139 272.935,374.3173 C268.5495,378.7743 263.0628,378.4496 260.5721,372.1412 C255.8494,379.3808 250.4799,378.8237 246.0186,371.8731 C242.0795,376.7481 238.2605,376.9398 235.4221,370.8129 C222.8555,379.2873 217.1181,373.8822 214,361.2315 C215.2406,361.312 215.6744,361.9005 215.3606,363.108 C208.1235,361.225 207.0251,354.9966 212.9083,350.5512 C205.2463,346.0686 206.5018,341.368 212.4889,336.4786 C207.1544,333.7889 206.9002,328.2781 211.4478,324.714 C205.1423,321.9996 205.2925,315.7352 210.3046,312.003 C202.5803,308.652 202.7862,302.4472 209.4857,298.2381 C203.9687,296.0389 204.0096,290.5588 208.2903,287.2898 C200.9739,283.6868 201.923,277.3556 207.7409,273.2391 C203.6346,268.7681 202.9698,264.6367 209.453,261.7429 C202.9199,256.7627 203.2268,251.5553 210.5234,247.6235 C205.4926,243.3555 205.6391,237.6697 212.2172,234.9538 C207.6043,230.4754 207.9807,225.7604 214.6778,223.7704 C205.4585,214.1876 209.7514,205.8065 221,202.2315 C221.4463,202.1793 221.7124,202.3979 221.556,202.8703 " style="stroke:#181818;stroke-width:1.0;fill:none;"/><text fill="#000000" font-family="&quot;Yu Gothic UI, sans-serif&quot;" font-size="14" font-weight="bold" lengthAdjust="spacing" textLength="105" x="218.5" y="220.2266">フロントエンド</text></g><!--MD5=[a0df374b8e4af26d68f70c554b40fe68]
cluster フェデレーション--><g id="cluster_フェデレーション"><path d="M445.2948,253.2758 C449.3406,245.1002 454.0156,244.7466 459.5501,251.8904 C461.8857,246.8332 467.1404,245.483 470.4561,250.8667 C473.9977,245.399 478.8005,243.727 483.0001,250.1739 C485.3649,242.5136 492.0178,241.0492 497.0021,247.5913 C500.3613,240.1847 505.1355,240.4364 509.981,246.1172 C514.4194,240.9192 519.8095,242.1273 521.8175,248.5852 C526.5786,242.8851 531.7957,243.1197 535.4341,249.8182 C539.0539,243.9778 544.2515,243.9091 547.2102,250.4471 C553.5058,244.2812 558.3621,245.8639 561.9455,253.3703 C570.6143,247.5692 577.0428,250.1403 579.5,260.2315 C580.0278,260.2835 580.1233,260.6845 579.8552,261.0726 C586.8248,264.4215 587.988,271.2941 581.7168,276.2655 C587.9052,279.1588 588.3324,284.0465 583.5499,288.5738 C590.5504,293.0027 590.6679,298.922 583.3558,303.1603 C590.7988,307.4189 590.4285,313.5923 583.3144,317.8097 C591.0162,321.2858 591.0422,325.7908 585.5219,331.4125 C592.9865,336.4666 591.5349,340.8761 585.1436,345.5596 C593.163,349.5124 592.52,357.0595 585.3353,361.1987 C590.2324,366.382 589.3328,371.1938 583.0556,374.4555 C588.9571,378.6784 589.5164,383.6443 583.1903,387.9889 C589.0684,392.3198 589.7828,397.919 582.5209,401.6039 C589.9614,406.6459 589.3938,412.7079 582.1978,417.4515 C587.3723,426.8617 584.0086,435.4363 572.5,436.2315 C573.3619,435.6042 574.0215,435.7008 574.3237,436.817 C571.5385,444.4201 566.128,446.0195 560.1614,440.1649 C556.9193,446.0965 553.1999,446.6282 548.9078,441.2056 C545.4312,447.8755 538.9543,447.9026 534.5616,442.2743 C530.844,449.6923 526.9801,450.2624 521.6912,443.7233 C517.4231,450.356 513.1431,450.1235 508.5507,444.0589 C504.4699,447.8557 500.3566,448.1135 498.0171,442.1748 C493.6983,448.5525 488.9415,449.782 484.1109,442.7038 C477.8398,448.7396 473.5342,447.4386 470.2713,439.6848 C467.3547,445.1691 462.2363,446.0251 458.9931,440.0049 C447.7181,447.023 439.0904,441.5345 437.5,429.2315 C439.0158,429.0416 440.2412,429.8263 439.5606,431.5709 C431.9018,426.9312 430.8053,421.6892 438.7667,416.2406 C433.3161,412.4235 431.1531,407.7677 438.0503,403.2687 C429.2939,399.6877 430.4244,392.7537 436.3508,387.582 C429.0442,384.3563 428.3555,380.3758 434.3119,375.0007 C427.9096,369.7249 428.1039,364.982 434.8121,360.1478 C427.4917,356.9343 426.9124,352.0233 432.1482,346.3802 C425.7808,340.2759 425.6512,334.5764 434.7756,331.1433 C429.0233,327.2331 429.1274,321.6193 435.5023,318.4006 C427.4774,313.7224 427.7493,308.1974 435.1692,303.1812 C429.5922,297.4021 430.3771,292.1604 437.8256,288.7847 C431.9067,284.56 432.1486,280.385 438.0964,276.4202 C430.2124,267.5023 430.2713,256.0431 444.5,253.2315 C444.7394,252.8822 445.0935,252.9424 445.2948,253.2758 " style="stroke:#181818;stroke-width:1.0;fill:none;"/><text fill="#000000" font-family="&quot;Yu Gothic UI, sans-serif&quot;" font-size="14" font-weight="bold" lengthAdjust="spacing" textLength="120" x="448.5" y="271.2266">フェデレーション</text></g><!--MD5=[b7adefaaf9d312bd501cf3604d30484c]
cluster ドメイングラフサービス_キャッシュ--><g id="cluster_ドメイングラフサービス_キャッシュ"><path d="M442.0936,35.0523 C449.09,20.168 459.3344,17.3551 470.24,31.2257 C477.7271,14.5906 487.7325,15.438 498.7592,27.7368 C507.3332,13.278 519.6107,12.2038 528.1858,27.7357 C537.1293,10.6692 547.9686,12.8319 558.8165,25.7931 C566.527,15.272 576.6814,13.3779 584.5585,25.6044 C592.6367,8.8288 604.5415,6 616.5419,21.7472 C625.9511,10.0285 634.5434,9.856 642.5641,23.1895 C651.6183,7.3484 662.21,10.3742 672.4167,21.9339 C680.0926,10.8869 692.3215,11.7519 698.3804,23.7553 C709.2879,6.6928 725.0536,12.9633 731.654,28.1933 C740.0549,16.2935 749.4733,14.3374 757.7729,28.2956 C765.3637,15.4057 777.8822,13.1186 785.6425,28.1263 C798.5152,13.8011 808.7903,16.9093 815.4967,33.9883 C825.3555,17.6005 841.1597,23.3682 848,37.2315 C851.3472,36.0867 853.1076,37.8756 852.1905,41.2158 C865.4224,50.1564 864.4636,60.7544 850.4059,67.8677 C865.2241,74.1689 866.164,87.3451 853.4954,96.6017 C867.2476,108.0371 866.2964,117.2902 851.6099,126.9593 C864.7624,131.8153 865.1735,143.1427 854.507,150.8831 C868.7458,163.1372 866.0407,172.9512 849.9805,180.5884 C863.9122,195.4939 859.2067,207.1677 841,213.2315 C843.8676,213.413 844.615,214.9626 843.5612,217.4981 C832.7837,233.9961 823.566,232.7477 813.1771,217.1304 C803.4017,229.4331 795.0077,228.8349 786.8842,215.4403 C778.1971,228.2095 769.7704,228.8051 759.6064,217.0853 C749.843,231.2551 739.3089,227.665 730.8915,215.6114 C722.4399,228.9376 712.3394,233.3923 700.8522,218.8879 C694.677,234.1502 680.8599,232.7019 673.1489,220.4333 C663.1989,233.4899 652.3825,230.1146 645.5038,217.1681 C637.2529,230.9164 622.2778,230.1569 615.5249,215.5825 C609.8772,230.5356 597.7993,234.0445 587.586,219.978 C576.7237,232.6906 563.0753,232.2535 555.7569,216.0738 C548.5313,227.3059 537.278,231.2985 528.9079,217.2913 C521.0469,230.0306 511.2759,228.9627 502.8744,217.8821 C495.3058,231.7217 482.0727,231.9292 474.5274,217.8583 C456.2837,235.4872 440.1798,230.6535 434,206.2315 C434.6842,206.3224 434.9099,206.7185 434.6788,207.36 C419.1697,201.6138 416.768,188.5478 431.2811,179.1815 C418.0722,171.5783 419.1365,157.4735 431.9736,150.4992 C418.7518,144.3185 419.4227,133.3244 429.8588,125.1686 C418.798,116.855 419.7889,103.2172 432.7347,97.3889 C418.8669,88.7574 417.2142,76.2195 433.2717,68.1373 C420.2703,53.0674 422.8264,38.9454 441,30.2315 C443.5054,31.2438 444.173,32.9999 442.0936,35.0523 " style="stroke:#181818;stroke-width:1.0;fill:none;"/><text fill="#000000" font-family="&quot;Yu Gothic UI, sans-serif&quot;" font-size="14" font-weight="bold" lengthAdjust="spacing" textLength="247" x="517.5" y="48.2266">ドメイングラフサービス_キャッシュ</text></g><!--MD5=[46b755e966de6f3702eeb880d12fc039]
cluster ドメイングラフサービス--><g id="cluster_ドメイングラフサービス"><path d="M731.2249,313.714 C738.2331,302.815 745.3216,304.6697 751.8249,314.2226 C756.4696,303.1855 765.0204,301.5371 772.2024,311.7945 C778.7257,300.2998 785.8307,299.9425 793.0896,311.1168 C799.2919,298.0737 808.6057,298.8861 816.1996,309.7729 C823.7538,299.4143 830.7805,298.7321 837.4772,310.594 C842.0915,300.2735 851.3499,296.9963 858.7644,307.7679 C866.4285,298.4284 873.893,298.0712 879.725,309.6075 C886.4009,299.6377 892.925,300.4127 898.9368,310.2516 C904.8249,300.2911 915.1604,300.3895 919.6229,311.6418 C925.1023,301.2768 931.5226,299.7958 939.0006,309.7342 C947.409,298.3939 954.8317,299.9606 962.0451,310.9665 C969.2135,301.8631 976.2448,304.1898 981.2723,313.2348 C986.0732,304.8276 995.7225,304.2135 1001.2091,312.4114 C1009.1773,302.6126 1018.0625,300.978 1024.4766,313.9962 C1037.0084,318.5757 1039.5315,326.6734 1028.8628,335.899 C1041.2026,338.2175 1043.9164,346.331 1035.3156,355.532 C1041.859,363.8252 1040.1418,373.8567 1028.6477,376.3812 C1038.1618,385.7463 1035.6573,391.7984 1024.5416,397.0688 C1020.7354,408.3568 1009.9511,408.6614 1003.0208,400.5311 C996.2167,409.0834 988.7285,409.8589 983.3255,399.102 C978.5229,410.0449 969.4604,411.6674 962.0302,401.7894 C956.0912,412.08 946.1456,411.4565 939.9093,402.1247 C935.3606,412.6441 925.1225,415.5003 918.2572,404.45 C912.816,412.9079 902.5957,414.1672 897.7817,403.769 C893.2158,413.5393 886.9088,413.7035 879.5798,406.7821 C872.3814,418.1524 864.2129,417.8099 857.9404,405.9206 C850.0905,414.8011 839.8396,414.8577 836.0096,401.8862 C828.6625,411.2064 822.0223,413.792 814.1716,402.4176 C806.7982,409.2411 801.0682,409.4755 796.3146,399.6138 C789.9673,410.2444 782.9012,410.0867 775.276,400.9756 C767.7613,410.3952 758.5544,411.8267 752.3572,399.5819 C745.7302,408.6795 736.5376,407.8154 731.0978,398.2309 C721.6575,394.2957 718.3244,386.4979 727.2665,378.9163 C716.0098,373.6379 715.7639,364.4522 726.234,358.0964 C717.2058,350.6275 716.4251,343.3303 727.0676,336.6251 C718.8967,327.0914 719.8796,319.7065 731.2249,313.714 " style="stroke:#181818;stroke-width:1.0;fill:none;"/><text fill="#000000" font-family="&quot;Yu Gothic UI, sans-serif&quot;" font-size="14" font-weight="bold" lengthAdjust="spacing" textLength="165" x="793.5" y="331.2266">ドメイングラフサービス</text></g><!--MD5=[5e9444d37899338206d9f6bfbc41d4ff]
cluster 外部サービス--><g id="cluster_外部サービス"><path d="M938.156,72.8602 C950.0189,54.089 963.679,54.1274 974.4018,73.9314 C981.1554,57.436 990.5005,55.7652 1002.2633,69.2811 C1011.7782,55.3668 1024.2402,55.206 1034.5552,68.3255 C1043.3399,52.106 1059.3453,55.0452 1067.0267,69.4937 C1072.1816,54.1489 1085.1435,54.0238 1093.7739,66.1041 C1105.3211,47.0739 1118.2881,48.1825 1129.6059,66.3252 C1137.6703,50.0987 1147.7091,49.2584 1160.5112,61.1107 C1170.7474,48.8078 1184.7807,46.5833 1192.9129,63.4481 C1200.8465,51.204 1214.496,49.6983 1220.5733,65.2925 C1232.1031,47.091 1244.8181,51.9797 1254.7595,66.9303 C1264.9972,54.7351 1275.1284,56.674 1282.3465,70.1723 C1292.7311,55.5647 1307.1638,57.2769 1315.5748,72.3795 C1323.0157,57.2416 1338.2785,55.3754 1346.1771,71.9376 C1358.9172,54.6433 1373.3515,61.0339 1381,77.2315 C1382.3883,75.5475 1383.9968,75.3709 1385.1166,77.5199 C1403.4178,85.8185 1402.0244,99.9331 1388.1488,111.1343 C1405.9402,119.9603 1402.7855,136.0719 1388.6992,145.4098 C1405.1318,152.6012 1409.9667,163.5364 1395.8436,177.5253 C1407.0085,188.9354 1406.2413,197.2797 1391.5114,204.5367 C1404.4249,216.5519 1405.5065,233.9027 1384.8508,239.528 C1395.625,254.0099 1395.7376,269.2167 1374,273.2315 C1375.5603,271.5065 1377.26,271.2947 1378.3516,273.7226 C1371.8003,292.0263 1359.9224,290.4508 1348.0183,279.2202 C1334.7444,295.6538 1322.4767,293.2896 1312.5527,275.7257 C1304.1218,291.8965 1292.8676,290.1217 1283.3768,276.7733 C1275.4265,292.805 1262.6737,293.1086 1251.9939,279.6812 C1245.9402,292.5988 1232.783,296.2316 1223.3014,283.5186 C1212.0027,298.2509 1200.8406,298.1337 1192.8494,280.4149 C1184.9415,298.8271 1173.7489,299.3729 1161.47,284.5406 C1149.2595,299.9947 1133.4822,297.4202 1125.4139,279.9978 C1116.1148,294.7526 1107.1953,294.8932 1097.3301,280.5441 C1085.494,292.6681 1075.3986,292.6087 1065.7273,277.9862 C1059.7967,293.5777 1046.6346,294.0353 1037.1715,281.5832 C1024.3058,299.5913 1013.7256,295.3927 1002.5631,279.8276 C991.338,291.9303 981.8391,295.4549 971.6494,278.7177 C951.3716,296.2976 938.1763,291.3036 931,266.2315 C934.2236,266.6314 935.1196,268.4261 933.8287,271.3304 C915.1214,263.0798 911.2428,247.0204 930.0448,234.8764 C914.6897,225.2343 916.6169,213.3686 931.4395,205.142 C915.8224,197.1282 913.557,183.0411 928.6268,172.3918 C914.7277,161.9931 919.1647,149.5482 932.3609,142.5387 C918.6568,132.2935 918.4197,119.638 932.5283,109.534 C916.355,93.4795 916.8953,81.0961 938,70.2315 C939.4097,70.9073 939.2938,72.0332 938.156,72.8602 " style="stroke:#181818;stroke-width:1.0;fill:none;"/><text fill="#000000" font-family="&quot;Yu Gothic UI, sans-serif&quot;" font-size="14" font-weight="bold" lengthAdjust="spacing" textLength="90" x="1111" y="88.2266">外部サービス</text></g><!--MD5=[7e882e6620e2a97ffcca45e9f60fb6b7]
entity ウェブアプリ--><g id="elem_ウェブアプリ"><path d="M250.5,233.2315 L250.5,257.2315 M250.5,245.2315 L267.5,245.2315 " fill="none" style="stroke:#181818;stroke-width:0.5;"/><ellipse cx="279.5" cy="245.2315" fill="#F1F1F1" rx="12" ry="12" style="stroke:#181818;stroke-width:0.5;"/><text fill="#000000" font-family="&quot;Yu Gothic UI, sans-serif&quot;" font-size="14" lengthAdjust="spacing" textLength="84" x="229" y="274.2266">ウェブアプリ</text></g><!--MD5=[1c7ec1a8c617255691be87360e9c6121]
entity モバイルアプリ--><g id="elem_モバイルアプリ"><path d="M250.5,316.2315 L250.5,340.2315 M250.5,328.2315 L267.5,328.2315 " fill="none" style="stroke:#181818;stroke-width:0.5;"/><ellipse cx="279.5" cy="328.2315" fill="#F1F1F1" rx="12" ry="12" style="stroke:#181818;stroke-width:0.5;"/><text fill="#000000" font-family="&quot;Yu Gothic UI, sans-serif&quot;" font-size="14" lengthAdjust="spacing" textLength="98" x="222" y="357.2266">モバイルアプリ</text></g><!--MD5=[74636fc2be209ba6ad28b91e001a6ea3]
entity ゲートウェイ--><g id="elem_ゲートウェイ"><ellipse cx="508.5" cy="296.2315" fill="#F1F1F1" rx="12" ry="12" style="stroke:#181818;stroke-width:0.5;"/><polygon fill="#181818" points="504.5,284.2315,510.5,279.2315,508.5,284.2315,510.5,289.2315,504.5,284.2315" style="stroke:#181818;stroke-width:1.0;"/><text fill="#000000" font-family="&quot;Yu Gothic UI, sans-serif&quot;" font-size="14" lengthAdjust="spacing" textLength="84" x="466.5" y="325.2266">ゲートウェイ</text></g><!--MD5=[1e75ff71913e1d92b160932c4a02d6d7]
entity スキーマレジストリ--><g id="elem_スキーマレジストリ"><ellipse cx="508.5" cy="396.2315" fill="#F1F1F1" rx="12" ry="12" style="stroke:#181818;stroke-width:0.5;"/><line style="stroke:#181818;stroke-width:0.5;" x1="496.5" x2="520.5" y1="410.2315" y2="410.2315"/><text fill="#000000" font-family="&quot;Yu Gothic UI, sans-serif&quot;" font-size="14" lengthAdjust="spacing" textLength="126" x="445.5" y="425.2266">スキーマレジストリ</text></g><!--MD5=[0dd0c5844f14ee4cd6889e8c37a1cf19]
entity リゾルバ_キャッシュ--><g id="elem_リゾルバ_キャッシュ"><ellipse cx="508.5" cy="173.2315" fill="#F1F1F1" rx="12" ry="12" style="stroke:#181818;stroke-width:0.5;"/><polygon fill="#181818" points="504.5,161.2315,510.5,156.2315,508.5,161.2315,510.5,166.2315,504.5,161.2315" style="stroke:#181818;stroke-width:1.0;"/><text fill="#000000" font-family="&quot;Yu Gothic UI, sans-serif&quot;" font-size="14" lengthAdjust="spacing" textLength="133" x="442" y="202.2266">リゾルバ_キャッシュ</text></g><!--MD5=[b58981529880d4180322defe067363bf]
entity サービス_キャッシュ--><g id="elem_サービス_キャッシュ"><ellipse cx="766.5" cy="173.2315" fill="#F1F1F1" rx="12" ry="12" style="stroke:#181818;stroke-width:0.5;"/><polygon fill="#181818" points="762.5,161.2315,768.5,156.2315,766.5,161.2315,768.5,166.2315,762.5,161.2315" style="stroke:#181818;stroke-width:1.0;"/><text fill="#000000" font-family="&quot;Yu Gothic UI, sans-serif&quot;" font-size="14" lengthAdjust="spacing" textLength="133" x="700" y="202.2266">サービス_キャッシュ</text></g><!--MD5=[41eb9fd131a5c6cb652154b838f751cc]
entity ストレージ_キャッシュ--><g id="elem_ストレージ_キャッシュ"><ellipse cx="766.5" cy="73.2315" fill="#F1F1F1" rx="12" ry="12" style="stroke:#181818;stroke-width:0.5;"/><line style="stroke:#181818;stroke-width:0.5;" x1="754.5" x2="778.5" y1="87.2315" y2="87.2315"/><text fill="#000000" font-family="&quot;Yu Gothic UI, sans-serif&quot;" font-size="14" lengthAdjust="spacing" textLength="147" x="693" y="102.2266">ストレージ_キャッシュ</text></g><!--MD5=[150a92da81aab50c37f774be21981a8c]
entity リゾルバ--><g id="elem_リゾルバ"><ellipse cx="766.5" cy="356.2315" fill="#F1F1F1" rx="12" ry="12" style="stroke:#181818;stroke-width:0.5;"/><polygon fill="#181818" points="762.5,344.2315,768.5,339.2315,766.5,344.2315,768.5,349.2315,762.5,344.2315" style="stroke:#181818;stroke-width:1.0;"/><text fill="#000000" font-family="&quot;Yu Gothic UI, sans-serif&quot;" font-size="14" lengthAdjust="spacing" textLength="56" x="738.5" y="385.2266">リゾルバ</text></g><!--MD5=[d7211d61ec0a797a774bd04641cd4334]
entity サービス--><g id="elem_サービス"><ellipse cx="985.5" cy="356.2315" fill="#F1F1F1" rx="12" ry="12" style="stroke:#181818;stroke-width:0.5;"/><polygon fill="#181818" points="981.5,344.2315,987.5,339.2315,985.5,344.2315,987.5,349.2315,981.5,344.2315" style="stroke:#181818;stroke-width:1.0;"/><text fill="#000000" font-family="&quot;Yu Gothic UI, sans-serif&quot;" font-size="14" lengthAdjust="spacing" textLength="56" x="957.5" y="385.2266">サービス</text></g><!--MD5=[8179c26118cf9ee16d67ab3f419821e3]
entity 外部サービス1--><g id="elem_外部サービス1"><ellipse cx="985.5" cy="173.2315" fill="#F1F1F1" rx="12" ry="12" style="stroke:#181818;stroke-width:0.5;"/><polygon fill="#181818" points="981.5,161.2315,987.5,156.2315,985.5,161.2315,987.5,166.2315,981.5,161.2315" style="stroke:#181818;stroke-width:1.0;"/><text fill="#000000" font-family="&quot;Yu Gothic UI, sans-serif&quot;" font-size="14" lengthAdjust="spacing" textLength="93" x="939" y="202.2266">外部サービス1</text></g><!--MD5=[cea6c37ae3a2324e20f3bff93ecfe4eb]
entity 外部サービス2--><g id="elem_外部サービス2"><ellipse cx="1173.5" cy="233.2315" fill="#F1F1F1" rx="12" ry="12" style="stroke:#181818;stroke-width:0.5;"/><polygon fill="#181818" points="1169.5,221.2315,1175.5,216.2315,1173.5,221.2315,1175.5,226.2315,1169.5,221.2315" style="stroke:#181818;stroke-width:1.0;"/><text fill="#000000" font-family="&quot;Yu Gothic UI, sans-serif&quot;" font-size="14" lengthAdjust="spacing" textLength="92" x="1127.5" y="262.2266">外部サービス2</text></g><!--MD5=[eded070b73b34d635c533eabe793fec5]
entity 外部サービス3--><g id="elem_外部サービス3"><ellipse cx="1173.5" cy="113.2315" fill="#F1F1F1" rx="12" ry="12" style="stroke:#181818;stroke-width:0.5;"/><polygon fill="#181818" points="1169.5,101.2315,1175.5,96.2315,1173.5,101.2315,1175.5,106.2315,1169.5,101.2315" style="stroke:#181818;stroke-width:1.0;"/><text fill="#000000" font-family="&quot;Yu Gothic UI, sans-serif&quot;" font-size="14" lengthAdjust="spacing" textLength="93" x="1127" y="142.2266">外部サービス3</text></g><!--MD5=[1f080c6f42456533e4f598bdfb239556]
entity 外部サービス4--><g id="elem_外部サービス4"><ellipse cx="1327" cy="173.2315" fill="#F1F1F1" rx="12" ry="12" style="stroke:#181818;stroke-width:0.5;"/><polygon fill="#181818" points="1323,161.2315,1329,156.2315,1327,161.2315,1329,166.2315,1323,161.2315" style="stroke:#181818;stroke-width:1.0;"/><text fill="#000000" font-family="&quot;Yu Gothic UI, sans-serif&quot;" font-size="14" lengthAdjust="spacing" textLength="92" x="1281" y="202.2266">外部サービス4</text></g><!--MD5=[cb806db31311588c371a8644e7db75c6]
entity カスタマー--><g id="elem_カスタマー"><ellipse cx="41" cy="262.7315" fill="#F1F1F1" rx="8" ry="8" style="stroke:#181818;stroke-width:0.5;"/><path d="M41,270.7315 L41,297.7315 M28,278.7315 L54,278.7315 M41,297.7315 L28,312.7315 M41,297.7315 L54,312.7315 " fill="none" style="stroke:#181818;stroke-width:0.5;"/><text fill="#000000" font-family="&quot;Yu Gothic UI, sans-serif&quot;" font-size="14" lengthAdjust="spacing" textLength="70" x="6" y="327.2266">カスタマー</text></g><!--MD5=[2b3720a1f082f4c725ea3d13ec33a24a]
link カスタマー to ウェブアプリ--><g id="link_カスタマー_ウェブアプリ"><path d="M76.1339,286.3925 C115.368,279.6815 179.966,268.6315 223.708,261.1495 " fill="none" id="カスタマー-to-ウェブアプリ" style="stroke:#181818;stroke-width:1.0;"/><polygon fill="#181818" points="228.67,260.3015,219.1245,257.8759,223.7415,261.1443,220.4731,265.7614,228.67,260.3015" style="stroke:#181818;stroke-width:1.0;"/><text fill="#000000" font-family="&quot;Yu Gothic UI, sans-serif&quot;" font-size="13" lengthAdjust="spacing" textLength="37" x="129.5" y="262.2984">React</text></g><!--MD5=[ff56df20fd4070134a32268c1f917e98]
link カスタマー to モバイルアプリ--><g id="link_カスタマー_モバイルアプリ"><path d="M76.1937,299.2665 C85.8281,301.2245 96.3202,303.3335 106,305.2315 C142.978,312.4815 184.707,320.3655 216.818,326.3675 " fill="none" id="カスタマー-to-モバイルアプリ" style="stroke:#181818;stroke-width:1.0;"/><polygon fill="#181818" points="221.887,327.3145,213.7736,321.7313,216.9719,326.3972,212.3059,329.5955,221.887,327.3145" style="stroke:#181818;stroke-width:1.0;"/><text fill="#000000" font-family="&quot;Yu Gothic UI, sans-serif&quot;" font-size="13" lengthAdjust="spacing" textLength="82" x="107" y="301.2984">React Native</text></g><!--MD5=[568839adfaf5660033df07619010f29f]
link ウェブアプリ to ゲートウェイ--><g id="link_ウェブアプリ_ゲートウェイ"><path d="M313.021,262.1155 C354.388,271.0735 418.132,284.8775 461.266,294.2195 " fill="none" id="ウェブアプリ-to-ゲートウェイ" style="stroke:#181818;stroke-width:1.0;"/><polygon fill="#181818" points="466.159,295.2785,458.2098,289.4639,461.2723,294.22,456.5162,297.2826,466.159,295.2785" style="stroke:#181818;stroke-width:1.0;"/><text fill="#000000" font-family="&quot;Yu Gothic UI, sans-serif&quot;" font-size="13" lengthAdjust="spacing" textLength="56" x="353" y="266.2984">GraphQL</text></g><!--MD5=[2d8bebf172cd6d744079046ba64c1ead]
link モバイルアプリ to ゲートウェイ--><g id="link_モバイルアプリ_ゲートウェイ"><path d="M320.227,341.1955 C346.876,342.8735 380.469,343.2325 410,338.2315 C427.139,335.3285 445.283,329.7465 461.212,323.9315 " fill="none" id="モバイルアプリ-to-ゲートウェイ" style="stroke:#181818;stroke-width:1.0;"/><polygon fill="#181818" points="466.081,322.1225,456.2512,321.51,461.3945,323.8651,459.0394,329.0084,466.081,322.1225" style="stroke:#181818;stroke-width:1.0;"/><text fill="#000000" font-family="&quot;Yu Gothic UI, sans-serif&quot;" font-size="13" lengthAdjust="spacing" textLength="56" x="353" y="334.2984">GraphQL</text></g><!--MD5=[dda50eb205a864ec87beb73c2ca10c7e]
reverse link ゲートウェイ to スキーマレジストリ--><g id="link_ゲートウェイ_スキーマレジストリ"><path d="M508.5,333.8445 C508.5,348.5625 508.5,366.1244 508.5,380.0243 " fill="none" id="ゲートウェイ-backto-スキーマレジストリ" style="stroke:#181818;stroke-width:1.0;"/><polygon fill="#181818" points="508.5,328.5625,504.5,337.5625,508.5,333.5625,512.5,337.5625,508.5,328.5625" style="stroke:#181818;stroke-width:1.0;"/><text fill="#000000" font-family="&quot;Yu Gothic UI, sans-serif&quot;" font-size="13" lengthAdjust="spacing" textLength="78" x="458" y="358.7984">統合スキーマ</text></g><!--MD5=[0db2c88c042e0999ae9b218a75c00c9d]
link ゲートウェイ to リゾルバ_キャッシュ--><g id="link_ゲートウェイ_リゾルバ_キャッシュ"><path d="M508.5,280.2235 C508.5,260.3735 508.5,232.0955 508.5,210.8415 " fill="none" id="ゲートウェイ-to-リゾルバ_キャッシュ" style="stroke:#181818;stroke-width:1.0;"/><polygon fill="#181818" points="508.5,205.5985,504.5,214.5985,508.5,210.5985,512.5,214.5985,508.5,205.5985" style="stroke:#181818;stroke-width:1.0;"/><text fill="#000000" font-family="&quot;Yu Gothic UI, sans-serif&quot;" font-size="13" lengthAdjust="spacing" textLength="56" x="469" y="247.2984">GraphQL</text></g><!--MD5=[25a39c3efdff4ed3f869088df25d0338]
link リゾルバ_キャッシュ to サービス_キャッシュ--><g id="link_リゾルバ_キャッシュ_サービス_キャッシュ"><path d="M575.094,181.2315 C611.523,181.2315 656.881,181.2315 694.188,181.2315 " fill="none" id="リゾルバ_キャッシュ-to-サービス_キャッシュ" style="stroke:#181818;stroke-width:1.0;"/><polygon fill="#181818" points="699.632,181.2315,690.632,177.2315,694.632,181.2315,690.632,185.2315,699.632,181.2315" style="stroke:#181818;stroke-width:1.0;"/></g><!--MD5=[ffdc148568da4775e9590fb780bcb956]
link サービス_キャッシュ to ストレージ_キャッシュ--><g id="link_サービス_キャッシュ_ストレージ_キャッシュ"><path d="M766.5,157.0245 C766.5,143.1245 766.5,125.5625 766.5,110.8445 " fill="none" id="サービス_キャッシュ-to-ストレージ_キャッシュ" style="stroke:#181818;stroke-width:1.0;"/><polygon fill="#181818" points="766.5,105.5625,762.5,114.5625,766.5,110.5625,770.5,114.5625,766.5,105.5625" style="stroke:#181818;stroke-width:1.0;"/><text fill="#000000" font-family="&quot;Yu Gothic UI, sans-serif&quot;" font-size="13" lengthAdjust="spacing" textLength="91" x="709.5" y="135.7984">キャッシュ登録</text></g><!--MD5=[7470227255cbf16584365cd4b8790867]
link リゾルバ_キャッシュ to スキーマレジストリ--><g id="link_リゾルバ_キャッシュ_スキーマレジストリ"><path d="M452.22,205.3295 C406.473,228.7745 352.864,267.4245 375,312.7315 C389.109,341.6085 417.262,362.9478 444.091,377.7197 " fill="none" id="リゾルバ_キャッシュ-to-スキーマレジストリ" style="stroke:#181818;stroke-width:1.0;stroke-dasharray:7.0,7.0;"/><polygon fill="#181818" points="448.732,380.2177,442.7032,372.4297,444.3294,377.8477,438.9113,379.4739,448.732,380.2177" style="stroke:#181818;stroke-width:1.0;"/><text fill="#000000" font-family="&quot;Yu Gothic UI, sans-serif&quot;" font-size="13" lengthAdjust="spacing" textLength="52" x="355" y="308.7984">スキーマ</text></g><!--MD5=[3133324aa634120e13ec6d00d001cf26]
link ゲートウェイ to リゾルバ--><g id="link_ゲートウェイ_リゾルバ"><path d="M550.631,313.8715 C601.497,325.7935 687.016,345.8365 733.341,356.6945 " fill="none" id="ゲートウェイ-to-リゾルバ" style="stroke:#181818;stroke-width:1.0;"/><polygon fill="#181818" points="738.246,357.8435,730.3966,351.8948,733.378,356.7022,728.5706,359.6836,738.246,357.8435" style="stroke:#181818;stroke-width:1.0;"/><text fill="#000000" font-family="&quot;Yu Gothic UI, sans-serif&quot;" font-size="13" lengthAdjust="spacing" textLength="56" x="606" y="322.2984">GraphQL</text></g><!--MD5=[f4268491ac02225890fdc8314193be14]
link リゾルバ to サービス--><g id="link_リゾルバ_サービス"><path d="M794.544,364.2315 C834.612,364.2315 909.606,364.2315 952.402,364.2315 " fill="none" id="リゾルバ-to-サービス" style="stroke:#181818;stroke-width:1.0;"/><polygon fill="#181818" points="957.456,364.2315,948.456,360.2315,952.456,364.2315,948.456,368.2315,957.456,364.2315" style="stroke:#181818;stroke-width:1.0;"/></g><!--MD5=[72e2e17559315fa272a63ec7b3ac0713]
link リゾルバ to スキーマレジストリ--><g id="link_リゾルバ_スキーマレジストリ"><path d="M738.226,370.8218 C717.651,375.6138 688.677,381.9802 663,386.2315 C634.84,390.8939 603.577,394.7896 576.654,397.7507 " fill="none" id="リゾルバ-to-スキーマレジストリ" style="stroke:#181818;stroke-width:1.0;stroke-dasharray:7.0,7.0;"/><polygon fill="#181818" points="571.679,398.2927,581.0592,401.2946,576.6496,397.7513,580.1929,393.3417,571.679,398.2927" style="stroke:#181818;stroke-width:1.0;"/><text fill="#000000" font-family="&quot;Yu Gothic UI, sans-serif&quot;" font-size="13" lengthAdjust="spacing" textLength="52" x="608" y="382.2984">スキーマ</text></g><!--MD5=[c2896e22c2bbba6c24e588045001281a]
link 外部サービス1 to 外部サービス2--><g id="link_外部サービス1_外部サービス2"><path d="M1032,195.9095 C1061.04,205.2765 1098.52,217.3675 1127.47,226.7055 " fill="none" id="外部サービス1-外部サービス2" style="stroke:#181818;stroke-width:1.0;"/></g><!--MD5=[efa453978ac503e1d28b5652c3a4a1f0]
link 外部サービス1 to 外部サービス3--><g id="link_外部サービス1_外部サービス3"><path d="M1032,166.5535 C1060.82,157.2565 1097.97,145.2745 1126.82,135.9655 " fill="none" id="外部サービス1-外部サービス3" style="stroke:#181818;stroke-width:1.0;"/></g><!--MD5=[f636de104e5e6613b96a9cd2266ad925]
link 外部サービス1 to 外部サービス4--><g id="link_外部サービス1_外部サービス4"><path d="M1032.29,181.2315 C1097.44,181.2315 1216.18,181.2315 1280.94,181.2315 " fill="none" id="外部サービス1-外部サービス4" style="stroke:#181818;stroke-width:1.0;"/></g><!--MD5=[2e8870d7956a8f8fbbea0b19e37d6c60]
link 外部サービス2 to 外部サービス4--><g id="link_外部サービス2_外部サービス4"><path d="M1219.54,223.3915 C1238.91,215.7235 1261.49,206.7785 1280.87,199.1055 " fill="none" id="外部サービス2-外部サービス4" style="stroke:#181818;stroke-width:1.0;"/></g><!--MD5=[a8c0c3663541c8d181b09b09aa479880]
link 外部サービス3 to 外部サービス4--><g id="link_外部サービス3_外部サービス4"><path d="M1220.37,139.3965 C1239.53,146.9845 1261.72,155.7755 1280.81,163.3345 " fill="none" id="外部サービス3-外部サービス4" style="stroke:#181818;stroke-width:1.0;"/></g><!--MD5=[eabeef834ad339a41239855ed3cedb9b]
link 外部サービス3 to 外部サービス2--><g id="link_外部サービス3_外部サービス2"><path d="M1173.5,145.5115 C1173.5,169.2935 1173.5,193.0745 1173.5,216.8565 " fill="none" id="外部サービス3-外部サービス2" style="stroke:#181818;stroke-width:1.0;"/></g><!--MD5=[cc73a9ec2af4e70b1f6a395d84bc81ec]
link サービス_キャッシュ to 外部サービス1--><g id="link_サービス_キャッシュ_外部サービス1"><path d="M833.196,181.2315 C865.507,181.2315 903.848,181.2315 933.85,181.2315 " fill="none" id="サービス_キャッシュ-to-外部サービス1" style="stroke:#181818;stroke-width:1.0;"/><polygon fill="#181818" points="938.97,181.2315,929.97,177.2315,933.97,181.2315,929.97,185.2315,938.97,181.2315" style="stroke:#181818;stroke-width:1.0;"/><text fill="#000000" font-family="&quot;Yu Gothic UI, sans-serif&quot;" font-size="13" lengthAdjust="spacing" textLength="33" x="873" y="177.2984">REST</text></g><!--MD5=[5953388d01141a730fce11d5fd2b8e24]
link サービス to 外部サービス2--><g id="link_サービス_外部サービス2"><path d="M1013.55,346.3465 C1044.63,325.7935 1095.95,291.8535 1131.85,268.1155 " fill="none" id="サービス-to-外部サービス2" style="stroke:#181818;stroke-width:1.0;"/><polygon fill="#181818" points="1136.14,265.2725,1126.4265,266.8997,1131.9692,268.0302,1130.8387,273.5729,1136.14,265.2725" style="stroke:#181818;stroke-width:1.0;"/><text fill="#000000" font-family="&quot;Yu Gothic UI, sans-serif&quot;" font-size="13" lengthAdjust="spacing" textLength="33" x="1063" y="287.2984">REST</text></g><!--MD5=[7d3bc654d40bd9a70ab1ada2b30b92e5]
@startuml
skinparam monochrome true
skinparam handwritten false
skinparam defaultFontName "Yu Gothic UI, sans-serif"
left to right direction
actor カスタマー
cloud フロントエンド {
    boundary ウェブアプリ
    boundary モバイルアプリ
    カスタマー - -> ウェブアプリ : React
    カスタマー - -> モバイルアプリ : React Native
}
cloud フェデレーション {
    control ゲートウェイ
    entity スキーマレジストリ
    ウェブアプリ - -> ゲートウェイ : GraphQL
    モバイルアプリ - -> ゲートウェイ : GraphQL
    ゲートウェイ <- スキーマレジストリ : 統合スキーマ
}
cloud ドメイングラフサービス_キャッシュ {
    control リゾルバ_キャッシュ
    control サービス_キャッシュ
    entity ストレージ_キャッシュ
    ゲートウェイ - -> リゾルバ_キャッシュ : GraphQL
    リゾルバ_キャッシュ - -> サービス_キャッシュ
    サービス_キャッシュ -> ストレージ_キャッシュ : キャッシュ登録
    リゾルバ_キャッシュ ..> スキーマレジストリ : スキーマ
}
cloud ドメイングラフサービス {
    control リゾルバ
    control サービス
    ゲートウェイ - -> リゾルバ : GraphQL
    リゾルバ - -> サービス
    リゾルバ ..> スキーマレジストリ : スキーマ
}
cloud 外部サービス {
    control 外部サービス1
    control 外部サービス2
    control 外部サービス3
    control 外部サービス4
    外部サービス1 - 外部サービス2
    外部サービス1 - - 外部サービス3
    外部サービス1 - 外部サービス4
    外部サービス2 - - 外部サービス4
    外部サービス3 - 外部サービス4
    外部サービス3 - 外部サービス2
}
サービス_キャッシュ - -> 外部サービス1 : REST
サービス - -> 外部サービス2 : REST
@enduml

PlantUML version 1.2022.3beta2(Unknown compile time)
(GPL source distribution)
Java Runtime: Java(TM) SE Runtime Environment
JVM: Java HotSpot(TM) 64-Bit Server VM
Default Encoding: UTF-8
Language: en
Country: US
--></g></svg>