<?xml version="1.0" encoding="UTF-8" standalone="no"?><svg xmlns="http://www.w3.org/2000/svg" xmlns:xlink="http://www.w3.org/1999/xlink" contentStyleType="text/css" height="201px" preserveAspectRatio="none" style="width:517px;height:201px;background:#FFFFFF;" version="1.1" viewBox="0 0 517 201" width="517px" zoomAndPan="magnify"><defs/><g><!--MD5=[49cd22768e1054f63137ca6d126948cc]
cluster フロントエンド--><g id="cluster_フロントエンド"><path d="M135.556,17.1068 C139.6652,9.8586 144.5558,10.8047 149.313,16.4134 C152.6062,10.6173 158.1018,10.531 161.7376,16.0367 C164.669,9.4515 169.5275,10.1698 173.6393,14.7819 C177.09,7.7637 181.6731,7.0324 187.0949,12.6894 C191.3191,7.7255 196.1241,8.1763 199.6129,13.5776 C204.7352,8.5383 208.6155,8.5335 212.1653,15.2558 C216.4973,9.6146 220.3669,8.7156 224.4133,15.5365 C232.5246,9.9721 241.546,12.0537 242,23.468 C243.1152,23.91 243.2788,24.4956 242.4325,25.381 C248.6985,27.6594 248.8933,31.5888 245.1903,36.3693 C250.7411,39.9227 252.9307,45.0966 246.0077,49.4307 C253.2774,52.4878 254.289,57.3883 248.1173,62.5989 C253.7548,66.4204 253.6234,70.881 248.1655,74.7465 C256.3731,78.7099 256.846,83.2664 249.6513,88.8521 C255.3603,91.8963 257.4881,96.2412 251.6846,101.1837 C256.8887,104.0871 258.1514,109.9735 251.8818,113.0673 C257.6233,118.4573 256.1959,123.4295 248.7251,125.4518 C255.174,128.7765 254.3915,134.2349 248.7591,137.5934 C254.7781,143.4663 252.868,148.1656 245.4578,150.6404 C252.4464,155.4682 250.5155,160.6608 244.5008,164.597 C250.8087,175.7119 246.5143,180.828 235,182.468 C236.0501,181.8797 236.9325,182.2548 236.9086,183.554 C233.3819,190.9872 226.5834,190.1498 222.7316,183.8906 C220.443,190.3084 216.3129,189.8523 211.9496,186.0874 C208.4926,192.1207 202.1801,192.1191 198.4844,186.36 C195.6316,192.9875 192.0906,194.0504 186.935,188.5538 C182.5495,193.0108 177.0628,192.6861 174.5721,186.3777 C169.8494,193.6173 164.4799,193.0602 160.0186,186.1096 C156.0795,190.9846 152.2605,191.1763 149.4221,185.0494 C136.8555,193.5238 131.1181,188.1187 128,175.468 C129.2406,175.5485 129.6744,176.137 129.3606,177.3445 C122.1235,175.4615 121.0251,169.2332 126.9083,164.7877 C119.2463,160.3051 120.5018,155.6045 126.4889,150.7151 C121.1544,148.0254 120.9002,142.5146 125.4478,138.9505 C119.1423,136.2361 119.2925,129.9717 124.3046,126.2395 C116.5803,122.8885 116.7862,116.6837 123.4857,112.4746 C117.9687,110.2754 118.0096,104.7953 122.2903,101.5263 C114.9739,97.9233 115.923,91.5921 121.7409,87.4756 C117.6346,83.0046 116.9698,78.8732 123.453,75.9794 C116.9199,70.9992 117.2268,65.7918 124.5234,61.86 C119.4926,57.592 119.6391,51.9062 126.2172,49.1903 C121.6043,44.7119 121.9807,39.9969 128.6778,38.0069 C119.4585,28.4241 123.7514,20.043 135,16.468 C135.4463,16.4158 135.7124,16.6344 135.556,17.1068 " style="stroke:#181818;stroke-width:1.0;fill:none;"/><text fill="#000000" font-family="&quot;Yu Gothic UI, sans-serif&quot;" font-size="14" font-weight="bold" lengthAdjust="spacing" textLength="105" x="132.5" y="34.4631">フロントエンド</text></g><!--MD5=[0cf1b91f19d1ba1d44d524ccce57a2e2]
cluster マイクロサービス--><g id="cluster_マイクロサービス"><path d="M294.2186,18.5548 C298.2967,9.8938 305.4209,11.0905 310.3958,17.5983 C315.0114,11.0813 321.0666,9.5316 326.1333,17.0941 C329.9581,9.0656 337.7722,6.4683 343.4333,15.1985 C346.425,7.8912 354.107,7.608 358.6768,13.3559 C364.4006,6 369.0314,7.2919 373.2079,14.8622 C378.7395,6.4494 385.0626,7.2566 390.9412,14.4683 C396.2876,6.5383 402.1296,7.3194 406.8009,15.1478 C410.9237,6.8204 418.531,6.5462 422.9813,14.8288 C427.9339,7.9143 432.6594,7.9962 437.6522,14.7858 C444.3439,6.5585 451.9307,6.9495 455.6416,17.6229 C460.8226,9.5443 465.8205,9.8661 470.9964,17.6279 C480.1584,9.5972 488.1144,12.5224 492,23.468 C492.9626,23.333 493.4187,23.7364 493.115,24.7248 C502.418,28.983 502.0425,35.2159 494.856,41.2151 C502.4614,44.6144 504.5812,50.7169 497.2272,56.4452 C505.1831,59.6774 505.3734,65.1836 499.2104,70.4194 C506.8099,73.7505 509.4924,78.8093 502.522,85.3681 C510.942,90.0091 510.5166,95.8187 504.4019,102.0934 C508.8003,107.9344 507.407,114.0485 499.8532,115.9723 C508.3956,119.6348 508.121,127.1599 500.3507,131.3501 C507.296,137.1515 507.3339,143.5525 498.5283,147.5859 C503.5799,153.9829 501.3443,159.8774 493.9632,162.4581 C501.1072,173.1539 498.5363,181.0358 485,182.468 C486.0037,182.5543 486.4374,183.009 486.0735,184.0333 C480.8592,192.0783 474.7349,190.9864 470.1335,183.408 C466.0159,190.7085 459.4979,193.0932 453.8002,185.0949 C447.6041,192.3594 442.7209,191.956 438.5505,183.1703 C434.365,192.384 425.8669,190.6196 421.5467,183.3088 C417.955,189.5377 410.7342,190.448 406.6719,183.8546 C402.1979,192.9975 393.6307,191.7425 389.2562,183.7535 C384.2566,192.2178 379.3905,192.3713 373.2275,184.9257 C368.9476,191.7438 363.7079,192.2334 359.6584,184.7078 C355.1834,193.3906 347.0627,192.9075 343.0067,184.3041 C338.9022,191.9018 332.7383,193.6301 327.3746,185.5604 C321.3181,194.2347 313.0179,193.4766 309.4583,183.1998 C298.061,190.7818 290.4607,188.9316 286,175.468 C287.0011,174.3109 287.8292,174.374 288.5555,175.7457 C282.2026,172.4132 280.0866,166.6414 286.6388,161.5647 C279.5108,156.8109 279.2457,151.6933 286.1665,146.4991 C277.7104,142.6098 277.4583,136.393 285.0637,131.3356 C277.8454,127.6933 277.4829,121.4963 283.9628,116.8154 C275.0197,112.0102 275.8184,106.2635 282.0856,99.782 C276.7131,94.0098 276.4177,88.7803 284.4517,85.1806 C276.9898,80.3537 275.4596,75.0275 283.2817,69.0893 C277.9736,64.1023 280.1974,59.0031 286.1653,56.6247 C279.3155,51.9576 278.8492,46.9018 285.2251,41.4169 C274.0263,30.1398 278.923,19.8684 293,16.468 C294.3556,16.6406 294.6447,17.3418 294.2186,18.5548 " style="stroke:#181818;stroke-width:1.0;fill:none;"/><text fill="#000000" font-family="&quot;Yu Gothic UI, sans-serif&quot;" font-size="14" font-weight="bold" lengthAdjust="spacing" textLength="120" x="329" y="34.4631">マイクロサービス</text></g><!--MD5=[7e882e6620e2a97ffcca45e9f60fb6b7]
entity ウェブアプリ--><g id="elem_ウェブアプリ"><path d="M164.5,47.468 L164.5,71.468 M164.5,59.468 L181.5,59.468 " fill="none" style="stroke:#181818;stroke-width:0.5;"/><ellipse cx="193.5" cy="59.468" fill="#F1F1F1" rx="12" ry="12" style="stroke:#181818;stroke-width:0.5;"/><text fill="#000000" font-family="&quot;Yu Gothic UI, sans-serif&quot;" font-size="14" lengthAdjust="spacing" textLength="84" x="143" y="88.4631">ウェブアプリ</text></g><!--MD5=[1c7ec1a8c617255691be87360e9c6121]
entity モバイルアプリ--><g id="elem_モバイルアプリ"><path d="M164.5,130.468 L164.5,154.468 M164.5,142.468 L181.5,142.468 " fill="none" style="stroke:#181818;stroke-width:0.5;"/><ellipse cx="193.5" cy="142.468" fill="#F1F1F1" rx="12" ry="12" style="stroke:#181818;stroke-width:0.5;"/><text fill="#000000" font-family="&quot;Yu Gothic UI, sans-serif&quot;" font-size="14" lengthAdjust="spacing" textLength="98" x="136" y="171.4631">モバイルアプリ</text></g><!--MD5=[323fb57889cfe88e7cd0b75c8f3d1e37]
entity サービス1--><g id="elem_サービス1"><ellipse cx="326.5" cy="142.468" fill="#F1F1F1" rx="12" ry="12" style="stroke:#181818;stroke-width:0.5;"/><polygon fill="#181818" points="322.5,130.468,328.5,125.468,326.5,130.468,328.5,135.468,322.5,130.468" style="stroke:#181818;stroke-width:1.0;"/><text fill="#000000" font-family="&quot;Yu Gothic UI, sans-serif&quot;" font-size="14" lengthAdjust="spacing" textLength="65" x="294" y="171.4631">サービス1</text></g><!--MD5=[5685df241faaa2a4c1428b6807d623d8]
entity サービス2--><g id="elem_サービス2"><ellipse cx="326.5" cy="59.468" fill="#F1F1F1" rx="12" ry="12" style="stroke:#181818;stroke-width:0.5;"/><polygon fill="#181818" points="322.5,47.468,328.5,42.468,326.5,47.468,328.5,52.468,322.5,47.468" style="stroke:#181818;stroke-width:1.0;"/><text fill="#000000" font-family="&quot;Yu Gothic UI, sans-serif&quot;" font-size="14" lengthAdjust="spacing" textLength="64" x="294.5" y="88.4631">サービス2</text></g><!--MD5=[f292190669091b9bd2cb100449f03c89]
entity サービス3--><g id="elem_サービス3"><ellipse cx="451.5" cy="142.468" fill="#F1F1F1" rx="12" ry="12" style="stroke:#181818;stroke-width:0.5;"/><polygon fill="#181818" points="447.5,130.468,453.5,125.468,451.5,130.468,453.5,135.468,447.5,130.468" style="stroke:#181818;stroke-width:1.0;"/><text fill="#000000" font-family="&quot;Yu Gothic UI, sans-serif&quot;" font-size="14" lengthAdjust="spacing" textLength="65" x="419" y="171.4631">サービス3</text></g><!--MD5=[c6094ab151b8b54c73476c4fb8c316de]
entity サービス4--><g id="elem_サービス4"><ellipse cx="451.5" cy="59.468" fill="#F1F1F1" rx="12" ry="12" style="stroke:#181818;stroke-width:0.5;"/><polygon fill="#181818" points="447.5,47.468,453.5,42.468,451.5,47.468,453.5,52.468,447.5,47.468" style="stroke:#181818;stroke-width:1.0;"/><text fill="#000000" font-family="&quot;Yu Gothic UI, sans-serif&quot;" font-size="14" lengthAdjust="spacing" textLength="64" x="419.5" y="88.4631">サービス4</text></g><!--MD5=[cb806db31311588c371a8644e7db75c6]
entity カスタマー--><g id="elem_カスタマー"><ellipse cx="41" cy="79.968" fill="#F1F1F1" rx="8" ry="8" style="stroke:#181818;stroke-width:0.5;"/><path d="M41,87.968 L41,114.968 M28,95.968 L54,95.968 M41,114.968 L28,129.968 M41,114.968 L54,129.968 " fill="none" style="stroke:#181818;stroke-width:0.5;"/><text fill="#000000" font-family="&quot;Yu Gothic UI, sans-serif&quot;" font-size="14" lengthAdjust="spacing" textLength="70" x="6" y="144.4631">カスタマー</text></g><!--MD5=[2b3720a1f082f4c725ea3d13ec33a24a]
link カスタマー to ウェブアプリ--><g id="link_カスタマー_ウェブアプリ"><path d="M76.0125,99.408 C96.1147,93.462 121.705,85.893 142.928,79.616 " fill="none" id="カスタマー-ウェブアプリ" style="stroke:#181818;stroke-width:1.0;"/></g><!--MD5=[ff56df20fd4070134a32268c1f917e98]
link カスタマー to モバイルアプリ--><g id="link_カスタマー_モバイルアプリ"><path d="M76.0125,119.2885 C93.8994,124.453 116.131,130.8722 135.766,136.5412 " fill="none" id="カスタマー-モバイルアプリ" style="stroke:#181818;stroke-width:1.0;"/></g><!--MD5=[78c7b5bd9986124ac0a193a85f80c515]
link サービス1 to サービス2--><g id="link_サービス1_サービス2"><path d="M326.5,126.1516 C326.5,114.69 326.5,103.228 326.5,91.767 " fill="none" id="サービス1-サービス2" style="stroke:#181818;stroke-width:1.0;"/></g><!--MD5=[6597bee49a1093f7cc65d9c610a84aba]
link サービス1 to サービス3--><g id="link_サービス1_サービス3"><path d="M359.176,150.468 C377.54,150.468 400.586,150.468 418.932,150.468 " fill="none" id="サービス1-サービス3" style="stroke:#181818;stroke-width:1.0;"/></g><!--MD5=[0955785f3c3a6eff596a13364ff1c1c0]
link サービス2 to サービス4--><g id="link_サービス2_サービス4"><path d="M358.538,67.468 C377.184,67.468 400.828,67.468 419.472,67.468 " fill="none" id="サービス2-サービス4" style="stroke:#181818;stroke-width:1.0;"/></g><!--MD5=[22a7a59774050a23e2a42b14ce302e74]
link サービス3 to サービス4--><g id="link_サービス3_サービス4"><path d="M451.5,126.1516 C451.5,114.69 451.5,103.228 451.5,91.767 " fill="none" id="サービス3-サービス4" style="stroke:#181818;stroke-width:1.0;"/></g><!--MD5=[cf83ce1b0f6bf2a99bf98eb7625036a9]
link ウェブアプリ to サービス1--><g id="link_ウェブアプリ_サービス1"><path d="M227.195,91.33 C237.291,97.224 248.052,103.546 258,109.468 C268.309,115.6049 279.456,122.3365 289.665,128.5393 " fill="none" id="ウェブアプリ-to-サービス1" style="stroke:#181818;stroke-width:1.0;"/><polygon fill="#181818" points="293.977,131.162,288.3665,123.0674,289.7052,128.5636,284.209,129.9022,293.977,131.162" style="stroke:#181818;stroke-width:1.0;"/></g><!--MD5=[6d4d07d103058f330473f58a2119fa50]
link ウェブアプリ to サービス2--><g id="link_ウェブアプリ_サービス2"><path d="M227.1,67.468 C246.788,67.468 270.162,67.468 289.188,67.468 " fill="none" id="ウェブアプリ-to-サービス2" style="stroke:#181818;stroke-width:1.0;"/><polygon fill="#181818" points="294.432,67.468,285.432,63.468,289.432,67.468,285.432,71.468,294.432,67.468" style="stroke:#181818;stroke-width:1.0;"/></g><!--MD5=[539ab302c86353e5f43640e897bf8b6c]
link モバイルアプリ to サービス1--><g id="link_モバイルアプリ_サービス1"><path d="M234.008,150.468 C251.864,150.468 271.832,150.468 288.547,150.468 " fill="none" id="モバイルアプリ-to-サービス1" style="stroke:#181818;stroke-width:1.0;"/><polygon fill="#181818" points="293.624,150.468,284.624,146.468,288.624,150.468,284.624,154.468,293.624,150.468" style="stroke:#181818;stroke-width:1.0;"/></g><!--MD5=[0e1ca0565f6fc79e8ff5c7b6ad8fd393]
link モバイルアプリ to サービス2--><g id="link_モバイルアプリ_サービス2"><path d="M228.8,126.4594 C238.446,120.9477 248.607,115.0617 258,109.468 C268.48,103.227 279.768,96.29 290.058,89.88 " fill="none" id="モバイルアプリ-to-サービス2" style="stroke:#181818;stroke-width:1.0;"/><polygon fill="#181818" points="294.402,87.17,284.6489,88.5403,290.1599,89.8167,288.8836,95.3276,294.402,87.17" style="stroke:#181818;stroke-width:1.0;"/></g><!--MD5=[973621848e1bae27ac2aeb0cb3bd71b9]
@startuml
skinparam monochrome true
skinparam handwritten false
skinparam defaultFontName "Yu Gothic UI, sans-serif"
left to right direction
actor カスタマー
cloud フロントエンド {
    boundary ウェブアプリ
    boundary モバイルアプリ
    カスタマー - - ウェブアプリ
    カスタマー - - モバイルアプリ
}
cloud マイクロサービス {
    control サービス1
    control サービス2
    control サービス3
    control サービス4
    サービス1 - サービス2
    サービス1 - - サービス3
    サービス2 - - サービス4
    サービス3 - サービス4
    ウェブアプリ - -> サービス1
    ウェブアプリ - -> サービス2
    モバイルアプリ - -> サービス1
    モバイルアプリ - -> サービス2
}
@enduml

PlantUML version 1.2022.3beta2(Unknown compile time)
(GPL source distribution)
Java Runtime: Java(TM) SE Runtime Environment
JVM: Java HotSpot(TM) 64-Bit Server VM
Default Encoding: UTF-8
Language: en
Country: US
--></g></svg>